<?xml version="1.0" encoding="UTF-8"?>
<svg width="24px" height="24px" viewBox="0 0 24 24" version="1.1" xmlns="http://www.w3.org/2000/svg" xmlns:xlink="http://www.w3.org/1999/xlink">
    <!-- Generator: Sketch 56.2 (81672) - https://sketch.com -->
    <title>format_normal</title>
    <desc>Created with Sketch.</desc>
    <g id="页面-1" stroke="none" stroke-width="1" fill="none" fill-rule="evenodd">
        <g id="按钮规范" transform="translate(-519.000000, -293.000000)" fill="#000000" fill-rule="nonzero">
            <g id="record" transform="translate(136.000000, 204.000000)">
                <g id="主工具栏" transform="translate(158.000000, 0.000000)">
                    <g id="Group-9" transform="translate(218.000000, 81.000000)">
                        <g id="格式" transform="translate(7.000000, 8.000000)">
                            <g id="format_normal">
                                <path d="M12,20 C7.5888,20 4,16.4112 4,12 C4,7.5888 7.5888,4 12,4 C16.4112,4 20,7.5888 20,12 C20,16.4112 16.4112,20 12,20 Z M12,5.19999981 C8.25093321,5.19999981 5.19999981,8.25017765 5.19999981,12 C5.19999981,15.7498224 8.25093321,18.8000002 12,18.8000002 C15.7490668,18.8000002 18.8000002,15.7498224 18.8000002,12 C18.8000002,8.25017765 15.7498224,5.19999981 12,5.19999981 Z M14.915372,11.9660199 C15.0282093,12.0373153 15.0282093,12.2189634 14.915372,12.2896388 L12.5919235,13.7521234 L10.2290097,15.2263872 C10.11784,15.2952028 10,15.2053086 10,15.0639579 L10,12.1247296 L10,9.18612124 C10,9.04415048 10.11784,8.95487633 10.2290097,9.02369182 L12.601373,10.4979557 L14.915372,11.9660199 Z" id="Combined-Shape"></path>
                            </g>
                        </g>
                    </g>
                </g>
            </g>
        </g>
    </g>
</svg>