<?xml version="1.0" encoding="UTF-8"?>
<svg width="21px" height="21px" viewBox="0 0 21 21" version="1.1" xmlns="http://www.w3.org/2000/svg" xmlns:xlink="http://www.w3.org/1999/xlink">
    <!-- Generator: Sketch 56.2 (81672) - https://sketch.com -->
    <title>icon_drag</title>
    <desc>Created with Sketch.</desc>
    <defs>
        <path d="M11.0645752,8.2464172 L11.0645752,7.44426752 L16.5119427,7.44426752 L16.5139331,5.56926752 C16.5139331,5.41600318 16.5696656,5.28065287 16.683121,5.1691879 C16.794586,5.05772293 16.9279459,5 17.0832006,5 C17.236465,5 17.3718153,5.05573248 17.4832803,5.1691879 L19.7603503,7.44426752 C19.8678344,7.55772293 19.9235669,7.69307325 19.9235669,7.84633758 C19.9235669,7.99960191 19.8678344,8.13495223 19.754379,8.2464172 L17.4812898,10.5234873 C17.3698248,10.6349522 17.2344745,10.6926752 17.0812102,10.6926752 C16.9279459,10.6926752 16.7925955,10.6369427 16.6811306,10.5234873 C16.5696656,10.4120223 16.5119427,10.2786624 16.5119427,10.1234076 L16.5119427,8.2464172 L11.0645752,8.2464172 Z M8.98632813,8.2464172 L3.90625,8.2464172 L3.90625,10.1234076 C3.90625,10.276672 3.85051752,10.4120223 3.7370621,10.5234873 C3.62559713,10.6349522 3.49024682,10.6926752 3.33698248,10.6926752 C3.18371815,10.6926752 3.04836783,10.6369427 2.93690287,10.5234873 L0.661823248,8.24442675 C0.55035828,8.13296178 0.49263535,7.99960191 0.49263535,7.84434713 C0.49263535,7.6910828 0.548367834,7.55573248 0.661823248,7.44426752 L2.93690287,5.1691879 C3.04836783,5.05772293 3.18172771,5 3.33698248,5 C3.49024682,5 3.62559713,5.05573248 3.7370621,5.1691879 C3.84852707,5.28065287 3.90625,5.41600318 3.90625,5.56926752 L3.90625,7.44426752 L8.98632813,7.44426752 L8.98632813,8.2464172 Z" id="path-1"></path>
        <filter x="-33.8%" y="-120.0%" width="167.6%" height="340.0%" filterUnits="objectBoundingBox" id="filter-2">
            <feMorphology radius="0.5" operator="dilate" in="SourceAlpha" result="shadowSpreadOuter1"></feMorphology>
            <feOffset dx="0" dy="0" in="shadowSpreadOuter1" result="shadowOffsetOuter1"></feOffset>
            <feGaussianBlur stdDeviation="2" in="shadowOffsetOuter1" result="shadowBlurOuter1"></feGaussianBlur>
            <feComposite in="shadowBlurOuter1" in2="SourceAlpha" operator="out" result="shadowBlurOuter1"></feComposite>
            <feColorMatrix values="0 0 0 0 0   0 0 0 0 0   0 0 0 0 0  0 0 0 0.3 0" type="matrix" in="shadowBlurOuter1"></feColorMatrix>
        </filter>
    </defs>
    <g id="页面-1" stroke="none" stroke-width="1" fill="none" fill-rule="evenodd">
        <g id="按钮规范" transform="translate(-448.000000, -516.000000)">
            <g id="icon_drag" transform="translate(458.000000, 526.500000) rotate(-45.000000) translate(-458.000000, -526.500000) translate(448.000000, 519.000000)">
                <g id="形状结合" fill-rule="nonzero">
                    <use fill="black" fill-opacity="1" filter="url(#filter-2)" xlink:href="#path-1"></use>
                    <path stroke="#FFFFFF" stroke-width="0.5" d="M16.2622079,7.19426752 L16.2639331,5.56926752 C16.2639331,5.34754221 16.3476099,5.14834712 16.5063443,4.9924112 C16.6649703,4.83378526 16.8619391,4.75 17.0832006,4.75 C17.3049259,4.75 17.504121,4.83367675 17.6599796,4.99233392 L19.9418385,7.27233135 C20.0933689,7.43228008 20.1735669,7.62912977 20.1735669,7.84633758 C20.1735669,8.06806289 20.0898901,8.26725797 19.9313103,8.42303916 L17.6580665,10.700264 C17.4999105,10.85842 17.3010978,10.9426752 17.0812102,10.9426752 C16.8594849,10.9426752 16.6602898,10.8589984 16.5043539,10.700264 C16.3457279,10.541638 16.2619427,10.3446692 16.2619427,10.1234076 L16.2619427,8.4964172 L10.8145752,8.4964172 L10.8145752,7.19426752 L16.2622079,7.19426752 Z M4.15625,8.4964172 L4.15625,10.1234076 C4.15625,10.345133 4.07257325,10.544328 3.9138388,10.700264 C3.75568277,10.85842 3.55687011,10.9426752 3.33698248,10.9426752 C3.11525718,10.9426752 2.91606209,10.8589984 2.75997171,10.7001094 L0.485046553,8.42120345 C0.326420607,8.2625775 0.24263535,8.06560865 0.24263535,7.84434713 C0.24263535,7.62262183 0.326312097,7.42342674 0.485046553,7.26749082 L2.76012617,4.9924112 C2.91875212,4.83378526 3.11572097,4.75 3.33698248,4.75 C3.55870779,4.75 3.75790288,4.83367675 3.9138388,4.9924112 C4.07199482,5.15056723 4.15625,5.34937989 4.15625,5.56926752 L4.15625,7.19426752 L9.23632813,7.19426752 L9.23632813,8.4964172 L4.15625,8.4964172 Z" fill="#001A2E" fill-rule="evenodd"></path>
                </g>
                <path d="M9.78896484,5 L10.3401855,5 C10.395414,5 10.4401855,5.04477153 10.4401855,5.1 L10.4401855,10.9 C10.4401855,10.9552285 10.395414,11 10.3401855,11 L9.78896484,11 C9.73373637,11 9.68896484,10.9552285 9.68896484,10.9 L9.68896484,5.1 C9.68896484,5.04477153 9.73373637,5 9.78896484,5 Z" id="矩形" fill="#000000"></path>
                <path d="M9.78896484,4.75 L10.3401855,4.75 C10.5334852,4.75 10.6901855,4.90670034 10.6901855,5.1 L10.6901855,10.9 C10.6901855,11.0932997 10.5334852,11.25 10.3401855,11.25 L9.78896484,11.25 C9.59566518,11.25 9.43896484,11.0932997 9.43896484,10.9 L9.43896484,5.1 C9.43896484,4.90670034 9.59566518,4.75 9.78896484,4.75 Z" id="矩形" stroke="#FFFFFF" stroke-width="0.5" fill="#000000"></path>
            </g>
        </g>
    </g>
</svg>