<?xml version="1.0" encoding="UTF-8"?>
<svg width="36px" height="36px" viewBox="0 0 36 36" version="1.1" xmlns="http://www.w3.org/2000/svg" xmlns:xlink="http://www.w3.org/1999/xlink">
    <title>贴图_light</title>
    <g id="贴图" stroke="none" stroke-width="1" fill="none" fill-rule="evenodd">
        <g id="贴图_light" fill-rule="nonzero">
            <rect id="占位备份-2" fill="#FFFFFF" opacity="0" x="0" y="0" width="36" height="36" rx="8"></rect>
            <path d="M22.4773362,8.92715841 L27.0738353,13.4900745 L27.0738353,13.4900745 C27.589897,13.9392279 27.6449837,14.7226658 27.1968749,15.2399307 C26.7487663,15.7571956 25.9671508,15.8124107 25.4510891,15.3632571 C25.4072399,15.325093 25.3661249,15.2838822 25.3280496,15.2399307 L24.86398,14.8744544 L20.1680374,21.5194779 L21.6375912,22.9924581 L21.6375912,22.9924581 C22.0856998,23.509723 22.0306131,24.2931609 21.5145517,24.7423143 C21.0491246,25.147399 20.3572327,25.147399 19.8918057,24.7423143 L11.240222,16.0151834 L11.2402221,16.0151835 C10.7921135,15.4979186 10.8472002,14.7144807 11.3632616,14.2653273 C11.8286886,13.8602426 12.5205805,13.8602426 12.9860076,14.2653272 L14.4445121,15.7383074 L21.0740781,11.0314158 L20.7315506,10.6770145 L20.7315505,10.6770145 C20.2154888,10.2278611 20.1604022,9.44442317 20.6085112,8.92715827 C21.0566198,8.40989338 21.8382353,8.35467825 22.3542969,8.80383209 C22.3981461,8.8419962 22.4392611,8.88320702 22.4773364,8.92715849 L22.4773362,8.92715841 Z M15.5383904,22.1396801 L13.8147033,20.4341241 C12.4224944,22.11753 10.2236883,24.5651137 9.82591437,25.0745655 L9.82591372,25.0745663 C9.24484046,25.7984369 8.79596575,26.6195407 8.5,27.5 L8.5,27.5 C9.37763412,27.206717 10.1967783,26.7605724 10.9197916,26.1820703 C11.4280583,25.7833689 13.8699485,23.5794361 15.5383904,22.1618311 L15.5383904,22.1396801 Z" id="形状" fill="#000000"></path>
        </g>
    </g>
</svg>