<?xml version="1.0" encoding="UTF-8"?>
<svg width="36px" height="36px" viewBox="0 0 36 36" version="1.1" xmlns="http://www.w3.org/2000/svg" xmlns:xlink="http://www.w3.org/1999/xlink">
    <!-- Generator: Sketch 56.2 (81672) - https://sketch.com -->
    <title>screenshot button-normal</title>
    <desc>Created with Sketch.</desc>
    <g id="页面-1" stroke="none" stroke-width="1" fill="none" fill-rule="evenodd">
        <g id="按钮规范" transform="translate(-577.000000, -402.000000)" fill="#FFFFFF" fill-rule="nonzero">
            <g id="capture" transform="translate(555.000000, 390.000000)">
                <g id="screenshot-button-normal" transform="translate(22.000000, 12.000000)">
                    <path d="M29,25 L33,25 L33,27 L29,27 L29,31 L27,31 L27,27 L11,27 C8.790861,27 7,25.209139 7,23 L7,11 L3,11 L3,9 L7,9 L7,5 L9,5 L9,9 L25,9 C27.209139,9 29,10.790861 29,13 L29,25 Z M9,11 L9,23 C9,24.1045695 9.8954305,25 11,25 L27,25 L27,13 C27,11.8954305 26.1045695,11 25,11 L9,11 Z M11,13 L25,13 L25,23 L11,23 L11,13 Z" id="Combined-Shape"></path>
                </g>
            </g>
        </g>
    </g>
</svg>