<?xml version="1.0" encoding="UTF-8"?>
<svg width="36px" height="36px" viewBox="0 0 36 36" version="1.1" xmlns="http://www.w3.org/2000/svg" xmlns:xlink="http://www.w3.org/1999/xlink">
    <!-- Generator: Sketch 56.2 (81672) - https://sketch.com -->
    <title>screencap button-normal</title>
    <desc>Created with Sketch.</desc>
    <g id="页面-1" stroke="none" stroke-width="1" fill="none" fill-rule="evenodd">
        <g id="按钮规范" transform="translate(-577.000000, -509.000000)" fill="#FFFFFF" fill-rule="nonzero">
            <g id="record" transform="translate(555.000000, 497.000000)">
                <g id="screencap-button-normal" transform="translate(22.000000, 12.000000)">
                    <path d="M7.5,17 C4.46125,17 2,14.537375 2,11.5 C2,8.462625 4.462625,6 7.5,6 C10.537375,6 13,8.462625 13,11.5 C13,14.537375 10.537375,17 7.5,17 Z M20.2857143,19.5199775 C21.2384286,19.5199775 22.1490714,19.3536072 23,19.0614766 L23,27.3799944 C23,28.8262375 21.784,30 20.2857143,30 L6.71428571,30 C5.216,30 4,28.8262375 4,27.3799944 L4,19.0614766 C4.85092857,19.3536072 5.76157143,19.5199775 6.71428571,19.5199775 C9.54257143,19.5199775 12.0397143,18.1208945 13.5,16 C14.9602857,18.1208945 17.4574286,19.5199775 20.2857143,19.5199775 Z M26,20.9 L34,17 L34,30 L26,26.1 L26,20.9 Z M20.5,6 C23.537375,6 26,8.462625 26,11.5 C26,14.537375 23.537375,17 20.5,17 C17.462625,17 15,14.537375 15,11.5 C15,8.462625 17.462625,6 20.5,6 Z M7.5,13 C8.32842712,13 9,12.3284271 9,11.5 C9,10.6715729 8.32842712,10 7.5,10 C6.67157288,10 6,10.6715729 6,11.5 C6,12.3284271 6.67157288,13 7.5,13 Z M20.5,13 C21.3284271,13 22,12.3284271 22,11.5 C22,10.6715729 21.3284271,10 20.5,10 C19.6715729,10 19,10.6715729 19,11.5 C19,12.3284271 19.6715729,13 20.5,13 Z" id="Combined-Shape"></path>
                </g>
            </g>
        </g>
    </g>
</svg>