<?xml version="1.0" encoding="UTF-8"?>
<svg width="36px" height="36px" viewBox="0 0 36 36" version="1.1" xmlns="http://www.w3.org/2000/svg" xmlns:xlink="http://www.w3.org/1999/xlink">
    <title>截长图_light</title>
    <g id="5.10截长图" stroke="none" stroke-width="1" fill="none" fill-rule="evenodd">
        <g id="截长图_light">
            <rect id="占位备份-2" fill="#FFFFFF" fill-rule="nonzero" opacity="0" x="0" y="0" width="36" height="36" rx="8"></rect>
            <rect id="矩形" fill="#000000" x="11.1024878" y="13" width="14" height="10"></rect>
            <path d="M17.6978409,6.12822946 C17.6880082,6.13466066 17.6769465,6.14323559 17.6671139,6.15073865 L11.2518229,9.91104093 C10.9875712,10.1211267 10.927467,10.4506222 11.0896449,10.7253111 C11.2518229,11 11.6367957,11.0439978 11.9751329,10.833912 L18.1083528,7.32979165 L24.2925727,10.8519445 C24.6293939,10.9856794 24.8815394,10.9856794 25.0999675,10.7253111 C25.3183956,10.4649428 25.1772462,10.030436 24.9356312,9.91104093 L18.5459044,6.14859492 C18.3050052,5.95565897 17.9424273,5.95244337 17.6978409,6.12822946 Z" id="路径" fill="#000000"></path>
            <path d="M17.6978409,25.1282295 C17.6880082,25.1346607 17.6769465,25.1432356 17.6671139,25.1507387 L11.2518229,28.9110409 C10.9875712,29.1211267 10.927467,29.4506222 11.0896449,29.7253111 C11.2518229,30 11.6367957,30.0439978 11.9751329,29.833912 L18.1083528,26.3297917 L24.2925727,29.8519445 C24.6293939,29.9856794 24.8815394,29.9856794 25.0999675,29.7253111 C25.3183956,29.4649428 25.1772462,29.030436 24.9356312,28.9110409 L18.5459044,25.1485949 C18.3050052,24.955659 17.9424273,24.9524434 17.6978409,25.1282295 Z" id="路径备份" fill="#000000" transform="translate(18.104144, 27.482947) scale(1, -1) translate(-18.104144, -27.482947) "></path>
        </g>
    </g>
</svg>