<?xml version="1.0" encoding="UTF-8"?>
<svg width="36px" height="36px" viewBox="0 0 36 36" version="1.1" xmlns="http://www.w3.org/2000/svg" xmlns:xlink="http://www.w3.org/1999/xlink">
    <!-- Generator: Sketch 56.2 (81672) - https://sketch.com -->
    <title>text</title>
    <desc>Created with Sketch.</desc>
    <g id="页面-1" stroke="none" stroke-width="1" fill="none" fill-rule="evenodd">
        <g id="按钮规范" transform="translate(-570.000000, -101.000000)" fill="#000000">
            <g id="截图工具栏" transform="translate(137.000000, 89.000000)">
                <g id="主工具栏" transform="translate(222.000000, 10.000000)">
                    <g id="Group-9" transform="translate(208.000000, 0.000000)">
                        <g id="text" transform="translate(3.000000, 2.000000)">
                            <path d="M11.1523438,9 L25.8408203,9 L25.9804688,13.4179688 L25.3583984,13.4179688 C25.0537094,12.029941 24.6665063,11.1264669 24.1967773,10.7075195 C23.7270484,10.2885721 22.7389398,10.0791016 21.2324219,10.0791016 L19.7851562,10.0791016 L19.7851562,24.3837891 C19.7851562,25.3909556 19.9417302,26.0151355 20.2548828,26.2563477 C20.5680354,26.4975598 21.2535754,26.6562496 22.3115234,26.7324219 L22.3115234,27.2021484 L14.7324219,27.2021484 L14.7324219,26.7324219 C15.8326878,26.647786 16.5182278,26.4658217 16.7890625,26.1865234 C17.0598972,25.9072252 17.1953125,25.2047582 17.1953125,24.0791016 L17.1953125,10.0791016 L15.7480469,10.0791016 C14.3092376,10.0791016 13.3295924,10.2864563 12.809082,10.7011719 C12.2885716,11.1158875 11.8971367,12.0214774 11.6347656,13.4179688 L11,13.4179688 L11.1523438,9 Z" id="T"></path>
                        </g>
                    </g>
                </g>
            </g>
        </g>
    </g>
</svg>