<?xml version="1.0" encoding="UTF-8"?>
<svg width="60px" height="60px" viewBox="0 0 60 60" version="1.1" xmlns="http://www.w3.org/2000/svg" xmlns:xlink="http://www.w3.org/1999/xlink">
    <!-- Generator: Sketch 56.2 (81672) - https://sketch.com -->
    <title>video-x-mkv</title>
    <desc>Created with Sketch.</desc>
    <defs>
        <linearGradient x1="50%" y1="0%" x2="50%" y2="100%" id="linearGradient-1">
            <stop stop-color="#327DFF" offset="0%"></stop>
            <stop stop-color="#1066FF" offset="100%"></stop>
        </linearGradient>
        <linearGradient x1="50%" y1="0%" x2="50%" y2="100%" id="linearGradient-2">
            <stop stop-color="#327DFF" offset="0%"></stop>
            <stop stop-color="#1066FF" offset="100%"></stop>
        </linearGradient>
        <linearGradient x1="50%" y1="50%" x2="10.489%" y2="91.194%" id="linearGradient-3">
            <stop stop-color="#FFFFFF" stop-opacity="0.1" offset="0%"></stop>
            <stop stop-color="#FFFFFF" stop-opacity="0.3" offset="100%"></stop>
        </linearGradient>
    </defs>
    <g id="页面-1" stroke="none" stroke-width="1" fill="none" fill-rule="evenodd">
        <g id="按钮规范" transform="translate(-453.000000, -862.000000)" fill-rule="nonzero">
            <g id="video-x-mkv" transform="translate(453.000000, 862.000000)">
                <g id="编组" transform="translate(6.000000, 0.000000)">
                    <g id="video-x-mkv-b-link" fill="#000000">
                        <path d="M33.4615385,0 L48.4615385,15 L48.4615385,54.8076923 C48.4615385,57.6753246 46.1368631,60 43.2692308,60 L5.19230769,60 C2.32467534,60 0,57.6753246 0,54.8076923 L0,5.19230769 C0,2.32467534 2.32467534,0 5.19230769,0 L33.4615385,0 Z" id="video-x-mkv-b"></path>
                    </g>
                    <g id="video-x-mkv-b-link" fill="url(#linearGradient-2)">
                        <path d="M33.4615385,0 L48.4615385,15 L48.4615385,54.8076923 C48.4615385,57.6753246 46.1368631,60 43.2692308,60 L5.19230769,60 C2.32467534,60 0,57.6753246 0,54.8076923 L0,5.19230769 C0,2.32467534 2.32467534,0 5.19230769,0 L33.4615385,0 Z" id="video-x-mkv-b"></path>
                    </g>
                    <g id="video-x-mkv-e-link" transform="translate(33.461538, 0.000000)" fill="#000000">
                        <path d="M0,0 L15,15 L5.19230769,15 C2.32467537,15 0,12.6753246 0,9.80769231 L0,0 Z" id="video-x-mkv-e"></path>
                    </g>
                    <g id="video-x-mkv-e-link" transform="translate(33.461538, 0.000000)" fill="url(#linearGradient-3)">
                        <path d="M0,0 L15,15 L5.19230769,15 C2.32467537,15 0,12.6753246 0,9.80769231 L0,0 Z" id="video-x-mkv-e"></path>
                    </g>
                </g>
                <path d="M23.3076923,51.6346154 L21,47.5961538 L21,52.7884615 L19.8461538,52.7884615 L19.8461538,44.7115385 L21,44.7115385 L23.8846154,50.1923077 L26.7692308,44.7115385 L27.9230769,44.7115385 L27.9230769,52.7884615 L26.7692308,52.7884615 L26.7692308,47.5961538 L24.4615385,51.6346154 L23.3076923,51.6346154 Z M35.4230769,44.7115385 L36.6346145,44.7115385 L38.8846154,51.0576923 L41.1346163,44.7115385 L42.3461538,44.7115385 L39.5061194,52.7884615 L38.3076923,52.7884615 L35.4230769,44.7115385 Z M29.0769231,44.7115385 L30.2307692,44.7115385 L30.2307692,47.5961538 L33.1153846,44.7115385 L34.8461538,44.7115385 L30.8076923,48.75 L35.1346154,52.7884615 L33.4038462,52.7884615 L30.2307692,49.9038462 L30.2307692,52.7884615 L29.0769231,52.7884615 L29.0769231,44.7115385 Z M30.2307692,40.0961538 C22.7430625,40.0961538 16.6730769,34.0261682 16.6730769,26.5384615 C16.6730769,19.0507548 22.7430625,12.9807692 30.2307692,12.9807692 C37.7184759,12.9807692 43.7884615,19.0507548 43.7884615,26.5384615 C43.7884615,34.0261682 37.7184759,40.0961538 30.2307692,40.0961538 Z M30.2307692,38.3653846 C36.7625985,38.3653846 42.0576923,33.0702908 42.0576923,26.5384615 C42.0576923,20.0066323 36.7625985,14.7115385 30.2307692,14.7115385 C23.69894,14.7115385 18.4038462,20.0066323 18.4038462,26.5384615 C18.4038462,33.0702908 23.69894,38.3653846 30.2307692,38.3653846 Z M39.22,26.1275592 C39.5323077,26.3118302 39.5323077,26.7813208 39.22,26.9639895 L32.7892308,30.7439498 L26.2492308,34.5543548 C25.9415384,34.7322164 25.6153846,34.4998746 25.6153846,34.1345372 L25.6153846,26.5377625 L25.6153846,18.9425903 C25.6153846,18.5756505 25.9415384,18.3449111 26.2492308,18.5227727 L32.8153846,22.3331777 L39.22,26.1275592 Z" id="形状" fill="#FFFFFF"></path>
            </g>
        </g>
    </g>
</svg>