<?xml version="1.0" encoding="UTF-8"?>
<svg width="51px" height="97px" viewBox="0 0 51 97" version="1.1" xmlns="http://www.w3.org/2000/svg" xmlns:xlink="http://www.w3.org/1999/xlink">
    <title>手机</title>
    <defs>
        <linearGradient x1="50.1293009%" y1="97.8988874%" x2="50.1312838%" y2="1.57400736%" id="linearGradient-1">
            <stop stop-color="#FFFBFF" offset="0%"></stop>
            <stop stop-color="#8B898B" offset="6.9%"></stop>
            <stop stop-color="#FFFFFF" offset="46.1%"></stop>
            <stop stop-color="#848284" offset="93%"></stop>
            <stop stop-color="#FFFFFF" offset="100%"></stop>
        </linearGradient>
        <linearGradient x1="87.658537%" y1="96.7802115%" x2="87.658537%" y2="1.76307509%" id="linearGradient-2">
            <stop stop-color="#FFFBFF" offset="0%"></stop>
            <stop stop-color="#8B898B" offset="3.56035697%"></stop>
            <stop stop-color="#FFFFFF" offset="46.1%"></stop>
            <stop stop-color="#A3A3A3" offset="95.2052797%"></stop>
            <stop stop-color="#FFFFFF" offset="100%"></stop>
        </linearGradient>
        <linearGradient x1="100%" y1="0%" x2="36.5%" y2="0%" id="linearGradient-3">
            <stop stop-color="#FFFFFF" offset="0%"></stop>
            <stop stop-color="#000000" stop-opacity="0" offset="100%"></stop>
        </linearGradient>
        <linearGradient x1="100%" y1="50%" x2="0%" y2="50%" id="linearGradient-4">
            <stop stop-color="#000000" stop-opacity="0" offset="0%"></stop>
            <stop stop-color="#FFFFFF" offset="100%"></stop>
        </linearGradient>
        <linearGradient x1="50%" y1="54.9006783%" x2="50%" y2="100%" id="linearGradient-5">
            <stop stop-color="#000000" stop-opacity="0" offset="0%"></stop>
            <stop stop-color="#FFFFFF" offset="100%"></stop>
        </linearGradient>
        <linearGradient x1="50%" y1="-21.0446376%" x2="50%" y2="100%" id="linearGradient-6">
            <stop stop-color="#FFFFFF" offset="0%"></stop>
            <stop stop-color="#000000" stop-opacity="0" offset="100%"></stop>
        </linearGradient>
        <linearGradient x1="50%" y1="35.8503983%" x2="50%" y2="100%" id="linearGradient-7">
            <stop stop-color="#000000" stop-opacity="0" offset="0%"></stop>
            <stop stop-color="#1A454E" offset="100%"></stop>
        </linearGradient>
        <linearGradient x1="50%" y1="0%" x2="50%" y2="78.2745133%" id="linearGradient-8">
            <stop stop-color="#1A3D45" offset="0%"></stop>
            <stop stop-color="#000000" stop-opacity="0" offset="100%"></stop>
        </linearGradient>
        <radialGradient cx="40.4491%" cy="12.3241%" fx="40.4491%" fy="12.3241%" r="58.2518701%" gradientTransform="translate(0.404491,0.123241),scale(1.000000,0.988670),rotate(15.173024),translate(-0.404491,-0.123241)" id="radialGradient-9">
            <stop stop-color="#FFFFFF" offset="0%"></stop>
            <stop stop-color="#000000" stop-opacity="0" offset="100%"></stop>
        </radialGradient>
        <ellipse id="path-10" cx="1.49869292" cy="1.49869292" rx="1" ry="1"></ellipse>
    </defs>
    <g id="页面-1" stroke="none" stroke-width="1" fill="none" fill-rule="evenodd">
        <g id="手机" transform="translate(0.001105, 0.000000)">
            <g id="编组-4">
                <g id="Button" transform="translate(49.040482, 22.655118)">
                    <rect id="Rectangle" fill="url(#linearGradient-1)" fill-rule="nonzero" x="0" y="0" width="1" height="12.6883993" rx="0.306945508"></rect>
                    <rect id="Rectangle" stroke="#8D8A8C" stroke-width="0.5" x="0.0238095238" y="0.0191667663" width="1" height="12.6500657" rx="0.287761414"></rect>
                </g>
                <g id="Button-2" transform="translate(49.040482, 43.930228)">
                    <rect id="Rectangle" fill="url(#linearGradient-2)" fill-rule="nonzero" x="0" y="0" width="1" height="6.70836819" rx="0.306945508"></rect>
                    <rect id="Rectangle" stroke="#8D8A8C" stroke-width="0.5" x="0.0238095238" y="0.0191667663" width="1" height="6.67003466" rx="0.287761414"></rect>
                </g>
                <path d="M44.2661281,0 C47.9206548,0.0588219436 49.3306407,1.72029676 49.5569286,4.47805942 L49.5723562,4.72341569 L49.5791814,23.4379068 L49.5791814,23.4379068 L49.5720185,91.2661837 L49.5720185,91.2661837 C49.401472,94.1519782 48.0143607,95.8982023 44.2661281,95.9585325 L5.3133126,95.9585325 C1.65878583,95.8997105 0.248799929,94.2382357 0.0225121114,91.4804731 L0.00708450068,91.2351168 L0,70.3018702 L0,70.3018702 L0.0074221827,4.69234878 L0.0074221827,4.69234878 C0.17796866,1.80655428 1.56508001,0.0603301986 5.3133126,0 L44.2661281,0 Z M43.3247873,1.58463157 L6.24798309,1.58463157 C5.80125951,1.58945352 5.3554565,1.62455799 4.91393064,1.68968067 C4.54249647,1.74442486 4.17712271,1.83173033 3.82243319,1.95049222 C3.51595423,2.05503788 3.22338801,2.19363853 2.95075119,2.36344385 C2.69980925,2.51989531 2.47277836,2.70885134 2.27614512,2.92491317 C2.08157301,3.13704922 1.9160151,3.37197353 1.7834553,3.62403303 C1.64193741,3.89017684 1.52892865,4.16931166 1.44615227,4.45718105 C1.30321808,4.94154537 1.2131881,5.50308861 1.17367568,6.16462229 L1.15800452,6.51297725 L1.15109372,36.2586203 L1.15405527,57.4708736 L1.23061942,89.8308856 C1.2482349,90.1901519 1.19237103,90.5928588 1.25301578,90.9478178 C1.31021112,91.271648 1.42524311,91.5859653 1.52954943,91.8988795 C1.62617874,92.187523 1.81294543,92.4270823 1.96586423,92.692568 C2.11070239,92.9456453 2.28625024,93.1815205 2.48887343,93.3953102 C2.69222464,93.6100415 2.92263997,93.7998525 3.17484926,93.9604019 C3.44461959,94.1292417 3.7331552,94.2689542 4.03516149,94.3769759 C4.37268094,94.4975046 4.72176437,94.586074 5.07738997,94.6414099 C5.35056393,94.6845232 5.6257421,94.7145011 5.90188541,94.7312557 L6.31669437,94.7464589 L43.3934986,94.7464589 C43.8102172,94.7416956 44.2258846,94.7053579 44.6365929,94.6377875 C44.9934496,94.582439 45.3437891,94.493873 45.6826113,94.3733535 C45.984963,94.2660855 46.2482306,94.0663279 46.5175695,93.8967762 C46.7697758,93.736223 46.9894821,93.5675326 47.1928369,93.3528048 C47.3942568,93.1380928 47.6057642,92.941239 47.7519086,92.6889456 C47.9055065,92.4237779 48.0311899,92.144694 48.1271108,91.8557976 C48.2305413,91.5429001 48.3103348,91.2233089 48.3658759,90.8994885 C48.4063057,90.6628492 48.4372167,90.4248583 48.4586374,90.1860417 L48.4836543,89.8272632 L48.4220956,60.3366349 L48.4189398,54.7892873 L48.4108623,6.5002049 C48.3932472,6.14093861 48.4265211,5.75729684 48.3658759,5.40233786 C48.3086825,5.07850735 48.2276292,4.75896698 48.1233209,4.44605335 C48.0266905,4.15741022 47.8536338,3.84989315 47.687203,3.59573915 C47.5207721,3.34158516 47.3552306,3.14957062 47.1526083,2.93578032 C46.9492557,2.72105036 46.7188405,2.53123946 46.4666324,2.37068861 C46.1968629,2.20184756 45.9083271,2.06213491 45.6063202,1.9541146 C45.2688004,1.83358678 44.9197171,1.74501744 44.5640917,1.68968067 C44.2909177,1.6465679 44.0157395,1.61659011 43.7395962,1.59983538 L43.3247873,1.58463157 Z" id="形状" fill="#8D8A8C" fill-rule="nonzero"></path>
                <path d="M44.2358087,0.226923967 C47.9764614,0.287295892 49.3597829,2.02466572 49.5303293,4.89904013 L49.5309979,5.01136153 C49.531107,5.04676234 49.531215,5.09038918 49.5313219,5.14207069 L49.5319495,5.54744466 C49.5320519,5.6306593 49.5321531,5.72158586 49.5322531,5.82005295 L49.5328398,6.49997091 C49.5329353,6.62791463 49.5330297,6.76305614 49.5331229,6.90522405 L49.5339313,8.3698211 C49.5340177,8.55260507 49.534103,8.74190132 49.5341871,8.93753847 L49.5349136,10.8648501 C49.5349909,11.0969903 49.5350671,11.3349573 49.5351422,11.5785796 L49.5359881,14.7625392 C49.536054,15.0486628 49.5361188,15.3397562 49.5361825,15.6356482 L49.5370523,20.412495 C49.5371046,20.7520878 49.5371558,21.0956223 49.5372058,21.442927 L49.5379835,28.0645834 C49.5380199,28.4509618 49.5380551,28.8400822 49.5380892,29.2317732 L49.5380892,66.7975392 C49.5380551,67.1892302 49.5380199,67.5783506 49.5379835,67.964729 L49.5372058,74.5863854 C49.5371558,74.9336901 49.5371046,75.2772246 49.5370523,75.6168174 L49.5361825,80.3936642 C49.5361188,80.6895562 49.536054,80.9806496 49.5359881,81.2667732 L49.5351422,84.4507328 C49.5350671,84.6943552 49.5349909,84.9323221 49.5349136,85.1644623 L49.5341871,87.091774 C49.534103,87.2874111 49.5340177,87.4767074 49.5339313,87.6594913 L49.5331229,89.1240884 C49.5330297,89.2662563 49.5329353,89.4013978 49.5328398,89.5293415 L49.5322531,90.2092595 C49.5321531,90.3077266 49.5320519,90.3986531 49.5319495,90.4818678 L49.5313219,90.8872417 C49.531215,90.9389232 49.531107,90.9825501 49.5309979,91.0179509 L49.5303293,91.1302723 L49.5303293,91.1302723 C49.3597829,94.0046467 47.9764614,95.7453705 44.2358087,95.8023885 L5.37774126,95.8023885 C1.63708852,95.7420165 0.253767095,94.0046467 0.0832206172,91.1302723 L0.0828829351,91.0993038 L0.0828829351,91.0993038 L0.0822280367,90.8872417 C0.0821211609,90.8355602 0.0820154221,90.7758241 0.0819108202,90.7082046 L0.0812968529,90.2092595 C0.081196799,90.1107924 0.081097882,90.0047848 0.081000102,89.891408 L0.0801507806,88.6766768 C0.0800598225,88.5206274 0.0799700013,88.3577231 0.0798813171,88.188135 L0.079113858,86.4860112 C0.0790319957,86.2778636 0.0789512704,86.0635465 0.078871682,85.8432312 L0.0781860852,83.7030709 C0.0781133187,83.4483091 0.0780416891,83.1880633 0.0779711966,82.9225048 L0.0771798609,79.4917641 C0.0771184642,79.1864464 0.0770582045,78.8765016 0.0769990817,78.5621011 L0.0751060158,61.9848243 C0.0750810023,61.5753102 0.0750571258,61.1639109 0.0750343863,60.7507979 L0.0750343863,35.2785145 C0.0750571258,34.8654015 0.0750810023,34.4540023 0.0751060158,34.0444882 L0.0769990817,17.4672113 C0.0770582045,17.1528108 0.0771184642,16.842866 0.0771798609,16.5375483 L0.0779711966,13.1068076 C0.0780416891,12.8412492 0.0781133187,12.5810034 0.0781860852,12.3262416 L0.078871682,10.1860812 C0.0789512704,9.96576596 0.0790319957,9.75144885 0.079113858,9.54330127 L0.0798813171,7.8411774 C0.0799700013,7.67158937 0.0800598225,7.50868498 0.0801507806,7.35263563 L0.081000102,6.13790446 C0.081097882,6.02452767 0.081196799,5.91852005 0.0812968529,5.82005295 L0.0819108202,5.32110782 C0.0820154221,5.25348836 0.0821211609,5.19375219 0.0822280367,5.14207069 L0.0828829351,4.93000859 C0.0829943588,4.91123123 0.0831069195,4.90085128 0.0832206172,4.89904013 C0.253767095,2.02466572 1.63708852,0.283941896 5.37774126,0.226923967 L44.2358087,0.226923967 Z M43.3247873,1.58463157 L6.24798309,1.58463157 C5.80125951,1.5894534 5.3554565,1.62455697 4.91393064,1.68967797 C4.54249647,1.74442076 4.17712271,1.83172399 3.82243319,1.95048284 C3.51595423,2.05502582 3.22338801,2.19362292 2.95075119,2.36342388 C2.69980925,2.51987133 2.47277836,2.70882251 2.27614512,2.92487881 C2.08157301,3.13700942 1.9160151,3.37192771 1.7834553,3.62398075 C1.64193741,3.89011773 1.52892865,4.1692454 1.44615227,4.45710741 C1.27939571,5.02218462 1.18464767,5.69230824 1.15811822,6.50370117 C1.15808032,6.50453429 1.15804242,6.50759151 1.15800452,6.51285091 L1.1570977,7.05068311 C1.15706011,7.08977586 1.15702255,7.13089558 1.15698503,7.17402039 L1.15609376,8.58277864 C1.15605709,8.65658314 1.15602049,8.73221752 1.15598396,8.80965988 L1.15512298,11.0041956 C1.15508784,11.109164 1.15505281,11.2157651 1.15501788,11.3239772 L1.15410337,14.6211801 C1.15407066,14.756614 1.15403809,14.8934617 1.15400567,15.0317012 L1.15307986,19.5745485 C1.1530507,19.7384354 1.15302171,19.9034952 1.15299291,20.069706 L1.15211498,25.9433136 C1.15209072,26.1321958 1.1520667,26.321988 1.1520429,26.5126683 L1.15109372,36.2577314 C1.15107829,36.4712265 1.15106316,36.6852593 1.15104831,36.8998081 L1.15102348,70.8487212 C1.15103561,71.0157313 1.15104804,71.182427 1.15106078,71.3487725 L1.15201729,79.3539528 C1.15204279,79.4981069 1.15206873,79.6413058 1.15209511,79.7835138 L1.15302842,83.7169056 C1.15306451,83.8357372 1.15310112,83.953222 1.15313826,84.0693244 L1.15399882,86.2920536 C1.15404376,86.3870583 1.15408929,86.4804314 1.1541354,86.5721374 L1.15503098,88.0351037 C1.15508446,88.1055224 1.15513858,88.1740603 1.15519334,88.2406819 L1.15588193,88.9458796 C1.15594197,88.9966011 1.15600268,89.0452639 1.15606408,89.0918324 L1.15703714,89.6288376 C1.15710555,89.6535732 1.15717468,89.6760365 1.15724453,89.6961919 L1.15789309,89.8143171 L1.15789309,89.8143171 L1.15811822,89.825001 C1.1757337,90.1842581 1.19237103,90.5422489 1.25301578,90.8971988 C1.31021112,91.2210206 1.42524311,91.5859733 1.52954943,91.8988795 C1.62617874,92.1875156 1.81294543,92.4247534 1.96586423,92.6902323 C2.11070239,92.9433032 2.28625024,93.1791723 2.48887343,93.3929565 C2.69222464,93.6076823 2.92263997,93.7974885 3.17484926,93.9580337 C3.44461959,94.1268692 3.7331552,94.2665782 4.03516149,94.3745971 C4.37268094,94.4951227 4.72176437,94.5836898 5.07738997,94.6390242 C5.48715091,94.7036925 5.90142131,94.7388071 6.31669437,94.7440706 L6.31669437,94.7440706 L43.3934986,94.7440706 C43.8102172,94.7393074 44.2258846,94.7029706 44.6365929,94.6354019 C44.9934496,94.5800548 45.3437891,94.4914911 45.6826113,94.3709748 C45.984963,94.2637095 46.2735847,94.1239588 46.5429235,93.9544114 C46.7951298,93.7938623 47.0255446,93.6040565 47.2288994,93.3893342 C47.4303193,93.1746278 47.6057642,92.938897 47.7519086,92.68661 C47.9055065,92.4214491 48.0311899,92.1423724 48.1271108,91.8534833 C48.2305413,91.5405939 48.3103348,91.2210109 48.3658759,90.8971988 C48.4265206,90.5422489 48.465748,90.1842581 48.4837835,89.825001 L48.4837835,89.825001 L48.4832804,89.4862758 C48.4832078,89.4595556 48.4831291,89.4312894 48.4830444,89.4014885 L48.482126,89.0921446 C48.4727233,86.0183709 48.428879,73.576079 48.4200092,57.2905207 L48.4191538,55.4188796 C48.4190764,55.2091393 48.419005,54.9988168 48.4189398,54.7879233 L48.4180582,28.1248893 C48.4180478,27.9300331 48.4180371,27.7359299 48.4180262,27.5426046 L48.417111,18.0046763 C48.4170872,17.8474389 48.417063,17.6914284 48.4170384,17.5366697 L48.4160588,12.9172622 C48.4160237,12.7930628 48.4159881,12.6703896 48.4159521,12.5492677 L48.4151147,10.2422866 C48.415071,10.1441034 48.4150266,10.0476461 48.4149817,9.95293951 L48.4141081,8.4426875 C48.4140558,8.36988764 48.414003,8.29898817 48.4139495,8.23001403 L48.4130986,7.34291992 C48.4130385,7.2938227 48.4129778,7.24677553 48.4129164,7.20180335 L48.4121464,6.76333323 C48.4120794,6.73536008 48.4120117,6.7095617 48.4119433,6.68596302 L48.4110874,6.50996126 L48.4110874,6.50996126 L48.4108623,6.50007888 C48.3932472,6.1408218 48.4265211,5.75728774 48.3658759,5.40233786 C48.3086825,5.07851565 48.2276292,4.75895896 48.1233209,4.44605335 C48.0266905,4.15741762 47.8652193,3.84833313 47.687203,3.59573915 C47.5091866,3.34314517 47.3552306,3.1495305 47.1526083,2.93574568 C46.9492557,2.72102123 46.7188405,2.53121519 46.4666324,2.37066846 C46.1968629,2.20183173 45.9083271,2.06212267 45.6063202,1.95410513 C45.2688004,1.83358039 44.9197171,1.74501333 44.5640917,1.68967797 C44.1543307,1.62501048 43.7400603,1.58989594 43.3247873,1.58463157 L43.3247873,1.58463157 Z" id="形状结合" fill="#D9D9D9" fill-rule="nonzero"></path>
                <path d="M44.0908442,0.533200409 C44.5201313,0.537544096 44.948401,0.571340892 45.3718377,0.634289686 C45.7374476,0.686940445 46.0965855,0.770435378 46.4443856,0.883643237 C46.7525308,0.985236972 47.0473483,1.11629896 47.3236474,1.27452178 C47.8384351,1.57548901 48.2626011,1.98385213 48.5591619,2.46400561 C48.7165556,2.71385878 48.8460317,2.97682436 48.9457339,3.24913233 C49.053938,3.54519635 49.1362972,3.84823971 49.1920788,4.15556618 C49.2558824,4.49225142 49.2963844,4.83210099 49.3133563,5.17319824 C49.3135079,5.17596134 49.3136565,5.18758796 49.3138021,5.20788768 L49.3144374,5.35713734 C49.3145058,5.38008267 49.3145735,5.40512487 49.3146405,5.43224016 L49.3155926,5.99147532 C49.3156527,6.03872639 49.315712,6.08793155 49.3157707,6.13906698 L49.3164436,6.84382238 C49.316497,6.91001926 49.3165499,6.97805121 49.3166021,7.04789444 L49.3174757,8.49555017 C49.3175207,8.58627197 49.317565,8.67866226 49.3176088,8.77269723 L49.3185528,11.33313 C49.3185879,11.4519567 49.3186224,11.5722377 49.3186564,11.6939492 L49.3195324,15.7506386 C49.3195571,15.8985797 49.3195813,16.0477134 49.319605,16.1980157 L49.3205825,26.4281816 C49.3205923,26.6157115 49.3206019,26.803934 49.3206112,26.9928255 L49.3206262,58.82238 C49.3206144,59.0276096 49.3206023,59.2325989 49.3205899,59.4373241 L49.3196395,70.0970258 C49.3196171,70.2845351 49.3195945,70.4713521 49.3195716,70.6574529 L49.3186522,77.0066125 C49.3186241,77.1721008 49.3185959,77.3365875 49.3185675,77.5000489 L49.3176617,82.0724854 C49.3176298,82.2130601 49.3175979,82.3523716 49.3175657,82.490396 L49.3166649,85.8869545 C49.3166304,85.9998847 49.3165958,86.1113137 49.3165611,86.2212178 L49.3156,88.8007181 C49.3155636,88.8812458 49.3155271,88.9600345 49.3154906,89.0370603 L49.314602,90.5350292 C49.3145645,90.5823267 49.314527,90.6276709 49.3144895,90.6710382 L49.3136973,91.2829772 C49.3136595,91.2975012 49.3136216,91.3098818 49.3135837,91.320095 L49.3133563,91.3551768 L49.3133563,91.3551768 C49.292623,91.6960148 49.2521434,92.0356761 49.1920788,92.3728088 C49.1358565,92.6800563 49.0535054,92.98307 48.9457339,93.2792427 C48.846028,93.5515494 48.7165521,93.8145147 48.5591619,94.0643694 C48.4091519,94.3014678 48.2299218,94.5229819 48.0247829,94.7248193 C47.8161359,94.9258567 47.5806851,95.1035134 47.3236474,95.2538532 C47.0481894,95.4133847 46.7532036,95.5445215 46.4443856,95.6447318 C46.096586,95.7579412 45.7374479,95.8414362 45.3718377,95.8940853 C44.9470832,95.9567268 44.5175805,95.9905209 44.0870543,95.9951746 L5.49049144,95.9951746 C5.06246036,95.9908397 4.63544942,95.9570423 4.21328782,95.8940853 C3.84767766,95.841436 3.48853961,95.757941 3.14073997,95.6447318 C2.83259544,95.5431366 2.53777818,95.4120746 2.26147813,95.2538532 C1.74668845,94.9528881 1.32252198,94.5445245 1.02596365,94.0643694 C0.868569977,93.8145162 0.739093894,93.5515506 0.63939163,93.2792427 C0.531186222,92.983179 0.44882697,92.6801355 0.393046718,92.3728088 C0.32924326,92.0361236 0.288741288,91.696274 0.271769223,91.3551768 L0.271544094,91.3444083 L0.271544094,91.3444083 L0.270688148,91.1712377 C0.27061974,91.1482923 0.270552052,91.1232501 0.270485076,91.0961348 L0.269715085,90.6727669 C0.269653689,90.6294477 0.269592974,90.5841507 0.269532934,90.5368997 L0.268681983,89.6845526 C0.2686285,89.6183557 0.268575653,89.5503238 0.268523435,89.4804806 L0.267649828,88.0328248 C0.267604887,87.942103 0.26756053,87.8497127 0.267516749,87.7556778 L0.266679426,85.5473384 C0.266643339,85.4314441 0.266607774,85.3140717 0.266572725,85.195245 L0.264605301,71.21687 C0.264594355,71.0322061 0.264583698,70.8468019 0.264573321,70.6606812 L0.264573833,36.4776914 C0.264586866,36.2735183 0.264600207,36.069633 0.264613851,35.8660594 L0.266558081,19.0283261 C0.266586505,18.8648647 0.266615119,18.7024288 0.266643918,18.541042 L0.267559829,14.037979 C0.267591964,13.8999546 0.267624246,13.7632173 0.267656673,13.6277908 L0.268564423,10.3071572 C0.268599135,10.1972532 0.268633957,10.0888741 0.268668885,9.98204373 L0.269525589,7.72765688 C0.269561973,7.64712916 0.269598432,7.56834052 0.269634963,7.49131473 L0.270523593,5.99334579 C0.270561034,5.94604834 0.270598516,5.90070407 0.270636036,5.85733677 L0.271541858,5.20827999 C0.271617626,5.18785349 0.271693424,5.17609613 0.271769223,5.17319824 C0.292502379,4.83236016 0.332981917,4.49269883 0.393046718,4.15556618 C0.449269019,3.84831868 0.531620175,3.54530501 0.63939163,3.24913233 C0.739094804,2.97682467 0.868570849,2.71385917 1.02596365,2.46400561 C1.17597184,2.22690611 1.35520204,2.00539182 1.56034261,1.80355566 C1.76898938,1.60251808 2.00444024,1.4248613 2.26147813,1.27452178 C2.53693562,1.11498958 2.83192157,0.983852672 3.14073997,0.883643237 C3.4885394,0.770433426 3.84767751,0.686938444 4.21328782,0.634289686 C4.63719542,0.574675675 5.0651913,0.540900489 5.49428136,0.533200409 L44.0908442,0.533200409 Z M43.3247873,1.58463157 L6.24798309,1.58463157 C5.80125951,1.58945226 5.3554565,1.62454757 4.91393064,1.68965324 C4.54249647,1.74438314 4.19454139,1.81863826 3.89675015,1.95401813 C3.59895892,2.08939801 3.33150552,2.27742927 3.0588687,2.44719025 C2.80792676,2.60360087 2.62422315,2.80167005 2.42758992,3.01767547 C2.2330178,3.22975613 2.06068187,3.46521797 1.89157281,3.7074503 C1.72246375,3.94968264 1.56822604,4.17225827 1.48544966,4.46005249 C1.3186931,5.02499666 1.18464767,5.69134105 1.15811822,6.50254293 L1.15811822,6.50254293 L1.15766367,6.61786779 C1.15762583,6.63613889 1.15758801,6.65654598 1.1575502,6.67906715 L1.15664847,7.61426952 C1.15661121,7.66921478 1.15657401,7.72609896 1.15653685,7.78490018 L1.15565722,9.5529886 C1.15562116,9.64106099 1.15558518,9.73087524 1.15554928,9.82240947 L1.15460408,12.6958254 C1.15457006,12.8165456 1.15453616,12.9387888 1.15450239,13.0625329 L1.1536237,16.7524116 C1.15359249,16.9014006 1.15356143,17.0516936 1.15353054,17.2032686 L1.15265647,22.1132454 C1.15262922,22.2882723 1.15260217,22.4643623 1.15257532,22.6414935 L1.15164034,30.0294068 C1.15161946,30.2299095 1.15159882,30.4311688 1.15157845,30.6331627 L1.1506092,46.1435896 C1.15060338,46.368237 1.15059791,46.5930935 1.15059278,46.8181374 L1.15055999,51.97294 C1.15057435,52.1103114 1.15059582,52.2487566 1.15062428,52.38824 L1.151557,54.5539065 C1.15165177,54.7028821 1.15175283,54.8527178 1.15186004,55.0033782 L1.15257599,55.9169512 C1.15493867,58.6856485 1.15920514,61.6984611 1.16457396,64.7478033 L1.17028053,67.8016337 C1.17061468,67.9711131 1.17095141,68.1404918 1.17129057,68.309734 L1.17335375,69.3232656 C1.19251451,78.593746 1.21822586,87.2362286 1.22762413,89.3287183 L1.22858358,89.5307217 C1.22902985,89.618447 1.22942511,89.6860439 1.22976566,89.7325516 L1.23037268,89.797163 L1.23037268,89.797163 L1.23061942,89.8078454 C1.23061942,90.1591497 1.19237103,90.521303 1.25301578,90.8761693 C1.31021112,91.1999149 1.42524311,91.586047 1.52954943,91.8988795 C1.62617874,92.1874476 1.81294543,92.4033643 1.96586423,92.6687806 C2.11070239,92.9217919 2.28625024,93.1576055 2.48887343,93.3713394 C2.69222464,93.5860146 2.92263997,93.7757761 3.17484926,93.9362835 C3.44461959,94.1050792 3.7331552,94.2447553 4.03516149,94.3527488 C4.37268094,94.473246 4.72176437,94.5617923 5.07738997,94.6171137 C5.48715091,94.6817668 5.90142131,94.716873 6.31669437,94.7221354 L6.31669437,94.7221354 L43.3934986,94.7221354 C43.8102172,94.7173733 44.2258846,94.681045 44.6365929,94.6134922 C44.9934496,94.5581582 45.3437891,94.4696153 45.6826113,94.3491273 C45.984963,94.2418873 46.2735847,94.1021695 46.5429235,93.9326621 C46.7951298,93.7721508 47.0255446,93.5823897 47.2288994,93.3677179 C47.4303193,93.1530621 47.6057642,92.9173867 47.7519086,92.6651592 C47.9055065,92.4000607 48.0311899,92.1210497 48.1271108,91.8322287 C48.2305413,91.519413 48.3103348,91.1999052 48.3658759,90.8761693 C48.4265206,90.521303 48.465748,90.1633965 48.4836543,89.804224 L48.4836543,89.804224 L48.4836552,89.6639706 C48.4836215,89.646631 48.4835813,89.6277122 48.4835347,89.6072255 L48.4826786,89.2868375 C48.4825833,89.253986 48.4824821,89.2196114 48.4823753,89.1837248 L48.4816675,88.950351 C48.4717391,85.7248436 48.429859,73.6676925 48.4203625,57.8938393 L48.4196892,56.6572751 C48.4195883,56.4499572 48.4194931,56.2420348 48.4194038,56.0335192 L48.4186238,53.5035726 C48.4185839,53.2904902 48.4185504,53.0768594 48.4185234,52.8626913 L48.4176038,21.9963673 C48.4175864,21.8211366 48.4175685,21.6469331 48.4175503,21.4737816 L48.4166356,15.3090657 C48.4166065,15.1674826 48.4165769,15.0272759 48.4165468,14.8884703 L48.4156129,11.4993905 C48.4155737,11.3878264 48.4155338,11.277888 48.4154934,11.1696001 L48.414705,9.40406664 C48.4146576,9.31648337 48.4146097,9.23070029 48.4145612,9.14674235 L48.4136209,7.838 C48.4135648,7.77684138 48.4135081,7.71765751 48.4134508,7.66047333 L48.4127302,7.07184442 C48.4126674,7.03105678 48.4126039,6.99236858 48.4125398,6.95580475 L48.4117359,6.62060502 C48.4116661,6.60143521 48.4115955,6.58448954 48.4115242,6.56979293 L48.4108623,6.49892149 C48.3932472,6.139749 48.4108623,5.76418318 48.3658759,5.40233786 C48.3086825,5.0785919 48.2276292,4.75911045 48.1233209,4.44627851 C48.0266905,4.15771075 47.8834123,3.88719426 47.7052018,3.62350056 C47.5269912,3.35980686 47.3552306,3.14916203 47.1526083,2.93542754 C46.9492557,2.72075365 46.7188405,2.53099231 46.4666324,2.37048338 C46.1968629,2.20168641 45.9083271,2.06201024 45.6063202,1.95401813 C45.2688004,1.83352178 44.9197171,1.74497557 44.5640917,1.68965324 C44.1543307,1.62500097 43.7400603,1.5898947 43.3247873,1.58463157 L43.3247873,1.58463157 Z" id="形状结合" fill="#000000" fill-rule="nonzero"></path>
                <path d="M45.3563754,95.3477663 C45.7188467,95.2954256 46.0748094,95.2123807 46.4193658,95.0997743 C46.7247466,95.0005463 47.0165938,94.8712731 47.289429,94.7143813 C47.5426947,94.566254 47.7750948,94.3918727 47.9816968,94.1949385 C48.1863602,93.9973448 48.3641129,93.7791357 48.5113005,93.5447973 C48.6655857,93.2978522 48.7934983,93.038681 48.8933718,92.7706601 C49.0009643,92.478389 49.0831665,92.179256 49.1392592,91.8758781 C49.2010863,91.5419323 49.2415018,91.205151 49.2603115,90.8671538 C49.2678773,90.6694304 49.2678773,68.5210626 49.2678773,48.0114528 C49.2678773,27.501843 49.2640944,5.35347513 49.2603115,5.15575176 C49.2415018,4.81775457 49.2010862,4.48097325 49.1392592,4.14702749 C49.0836101,3.84356981 49.0013997,3.54440676 48.8933718,3.25224549 C48.7934956,2.98422551 48.6655831,2.72505444 48.5113005,2.47810826 C48.3641138,2.24376939 48.186361,2.02556015 47.9816968,1.82796703 C47.776943,1.62932585 47.5442912,1.45475568 47.289429,1.3085243 C47.0165946,1.1516312 46.7247472,1.02235793 46.4193658,0.923131308 C46.0748099,0.810523443 45.718847,0.727478524 45.3563754,0.675139294 C44.9357971,0.615838176 44.511111,0.582246397 44.0853265,0.574601991 L5.56043784,0.574601991 C5.13445551,0.57890849 4.70949432,0.612522028 4.28938888,0.675139294 C3.92691763,0.727479938 3.57095492,0.810524822 3.22639853,0.923131308 C2.92101709,1.02235793 2.62916974,1.1516312 2.35633526,1.3085243 C2.10307007,1.45665211 1.87067003,1.63103336 1.66406752,1.82796703 C1.45940412,2.02556074 1.28165139,2.24376989 1.13446379,2.47810826 C0.980180378,2.72505409 0.852267856,2.98422523 0.752392527,3.25224549 C0.644798552,3.5445162 0.562596319,3.84364931 0.50650508,4.14702749 C0.444678972,4.48097335 0.404263427,4.81775463 0.385452799,5.15575176 C0.377887031,5.35347513 0.377887031,27.501843 0.377887031,48.0114528 C0.377887031,68.5210626 0.381669915,90.6694304 0.385452799,90.8671538 C0.40426181,91.205151 0.444677365,91.5419324 0.50650508,91.8758781 C0.562151485,92.1793362 0.644361994,92.4784995 0.752392527,92.7706601 C0.852269711,93.0386797 0.980182159,93.2978507 1.13446379,93.5447973 C1.28164991,93.7791365 1.45940277,93.9973458 1.66406752,94.1949385 C1.86882159,94.3935794 2.10147337,94.5681496 2.35633526,94.7143813 C2.62917053,94.8712731 2.92101772,95.0005463 3.22639853,95.0997743 C3.57095492,95.2123807 3.92691763,95.2954256 4.28938888,95.3477663 C4.70996747,95.4070653 5.13465342,95.440657 5.56043784,95.4483036 L44.0853265,95.4483036 C44.5113089,95.4439992 44.9362703,95.4103857 45.3563754,95.3477663 Z M5.44846241,96.0099086 C1.73792073,95.9493126 0.367292062,94.2122277 0.196910046,91.3440179 C0.185551245,91.1622299 0.185551245,5.42228062 0.196910046,5.24049267 C0.367292062,2.37228282 1.73792073,0.635197974 5.44846241,0.574601991 L44.0078058,0.574601991 C47.7183475,0.635197974 49.0889761,2.37228282 49.2593582,5.24049267 C49.270717,5.42228062 49.270717,91.1622299 49.2593582,91.3440179 C49.0889761,94.2122277 47.7183475,95.9493126 44.0078058,96.0099086 L5.44846241,96.0099086 Z" id="Forma-4" fill="#000000" fill-rule="nonzero"></path>
                <path d="M5.48169006,95.7669985 L5.48169006,95.7669985 C3.67052544,95.7367669 2.36709316,95.3168842 1.50319037,94.4838367 C0.715068524,93.7246887 0.286906176,92.6128391 0.19596904,91.0911839 C0.188390945,90.9971302 0.188390945,68.7265477 0.188390945,48.0750332 C0.188390945,27.4235188 0.192179992,5.15293633 0.19596904,5.05888259 C0.286906176,3.53386835 0.715068524,2.42537782 1.50319037,1.66622976 C2.37088221,0.829823268 3.67052544,0.409940492 5.48169006,0.383067994 L44.1640742,0.383067994 C45.9752389,0.413299554 47.2786711,0.83318233 48.1425739,1.66622976 C48.9306958,2.42537782 49.3588581,3.53722741 49.4497953,5.05888259 C49.4573734,5.15293633 49.4573734,27.4235188 49.4573734,48.0750332 C49.4573734,68.7265477 49.4535843,90.9971302 49.4497953,91.0911839 C49.3588581,92.6161981 48.9306958,93.7246887 48.1425739,94.4838367 C47.2748821,95.3202432 45.9752389,95.740126 44.1640742,95.7669985 L5.48169006,95.7669985 Z M5.45189542,0.574601991 C3.64932539,0.604854859 2.35526986,1.02167215 1.49383113,1.84858387 C0.708290089,2.60154413 0.283263052,3.70745452 0.195980714,5.22345933 C0.188390945,5.33438651 0.188390945,27.6139429 0.188390945,48.2665672 C0.188390945,68.922553 0.192185829,91.2021094 0.195980714,91.3096751 C0.287057936,92.82568 0.712084974,93.9315904 1.49383113,94.6845506 C2.35526986,95.5114623 3.64932539,95.9282796 5.45189542,95.9585325 L44.1938689,95.9585325 C45.9964389,95.9282796 47.2904944,95.5114623 48.1519332,94.6845506 C48.9374742,93.9315904 49.3625012,92.82568 49.4497836,91.3096751 C49.4573734,91.198748 49.4573734,68.9191916 49.4573734,48.2665672 C49.4573734,27.6139429 49.4535785,5.33102508 49.4497836,5.22345933 C49.3587064,3.70745452 48.9336793,2.60154413 48.1519332,1.84858387 C47.2904944,1.02167215 45.9964389,0.604854859 44.1938689,0.574601991 L5.45189542,0.574601991 Z" id="Forma-5" fill="#707070" fill-rule="nonzero"></path>
            </g>
            <rect id="矩形" stroke="#979797" stroke-width="0.1" x="1.20053837" y="1.63463157" width="47.2331159" height="93.0594391" rx="4.5"></rect>
            <g id="高光" transform="translate(0.146702, 0.616070)">
                <path d="M49.1246222,5.00912599 L49.1170319,67.8388397 L49.1170319,67.8388397 L49.0415871,90.3748045 C49.0208537,90.7427574 48.9803742,91.10944 48.9203096,91.4733928 C48.8640873,91.8050829 48.7817362,92.1322024 48.6739647,92.4519366 C48.5742588,92.7459063 48.4447829,93.0297914 48.2873927,93.299523 C48.1373826,93.5554834 47.9581526,93.7946197 47.7530137,94.0128947 L47.7501552,94.0099245 L47.7447222,93.9683926 L47.7447222,93.9683926 L47.7248457,93.2163614 L47.7248457,93.2163614 L47.7086755,90.6252912 L47.7086755,90.6252912 L47.706932,89.7971433 L47.706932,89.7971433 L47.7209162,79.2711984 L47.7209162,79.2711984 L47.7848454,63.5795789 L47.7848454,63.5795789 L47.8936934,44.5604522 L47.8936934,44.5604522 L47.9957738,30.225402 L47.9957738,30.225402 L48.1237327,15.8489481 L48.1237327,15.8489481 L48.2014611,9.15587257 L48.2014611,9.15587257 L48.2438655,6.27212148 L48.2438655,6.27212148 L48.2933104,3.73396856 L48.2933104,3.73396856 L48.3172412,2.88099494 L48.3172412,2.88099494 L48.332843,2.47774277 L48.332843,2.47774277 L48.3481332,2.21255309 C48.355696,2.11529458 48.3631324,2.0716561 48.3704278,2.08440755 C48.5278215,2.35413743 48.6572975,2.63802284 48.7569998,2.93199386 C48.8652039,3.25161082 48.9475631,3.57876235 49.0033447,3.91053772 C49.0671483,4.27400746 49.1076502,4.64089326 49.1246222,5.00912599 Z" id="路径" fill="url(#linearGradient-3)"></path>
                <path d="M1.10631397,1.79894305 L1.10599414,93.8077615 C0.974494845,93.6486641 0.856718876,93.478725 0.754194423,93.299523 C0.596800754,93.0297931 0.467324671,92.7459077 0.367622407,92.4519366 C0.259416999,92.13232 0.177057747,91.8051684 0.121277495,91.4733928 C0.0574740369,91.109923 0.0169720655,90.7430372 0,90.3748045 L0.0731378574,58.0305301 L0.0731378574,58.0305301 L0.0830351039,5.00912599 L0.0830351039,5.00912599 C0.10376826,4.64117304 0.144247798,4.27449046 0.204312599,3.91053772 C0.2605349,3.5788476 0.342886056,3.25172813 0.450657511,2.93199386 C0.550360685,2.63802317 0.67983673,2.35413784 0.837229527,2.08440755 C0.894829359,1.98612395 0.956737655,1.89032103 1.02276693,1.79724892 L1.10631397,1.79894305 Z" id="路径" fill="url(#linearGradient-4)"></path>
                <path d="M48.2873927,93.11802 C48.1373826,93.3739804 47.9581526,93.6131168 47.7530137,93.8310111 C47.5443667,94.0480416 47.3089159,94.2398316 47.0518782,94.4021314 C46.7764202,94.5743542 46.4814344,94.7159234 46.1726164,94.8241057 C45.8248168,94.9463214 45.4656787,95.0364587 45.1000685,95.0932963 C44.675314,95.1609211 44.2458113,95.1974036 43.815285,95.2024275 L5.21872221,95.2024275 L4.76546395,95.1767165 L4.76546395,95.1767165 L4.38288004,95.14663 C4.20925668,95.1304928 4.06213619,95.1127149 3.94151859,95.0932963 C3.57590843,95.0364585 3.21677038,94.9463212 2.86897074,94.8241057 C2.56082622,94.7144283 2.26600896,94.5729399 1.9897089,94.4021314 C1.47491923,94.0772235 1.05075276,93.6363731 0.754194423,93.11802 C0.697901711,93.0215496 0.645180146,92.9232685 0.596114651,92.8233618 L48.44547,92.8233618 C48.3964049,92.9232676 48.3436841,93.021549 48.2873927,93.11802 Z" id="路径" fill="url(#linearGradient-5)"></path>
                <path d="M43.9021101,0 C44.3313972,0.00468924219 44.7596669,0.0411746926 45.1831036,0.109131285 C45.5487134,0.165970597 45.9078513,0.256107846 46.2556515,0.378321789 C46.5637967,0.487997664 46.8586141,0.629486098 47.1349133,0.800296092 C47.2639887,0.881762557 47.387367,0.970517934 47.504465,1.06595631 L1.70299674,1.06617369 C1.82037868,0.970489048 1.94384707,0.881684548 2.07274401,0.800296092 C2.3482015,0.628072544 2.64318745,0.486503238 2.95200585,0.378321789 C3.29980528,0.256105739 3.65894339,0.165968437 4.0245537,0.109131285 C4.4484613,0.0447747691 4.87645718,0.00831264888 5.30554724,0 L43.9021101,0 Z" id="路径" fill="url(#linearGradient-6)" fill-rule="nonzero"></path>
            </g>
            <g id="Camera" transform="translate(23.532635, 2.162159)">
                <circle id="椭圆形" fill="#000000" cx="1.49869292" cy="1.49869292" r="1.49869292"></circle>
                <circle id="椭圆形" fill="#151516" cx="1.49869292" cy="1.49869292" r="1.00146026"></circle>
                <ellipse id="Forma" fill="#000000" fill-rule="nonzero" cx="1.49869292" cy="1.49869292" rx="1" ry="1"></ellipse>
                <g id="Forma" fill-rule="nonzero">
                    <use fill="url(#linearGradient-7)" xlink:href="#path-10"></use>
                    <use fill="url(#linearGradient-8)" xlink:href="#path-10"></use>
                    <use fill-opacity="0.25" fill="url(#radialGradient-9)" xlink:href="#path-10"></use>
                </g>
            </g>
        </g>
    </g>
</svg>