<?xml version="1.0" encoding="UTF-8"?>
<svg width="160px" height="100px" viewBox="0 0 160 100" version="1.1" xmlns="http://www.w3.org/2000/svg" xmlns:xlink="http://www.w3.org/1999/xlink">
    <title>1</title>
    <defs>
        <radialGradient cx="50%" cy="50%" fx="50%" fy="50%" r="50.2932729%" gradientTransform="translate(0.500000,0.500000),scale(1.000000,0.994169),rotate(90.000000),translate(-0.500000,-0.500000)" id="radialGradient-1">
            <stop stop-color="#996F54" offset="0%"></stop>
            <stop stop-color="#9A5A3D" offset="60.8927678%"></stop>
            <stop stop-color="#A26543" offset="73.0785759%"></stop>
            <stop stop-color="#B66642" offset="85.8932625%"></stop>
            <stop stop-color="#965639" offset="100%"></stop>
        </radialGradient>
        <ellipse id="path-2" cx="154.820433" cy="5.20408163" rx="3.13467492" ry="3.15306122"></ellipse>
        <filter x="-16.0%" y="-15.9%" width="131.9%" height="131.7%" filterUnits="objectBoundingBox" id="filter-3">
            <feMorphology radius="1" operator="erode" in="SourceAlpha" result="shadowSpreadInner1"></feMorphology>
            <feGaussianBlur stdDeviation="0.5" in="shadowSpreadInner1" result="shadowBlurInner1"></feGaussianBlur>
            <feOffset dx="0" dy="0" in="shadowBlurInner1" result="shadowOffsetInner1"></feOffset>
            <feComposite in="shadowOffsetInner1" in2="SourceAlpha" operator="arithmetic" k2="-1" k3="1" result="shadowInnerInner1"></feComposite>
            <feColorMatrix values="0 0 0 0 0   0 0 0 0 0   0 0 0 0 0  0 0 0 0.5 0" type="matrix" in="shadowInnerInner1"></feColorMatrix>
        </filter>
        <ellipse id="path-4" cx="154.820433" cy="94.7959184" rx="3.13467492" ry="3.15306122"></ellipse>
        <filter x="-16.0%" y="-15.9%" width="131.9%" height="131.7%" filterUnits="objectBoundingBox" id="filter-5">
            <feMorphology radius="1" operator="erode" in="SourceAlpha" result="shadowSpreadInner1"></feMorphology>
            <feGaussianBlur stdDeviation="0.5" in="shadowSpreadInner1" result="shadowBlurInner1"></feGaussianBlur>
            <feOffset dx="0" dy="0" in="shadowBlurInner1" result="shadowOffsetInner1"></feOffset>
            <feComposite in="shadowOffsetInner1" in2="SourceAlpha" operator="arithmetic" k2="-1" k3="1" result="shadowInnerInner1"></feComposite>
            <feColorMatrix values="0 0 0 0 0   0 0 0 0 0   0 0 0 0 0  0 0 0 0.5 0" type="matrix" in="shadowInnerInner1"></feColorMatrix>
        </filter>
        <ellipse id="path-6" cx="5.17956656" cy="94.7959184" rx="3.13467492" ry="3.15306122"></ellipse>
        <filter x="-16.0%" y="-15.9%" width="131.9%" height="131.7%" filterUnits="objectBoundingBox" id="filter-7">
            <feMorphology radius="1" operator="erode" in="SourceAlpha" result="shadowSpreadInner1"></feMorphology>
            <feGaussianBlur stdDeviation="0.5" in="shadowSpreadInner1" result="shadowBlurInner1"></feGaussianBlur>
            <feOffset dx="0" dy="0" in="shadowBlurInner1" result="shadowOffsetInner1"></feOffset>
            <feComposite in="shadowOffsetInner1" in2="SourceAlpha" operator="arithmetic" k2="-1" k3="1" result="shadowInnerInner1"></feComposite>
            <feColorMatrix values="0 0 0 0 0   0 0 0 0 0   0 0 0 0 0  0 0 0 0.5 0" type="matrix" in="shadowInnerInner1"></feColorMatrix>
        </filter>
        <linearGradient x1="0%" y1="50%" x2="100%" y2="50%" id="linearGradient-8">
            <stop stop-color="#FFF6ED" offset="0%"></stop>
            <stop stop-color="#FDF3F5" offset="50.593058%"></stop>
            <stop stop-color="#F2E2DC" offset="100%"></stop>
        </linearGradient>
        <linearGradient x1="0%" y1="50%" x2="100%" y2="50%" id="linearGradient-9">
            <stop stop-color="#FFF6ED" offset="0%"></stop>
            <stop stop-color="#FDF3F5" offset="50.593058%"></stop>
            <stop stop-color="#F2E2DC" offset="100%"></stop>
        </linearGradient>
        <linearGradient x1="0%" y1="50%" x2="100%" y2="50%" id="linearGradient-10">
            <stop stop-color="#FFF6ED" offset="0%"></stop>
            <stop stop-color="#FDF3F5" offset="50.593058%"></stop>
            <stop stop-color="#F2E2DC" offset="100%"></stop>
        </linearGradient>
        <linearGradient x1="0%" y1="50%" x2="100%" y2="50%" id="linearGradient-11">
            <stop stop-color="#FFF6ED" offset="0%"></stop>
            <stop stop-color="#FDF3F5" offset="50.593058%"></stop>
            <stop stop-color="#F2E2DC" offset="100%"></stop>
        </linearGradient>
        <ellipse id="path-12" cx="5.17956656" cy="5.20408163" rx="3.13467492" ry="3.15306122"></ellipse>
        <filter x="-16.0%" y="-15.9%" width="131.9%" height="131.7%" filterUnits="objectBoundingBox" id="filter-13">
            <feMorphology radius="1" operator="erode" in="SourceAlpha" result="shadowSpreadInner1"></feMorphology>
            <feGaussianBlur stdDeviation="0.5" in="shadowSpreadInner1" result="shadowBlurInner1"></feGaussianBlur>
            <feOffset dx="0" dy="0" in="shadowBlurInner1" result="shadowOffsetInner1"></feOffset>
            <feComposite in="shadowOffsetInner1" in2="SourceAlpha" operator="arithmetic" k2="-1" k3="1" result="shadowInnerInner1"></feComposite>
            <feColorMatrix values="0 0 0 0 0   0 0 0 0 0   0 0 0 0 0  0 0 0 0.5 0" type="matrix" in="shadowInnerInner1"></feColorMatrix>
        </filter>
    </defs>
    <g id="页面-1" stroke="none" stroke-width="1" fill="none" fill-rule="evenodd">
        <g id="1">
            <path d="M160,0 L160,100 L0,100 L0,0 L160,0 Z M152,8 L8,8 L8,92 L152,92 L152,8 Z" id="形状结合" fill="#C8A597"></path>
            <rect id="矩形" stroke="#FFFFFF" stroke-width="2" x="8" y="8" width="144" height="84"></rect>
            <g id="椭圆形">
                <use fill="#332E29" fill-rule="evenodd" xlink:href="#path-2"></use>
                <use fill="black" fill-opacity="1" filter="url(#filter-3)" xlink:href="#path-2"></use>
                <ellipse stroke="url(#radialGradient-1)" stroke-width="1.05" stroke-linejoin="square" cx="154.820433" cy="5.20408163" rx="2.60967492" ry="2.62806122"></ellipse>
            </g>
            <g id="椭圆形" transform="translate(154.820433, 94.795918) scale(1, -1) translate(-154.820433, -94.795918) ">
                <use fill="#332E29" fill-rule="evenodd" xlink:href="#path-4"></use>
                <use fill="black" fill-opacity="1" filter="url(#filter-5)" xlink:href="#path-4"></use>
                <ellipse stroke="url(#radialGradient-1)" stroke-width="1.05" stroke-linejoin="square" cx="154.820433" cy="94.7959184" rx="2.60967492" ry="2.62806122"></ellipse>
            </g>
            <g id="椭圆形" transform="translate(5.179567, 94.795918) scale(1, -1) translate(-5.179567, -94.795918) ">
                <use fill="#332E29" fill-rule="evenodd" xlink:href="#path-6"></use>
                <use fill="black" fill-opacity="1" filter="url(#filter-7)" xlink:href="#path-6"></use>
                <ellipse stroke="url(#radialGradient-1)" stroke-width="1.05" stroke-linejoin="square" cx="5.17956656" cy="94.7959184" rx="2.60967492" ry="2.62806122"></ellipse>
            </g>
            <g id="编组" transform="translate(8.933459, 89.518023) scale(1, -1) translate(-8.933459, -89.518023) translate(4.154969, 83.444898)">
                <path d="M3.70242725,-0.0233690672 C4.10493728,-0.0243687697 4.43204654,0.30111966 4.43304625,0.703629688 C4.43304924,0.704834566 4.43304924,0.706039451 4.43304626,0.707244329 L4.40548831,11.8373381 C4.40448529,12.2424357 4.0763399,12.5705836 3.67124231,12.5715897 C3.26873228,12.5725894 2.94162302,12.247101 2.94062331,11.844591 C2.94062032,11.8433861 2.94062032,11.8421812 2.9406233,11.8409763 L2.96818125,0.710882572 C2.96918427,0.305784981 3.29732966,-0.0223629381 3.70242725,-0.0233690672 Z" id="矩形" fill="url(#linearGradient-8)" transform="translate(3.686835, 6.274110) rotate(-29.000000) translate(-3.686835, -6.274110) "></path>
                <path d="M5.19314224,-1.03664736 C5.59587919,-1.03782443 5.9233162,-0.712295819 5.92449327,-0.309558865 C5.92449742,-0.308138168 5.92449742,-0.306717461 5.92449327,-0.305296763 L5.89631724,9.33718201 C5.89513149,9.74297138 5.56646894,10.0716341 5.16067956,10.0728201 C4.75794261,10.0739972 4.4305056,9.74846858 4.42932853,9.34573163 C4.42932438,9.34431093 4.42932438,9.34289023 4.42932853,9.34146953 L4.45750456,-0.30100924 C4.45869031,-0.706798616 4.78735287,-1.03546137 5.19314224,-1.03664736 Z" id="矩形" fill="url(#linearGradient-9)" transform="translate(5.176911, 4.518086) rotate(-44.000000) translate(-5.176911, -4.518086) "></path>
            </g>
            <g id="编组-4" transform="translate(150.416845, 90.148577) scale(1, -1) translate(-150.416845, -90.148577) translate(145.188759, 84.584561)">
                <path d="M4.93958334,-1.30840564 C5.34541455,-1.30721893 5.67411091,-0.978522566 5.67529762,-0.572691354 L5.70778009,10.5356425 C5.70895787,10.9384191 5.38339768,11.2658889 4.98062106,11.2670667 C4.97919936,11.2670708 4.97777765,11.2670708 4.97635594,11.2670667 C4.57052473,11.2658799 4.24182837,10.9371836 4.24064166,10.5313524 L4.20815919,-0.576981491 C4.20698141,-0.979758114 4.5325416,-1.30722786 4.93531822,-1.30840564 C4.93673992,-1.3084098 4.93816163,-1.3084098 4.93958334,-1.30840564 Z" id="矩形" fill="url(#linearGradient-10)" transform="translate(4.957970, 4.979331) rotate(-315.000000) translate(-4.957970, -4.979331) "></path>
                <path d="M7.03278038,0.373771666 C7.43792586,0.374799155 7.76610483,0.702980559 7.76712932,1.10812605 L7.79155544,10.7677077 C7.79257325,11.1702107 7.4671052,11.497329 7.06460222,11.4983468 C7.06337182,11.4983499 7.06214141,11.4983499 7.06091102,11.4983468 C6.65576554,11.4973193 6.32758656,11.1691379 6.32656207,10.7639924 L6.30213595,1.10441068 C6.30111815,0.701907694 6.62658619,0.374789459 7.02908917,0.373771653 C7.03031957,0.373768541 7.03154998,0.373768546 7.03278038,0.373771666 Z" id="矩形" fill="url(#linearGradient-11)" transform="translate(7.046846, 5.936059) rotate(-330.000000) translate(-7.046846, -5.936059) "></path>
            </g>
            <g id="椭圆形">
                <use fill="#332E29" fill-rule="evenodd" xlink:href="#path-12"></use>
                <use fill="black" fill-opacity="1" filter="url(#filter-13)" xlink:href="#path-12"></use>
                <ellipse stroke="url(#radialGradient-1)" stroke-width="1.05" stroke-linejoin="square" cx="5.17956656" cy="5.20408163" rx="2.60967492" ry="2.62806122"></ellipse>
            </g>
            <g id="编组" transform="translate(3.737012, 3.950167)">
                <path d="M3.70242725,-0.0233690672 C4.10493728,-0.0243687697 4.43204654,0.30111966 4.43304625,0.703629688 C4.43304924,0.704834566 4.43304924,0.706039451 4.43304626,0.707244329 L4.40548831,11.8373381 C4.40448529,12.2424357 4.0763399,12.5705836 3.67124231,12.5715897 C3.26873228,12.5725894 2.94162302,12.247101 2.94062331,11.844591 C2.94062032,11.8433861 2.94062032,11.8421812 2.9406233,11.8409763 L2.96818125,0.710882572 C2.96918427,0.305784981 3.29732966,-0.0223629381 3.70242725,-0.0233690672 Z" id="矩形" fill="url(#linearGradient-8)" transform="translate(3.686835, 6.274110) rotate(-29.000000) translate(-3.686835, -6.274110) "></path>
                <path d="M5.19314224,-1.03664736 C5.59587919,-1.03782443 5.9233162,-0.712295819 5.92449327,-0.309558865 C5.92449742,-0.308138168 5.92449742,-0.306717461 5.92449327,-0.305296763 L5.89631724,9.33718201 C5.89513149,9.74297138 5.56646894,10.0716341 5.16067956,10.0728201 C4.75794261,10.0739972 4.4305056,9.74846858 4.42932853,9.34573163 C4.42932438,9.34431093 4.42932438,9.34289023 4.42932853,9.34146953 L4.45750456,-0.30100924 C4.45869031,-0.706798616 4.78735287,-1.03546137 5.19314224,-1.03664736 Z" id="矩形" fill="url(#linearGradient-9)" transform="translate(5.176911, 4.518086) rotate(-44.000000) translate(-5.176911, -4.518086) "></path>
            </g>
            <g id="编组-4" transform="translate(145.397737, 4.038928)">
                <path d="M4.93958334,-1.30840564 C5.34541455,-1.30721893 5.67411091,-0.978522566 5.67529762,-0.572691354 L5.70778009,10.5356425 C5.70895787,10.9384191 5.38339768,11.2658889 4.98062106,11.2670667 C4.97919936,11.2670708 4.97777765,11.2670708 4.97635594,11.2670667 C4.57052473,11.2658799 4.24182837,10.9371836 4.24064166,10.5313524 L4.20815919,-0.576981491 C4.20698141,-0.979758114 4.5325416,-1.30722786 4.93531822,-1.30840564 C4.93673992,-1.3084098 4.93816163,-1.3084098 4.93958334,-1.30840564 Z" id="矩形" fill="url(#linearGradient-10)" transform="translate(4.957970, 4.979331) rotate(-315.000000) translate(-4.957970, -4.979331) "></path>
                <path d="M7.03278038,0.373771666 C7.43792586,0.374799155 7.76610483,0.702980559 7.76712932,1.10812605 L7.79155544,10.7677077 C7.79257325,11.1702107 7.4671052,11.497329 7.06460222,11.4983468 C7.06337182,11.4983499 7.06214141,11.4983499 7.06091102,11.4983468 C6.65576554,11.4973193 6.32758656,11.1691379 6.32656207,10.7639924 L6.30213595,1.10441068 C6.30111815,0.701907694 6.62658619,0.374789459 7.02908917,0.373771653 C7.03031957,0.373768541 7.03154998,0.373768546 7.03278038,0.373771666 Z" id="矩形" fill="url(#linearGradient-11)" transform="translate(7.046846, 5.936059) rotate(-330.000000) translate(-7.046846, -5.936059) "></path>
            </g>
        </g>
    </g>
</svg>