<?xml version="1.0" encoding="UTF-8"?>
<svg width="160px" height="100px" viewBox="0 0 160 100" version="1.1" xmlns="http://www.w3.org/2000/svg" xmlns:xlink="http://www.w3.org/1999/xlink">
    <title>8</title>
    <g id="页面-1" stroke="none" stroke-width="1" fill="none" fill-rule="evenodd">
        <g id="8" transform="translate(-0.000000, 0.000000)" stroke="#000000">
            <path d="M2.93912529,0.5 C3.76608579,0.5 4.37297388,0.908025993 4.83401817,1.68487605 C5.40187549,2.64170386 5.75914741,4.10430816 6.00386106,6.06201737 C6.31650178,8.56314311 6.42994614,11.2371556 6.34491553,14.0840197 L6.34491553,14.0840197 L0.5,14.0840197 L0.5,4.06220686 C0.730308136,2.83990959 1.05965432,1.91520479 1.51043992,1.29927135 C1.89241764,0.777353949 2.36353088,0.5 2.93912529,0.5 Z" id="路径-17" fill="#D8D8D8"></path>
            <path d="M148.221808,0.500001187 C150.228224,1.52588739 151.732582,3.17799696 152.743763,5.44751225 C153.800099,7.81837492 154.320433,10.8516586 154.320433,14.5434181 L154.320433,14.5434181 L154.320433,99.5000012 L11.1069778,99.5000012 C10.3579855,99.4111176 9.70287091,99.092351 9.13981158,98.5476389 C8.53195307,97.9595874 8.03234951,97.1184455 7.62759791,96.0336786 C6.77156054,93.7394296 6.35273159,90.391713 6.35273159,85.9948303 L6.35273159,85.9948303 L6.35267996,14.5362326 C6.28232947,9.64145483 5.96216055,5.97101851 5.39939576,3.52379964 C5.10347477,2.23696816 4.73516233,1.2759904 4.31019805,0.633213175 L4.31019805,0.633213175 Z" id="路径-19"></path>
            <path d="M159.5,88.6620335 L159.5,93.1290543 C159.5,94.4341188 159.137696,95.6172516 158.411628,96.6779967 C157.684744,97.739933 156.599395,98.6774116 155.164885,99.5000012 L155.164885,99.5000012 L12.342,99.5 L12.4456566,99.3412113 C12.6026455,99.0835645 12.7425411,98.7875134 12.8650393,98.4615184 L12.9536462,98.2115398 C13.5137394,96.5357049 13.6686461,94.1589088 13.6686461,92.4949665 L13.6686461,92.4949665 L13.6686461,88.6620335 L159.5,88.6620335 Z" id="路径-18" fill="#D8D8D8"></path>
        </g>
    </g>
</svg>