<?xml version="1.0" encoding="UTF-8"?>
<svg width="160px" height="100px" viewBox="0 0 160 100" version="1.1" xmlns="http://www.w3.org/2000/svg" xmlns:xlink="http://www.w3.org/1999/xlink">
    <title>5</title>
    <g id="页面-1" stroke="none" stroke-width="1" fill="none" fill-rule="evenodd">
        <g id="5">
            <rect id="矩形" stroke="#000000" stroke-width="3" x="1.5" y="1.5" width="157" height="97"></rect>
            <g id="电池-中电量" transform="translate(148.000000, 4.000000)" fill="#FFFFFF" fill-rule="nonzero">
                <path d="M5.3958342,0 L0.729168447,0 C0.320835621,0 0,0.31428514 0,0.714287149 L0,3.28571285 C0,3.68571218 0.320832886,4 0.729168447,4 L5.3958342,4 C5.80416703,4 6.12500265,3.68571486 6.12500265,3.28571285 L6.12500265,0.714287149 C6.12500265,0.314287819 5.80416976,0 5.3958342,0 Z M5.54166721,3.28571285 C5.54166721,3.37142704 5.48333394,3.42856961 5.3958342,3.42856961 L0.729168447,3.42856961 C0.641668507,3.42856961 0.583335441,3.37142684 0.583335441,3.28571285 L0.583335441,0.714287149 C0.583335441,0.628572959 0.641668712,0.571430389 0.729168447,0.571430389 L5.3958342,0.571430389 C5.48333414,0.571430389 5.54166721,0.62857316 5.54166721,0.714287149 L5.54166721,3.28571285 Z" id="形状"></path>
                <path d="M1.40000588,1.1428581 C1.225006,1.1428581 1.10833918,1.25714391 1.10833918,1.42857229 L1.10833918,2.57143039 C1.10833918,2.74285877 1.225006,2.85714458 1.40000588,2.85714458 C1.57500576,2.85714458 1.69167257,2.74285877 1.69167257,2.57143039 L1.69167257,1.42857229 C1.69167257,1.25714391 1.57500576,1.1428581 1.40000588,1.1428581 Z M2.50833618,1.1428581 C2.3333363,1.1428581 2.21666948,1.25714391 2.21666948,1.42857229 L2.21666948,2.57143039 C2.21666948,2.74285877 2.3333363,2.85714458 2.50833618,2.85714458 C2.68333606,2.85714458 2.80000287,2.74285877 2.80000287,2.57143039 L2.80000287,1.42857229 C2.80000287,1.25714391 2.68333606,1.1428581 2.50833618,1.1428581 Z M6.7083333,1.14285542 L6.41666661,1.14285542 L6.41666661,2.8571419 L6.7083333,2.8571419 C6.88333319,2.8571419 7,2.74285609 7,2.57142771 L7,1.42856961 C7,1.25714123 6.88333319,1.14285542 6.7083333,1.14285542 L6.7083333,1.14285542 Z" id="形状"></path>
            </g>
            <g id="编组-2" transform="translate(5.000000, 3.000000)">
                <text id="REC" font-family="SourceHanSansSC-Bold, Source Han Sans SC" font-size="5" font-weight="bold" fill="#FFFFFF">
                    <tspan x="4.115" y="6">REC</tspan>
                </text>
                <circle id="椭圆形" fill="#C73535" cx="1.5" cy="4.5" r="1.5"></circle>
            </g>
            <text id="2021-10/11-15:30" font-family="DINAlternate-Bold, DIN Alternate" font-size="5" font-weight="bold" fill="#FFFFFF">
                <tspan x="119.741211" y="94">2021  10/11 15:30</tspan>
            </text>
        </g>
    </g>
</svg>