<?xml version="1.0" encoding="UTF-8"?>
<svg width="160px" height="100px" viewBox="0 0 160 100" version="1.1" xmlns="http://www.w3.org/2000/svg" xmlns:xlink="http://www.w3.org/1999/xlink">
    <title>7</title>
    <defs>
        <path d="M156.4,0 C158.388225,7.88581843e-17 160,1.6117749 160,3.6 L160,96.4 C160,98.3882251 158.388225,100 156.4,100 L3.6,100 C1.6117749,100 8.68118234e-15,98.3882251 0,96.4 L0,3.6 C-2.4348735e-16,1.6117749 1.6117749,1.25340945e-15 3.6,0 L156.4,0 Z M153,7 L7,7 L7,93 L153,93 L153,7 Z" id="path-1"></path>
    </defs>
    <g id="页面-1" stroke="none" stroke-width="1" fill="none" fill-rule="evenodd">
        <g id="7">
            <g id="矩形">
                <mask id="mask-2" fill="white">
                    <use xlink:href="#path-1"></use>
                </mask>
                <path stroke="#000000" d="M156.4,0.5 C157.256041,0.5 158.031041,0.846979319 158.592031,1.40796898 C159.106272,1.9222095 159.440684,2.61627815 159.492848,3.38775497 L159.5,3.6 L159.5,96.4 C159.5,97.2560414 159.153021,98.0310414 158.592031,98.592031 C158.077791,99.1062715 157.383722,99.4406839 156.612245,99.4928482 L156.4,99.5 L3.6,99.5 C2.74395864,99.5 1.96895864,99.1530207 1.40796898,98.592031 C0.893728457,98.0777905 0.559316069,97.3837218 0.507151786,96.612245 L0.5,96.4 L0.5,3.6 C0.5,2.74395864 0.846979319,1.96895864 1.40796898,1.40796898 C1.9222095,0.893728457 2.61627815,0.559316069 3.38775497,0.507151786 L3.6,0.5 L156.4,0.5 Z M153.5,6.5 L6.5,6.5 L6.5,93.5 L153.5,93.5 L153.5,6.5 Z"></path>
                <rect stroke="#000000" mask="url(#mask-2)" x="2.5" y="2.5" width="155" height="95"></rect>
                <rect stroke="#000000" mask="url(#mask-2)" x="4.5" y="4.5" width="151" height="91"></rect>
                <polygon id="路径" fill="#000000" mask="url(#mask-2)" points="16.4528651 -4.54747351e-13 10.486 6 6 6 6 10.512 0 16.5467626 0 -4.54747351e-13"></polygon>
                <polygon id="路径" fill="#000000" mask="url(#mask-2)" points="1.38555833e-13 83.4532374 6 89.4872374 6 94 10.486 93.9992374 16.4528651 100 1.38555833e-13 100"></polygon>
                <polygon id="路径" fill="#000000" mask="url(#mask-2)" points="160 -4.54747351e-13 160 16.5467626 153.999135 10.512 154 6 149.513135 6 143.547135 -4.54747351e-13"></polygon>
                <polygon id="路径" fill="#000000" mask="url(#mask-2)" points="160 83.4532374 160 100 143.547135 100 149.513135 93.9992374 154 94 153.999135 89.4872374"></polygon>
            </g>
            <rect id="矩形" stroke="#000000" x="6.5" y="6.5" width="147" height="87"></rect>
        </g>
    </g>
</svg>