<?xml version="1.0" encoding="UTF-8"?>
<svg width="168px" height="108px" viewBox="0 0 168 108" version="1.1" xmlns="http://www.w3.org/2000/svg" xmlns:xlink="http://www.w3.org/1999/xlink">
    <title>4</title>
    <defs>
        <path d="M156.4,0 C158.388225,7.88581843e-17 160,1.6117749 160,3.6 L160,90.4 C160,92.3882251 158.388225,94 156.4,94 L26.5,94 L22,100 L17.5,94 L3.6,94 C1.6117749,94 9.12527155e-15,92.3882251 0,90.4 L0,3.6 C-2.4348735e-16,1.6117749 1.6117749,1.69749866e-15 3.6,0 L156.4,0 Z M156.4,1.4 L3.6,1.4 C2.43780079,1.4 1.48608476,2.30118563 1.40552381,3.44288498 L1.4,3.6 L1.4,90.4 C1.4,91.5621992 2.30118563,92.5139152 3.44288498,92.5944762 L3.6,92.6 L18.2,92.6 L22,97.666 L25.8,92.6 L156.4,92.6 C157.562199,92.6 158.513915,91.6988144 158.594476,90.557115 L158.6,90.4 L158.6,3.6 C158.6,2.43780079 157.698814,1.48608476 156.557115,1.40552381 L156.4,1.4 Z" id="path-1"></path>
        <filter x="-4.1%" y="-5.5%" width="108.1%" height="113.0%" filterUnits="objectBoundingBox" id="filter-2">
            <feOffset dx="0" dy="1" in="SourceAlpha" result="shadowOffsetOuter1"></feOffset>
            <feGaussianBlur stdDeviation="2" in="shadowOffsetOuter1" result="shadowBlurOuter1"></feGaussianBlur>
            <feComposite in="shadowBlurOuter1" in2="SourceAlpha" operator="out" result="shadowBlurOuter1"></feComposite>
            <feColorMatrix values="0 0 0 0 0.437999781   0 0 0 0 0.437999781   0 0 0 0 0.437999781  0 0 0 0.5 0" type="matrix" in="shadowBlurOuter1"></feColorMatrix>
        </filter>
    </defs>
    <g id="页面-1" stroke="none" stroke-width="1" fill="none" fill-rule="evenodd">
        <g id="形状结合" transform="translate(4.000000, 3.000000)">
            <use fill="black" fill-opacity="1" filter="url(#filter-2)" xlink:href="#path-1"></use>
            <path stroke="#FFFFFF" stroke-width="1.4" d="" stroke-linejoin="square" fill="#D8D8D8" fill-rule="evenodd"></path>
        </g>
    </g>
</svg>