<?xml version="1.0" encoding="UTF-8"?>
<svg width="160px" height="102px" viewBox="0 0 160 102" version="1.1" xmlns="http://www.w3.org/2000/svg" xmlns:xlink="http://www.w3.org/1999/xlink">
    <title>2</title>
    <defs>
        <path d="M3,0 L3,3" id="path-1"></path>
        <filter x="-125.0%" y="-58.3%" width="350.0%" height="216.7%" filterUnits="objectBoundingBox" id="filter-2">
            <feMorphology radius="0.25" operator="dilate" in="SourceAlpha" result="shadowSpreadOuter1"></feMorphology>
            <feOffset dx="0" dy="0" in="shadowSpreadOuter1" result="shadowOffsetOuter1"></feOffset>
            <feMorphology radius="1" operator="erode" in="SourceAlpha" result="shadowInner"></feMorphology>
            <feOffset dx="0" dy="0" in="shadowInner" result="shadowInner"></feOffset>
            <feComposite in="shadowOffsetOuter1" in2="shadowInner" operator="out" result="shadowOffsetOuter1"></feComposite>
            <feGaussianBlur stdDeviation="0.5" in="shadowOffsetOuter1" result="shadowBlurOuter1"></feGaussianBlur>
            <feColorMatrix values="0 0 0 0 0.444471276   0 0 0 0 0.444471276   0 0 0 0 0.444471276  0 0 0 0.5 0" type="matrix" in="shadowBlurOuter1"></feColorMatrix>
        </filter>
        <path d="M3,0 L3,3" id="path-3"></path>
        <filter x="-125.0%" y="-58.3%" width="350.0%" height="216.7%" filterUnits="objectBoundingBox" id="filter-4">
            <feMorphology radius="0.25" operator="dilate" in="SourceAlpha" result="shadowSpreadOuter1"></feMorphology>
            <feOffset dx="0" dy="0" in="shadowSpreadOuter1" result="shadowOffsetOuter1"></feOffset>
            <feMorphology radius="1" operator="erode" in="SourceAlpha" result="shadowInner"></feMorphology>
            <feOffset dx="0" dy="0" in="shadowInner" result="shadowInner"></feOffset>
            <feComposite in="shadowOffsetOuter1" in2="shadowInner" operator="out" result="shadowOffsetOuter1"></feComposite>
            <feGaussianBlur stdDeviation="0.5" in="shadowOffsetOuter1" result="shadowBlurOuter1"></feGaussianBlur>
            <feColorMatrix values="0 0 0 0 0.444471276   0 0 0 0 0.444471276   0 0 0 0 0.444471276  0 0 0 0.5 0" type="matrix" in="shadowBlurOuter1"></feColorMatrix>
        </filter>
    </defs>
    <g id="页面-1" stroke="none" stroke-width="1" fill="none" fill-rule="evenodd">
        <g id="2" transform="translate(0.000000, 2.000000)">
            <rect id="矩形" stroke="#F1F1F1" stroke-width="9" x="4.5" y="4.5" width="151" height="91" rx="3.6"></rect>
            <rect id="矩形" stroke="#FFFFFF" stroke-width="2" x="9" y="9" width="142" height="82"></rect>
            <g id="编组-5" transform="translate(40.000000, 0.000000)">
                <g id="直线-3" stroke-linecap="square">
                    <use fill="black" fill-opacity="1" filter="url(#filter-2)" xlink:href="#path-1"></use>
                    <use stroke="#5E5E5E" stroke-width="0.5" xlink:href="#path-1"></use>
                </g>
                <g id="编组" transform="translate(0.000000, 3.000000)" fill-rule="nonzero">
                    <path d="M5.535622,5.36135531 L5.72609819,3.26744493 C5.75046142,3.00173899 5.54078996,2.77219859 5.27353267,2.77219859 L0.724990772,2.77219859 C0.457733481,2.77219859 0.248062016,3.00173899 0.272425249,3.26744493 L0.46290144,5.36135531 L0.136581764,5.36135531 L0.136581764,6.08835627 L1.6818014,6.08835627 L1.6818014,5.72522483 L2.2266519,5.72522483 L2.2266519,6.08835627 L3.77187154,6.08835627 L3.77187154,5.72522483 L4.31746032,5.72522483 L4.31746032,6.08835627 L5.86267996,6.08835627 L5.86267996,5.36135531 L5.535622,5.36135531 Z" id="路径" fill="#323232"></path>
                    <path d="M0.838685862,4.57088015 C0.792174234,4.57088015 0.752307124,4.5354527 0.747877446,4.48821608 L0.634182355,3.23423169 C0.631967516,3.20913724 0.640088594,3.18330472 0.657807309,3.16485291 C0.675526024,3.14640111 0.699150978,3.13533003 0.724990772,3.13533003 L1.45662606,3.13533003 C1.50682909,3.13533003 1.54743448,3.17592399 1.54743448,3.22611289 C1.54743448,3.27630179 1.50682909,3.31689575 1.45662606,3.31689575 L0.824658546,3.31689575 L0.929494278,4.4719785 C0.933923957,4.5221674 0.897009967,4.56645172 0.84680694,4.57088015 L0.838685862,4.57088015 L0.838685862,4.57088015 Z" id="路径" fill="#FFFFFF"></path>
                    <path d="M1.77260982,3.22611289 C1.77260982,3.27625088 1.81326613,3.31689575 1.86341824,3.31689575 C1.91357034,3.31689575 1.95422665,3.27625088 1.95422665,3.22611289 C1.95422665,3.1759749 1.91357034,3.13533003 1.86341824,3.13533003 C1.81326613,3.13533003 1.77260982,3.1759749 1.77260982,3.22611289 Z" id="路径" fill="#FFFFFF"></path>
                    <path d="M0.136581764,5.72448675 L1.6818014,5.72448675 L1.6818014,6.0876182 L0.136581764,6.0876182 L0.136581764,5.72448675 Z M2.2266519,5.72448675 L3.77187154,5.72448675 L3.77187154,6.0876182 L2.2266519,6.0876182 L2.2266519,5.72448675 Z M5.535622,5.36135531 L5.72609819,3.26744493 C5.75046142,3.00173899 5.54078996,2.77219859 5.27353267,2.77219859 L4.81875231,2.77219859 C5.0860096,2.77219859 5.29568106,3.00173899 5.27131783,3.26744493 L5.08084164,5.36135531 L5.3163529,5.36135531 L5.3163529,5.72448675 L4.31746032,5.72448675 L4.31746032,6.0876182 L5.86267996,6.0876182 L5.86267996,5.36135531 L5.535622,5.36135531 L5.535622,5.36135531 Z" id="形状" fill="#6E6E6E"></path>
                    <path d="M5.68475452,5.22481198 L5.86194168,3.27925408 C5.87670727,3.11466402 5.82133629,2.95007395 5.70985604,2.82755399 C5.59837578,2.70503403 5.43890735,2.63491719 5.27353267,2.63491719 L3.88039867,2.63491719 L3.73274271,1.67837582 C3.71354743,1.55437972 3.76375046,1.43259783 3.86341824,1.36026677 C4.05315615,1.22298537 4.15799188,1.04215772 4.15799188,0.852473208 C4.15799188,0.406677695 3.60575858,0 2.99889258,0 C2.39202658,0 1.83979328,0.405939623 1.83979328,0.852473208 C1.83979328,1.04215772 1.94462901,1.22298537 2.13436693,1.36026677 C2.23477298,1.43259783 2.28497601,1.55511779 2.26504245,1.67911389 L2.11738649,2.63491719 L0.724990772,2.63491719 C0.559616094,2.63491719 0.400147656,2.70503403 0.288667405,2.82755399 C0.177187154,2.95007395 0.121816168,3.11466402 0.136581764,3.27925408 L0.313768918,5.22481198 L0.136581764,5.22481198 C0.0612772241,5.22481198 0,5.28607196 0,5.36135531 L0,6.08835627 C0,6.16363962 0.0612772241,6.2248996 0.136581764,6.2248996 L1.6818014,6.2248996 C1.75710594,6.2248996 1.81838317,6.16363962 1.81838317,6.08835627 L1.81838317,5.90605248 L2.09080842,5.90605248 L2.09080842,6.0876182 C2.09080842,6.16290155 2.15208564,6.22416153 2.22739018,6.22416153 L3.77260982,6.22416153 C3.84791436,6.22416153 3.90919158,6.16290155 3.90919158,6.0876182 L3.90919158,5.90605248 L4.18161683,5.90605248 L4.18161683,6.0876182 C4.18161683,6.16290155 4.24289406,6.22416153 4.3181986,6.22416153 L5.86341824,6.22416153 C5.93872278,6.22416153 6,6.16290155 6,6.0876182 L6,5.36061724 C5.99852344,5.28607196 5.93724622,5.22481198 5.86194168,5.22481198 L5.68475452,5.22481198 Z M5.27353267,2.90800384 C5.36434109,2.90800384 5.4477667,2.94490745 5.50830565,3.01133393 C5.56958287,3.07849849 5.59837578,3.16485291 5.59025471,3.2548977 L5.41085271,5.22481198 L4.31746032,5.22481198 C4.30490956,5.22481198 4.29309708,5.2270262 4.28128461,5.22997849 L3.92248062,2.90726577 L5.27353267,2.90726577 L5.27353267,2.90800384 Z M2.11295681,0.85321128 C2.11295681,0.590457633 2.50793651,0.273086655 2.99889258,0.273086655 C3.48984865,0.273086655 3.88482835,0.590457633 3.88482835,0.85321128 C3.88482835,0.988278464 3.77113326,1.09087048 3.70321152,1.1403213 C3.51937984,1.27317427 3.42783315,1.49607203 3.4625323,1.721184 L3.60354374,2.63565526 L2.39276486,2.63565526 L2.53525286,1.721184 C2.57069029,1.49533396 2.47840532,1.27317427 2.29457364,1.1403213 C2.2266519,1.09087048 2.11295681,0.988278464 2.11295681,0.85321128 L2.11295681,0.85321128 Z M0.490217793,3.01133393 C0.551495017,2.94490745 0.634920635,2.90800384 0.724990772,2.90800384 L2.07604282,2.90800384 L1.71723883,5.23071656 C1.70542636,5.22776427 1.69361388,5.22555005 1.68106312,5.22555005 L0.586932447,5.22555005 L0.407530454,3.25563578 C0.400147656,3.16485291 0.428940568,3.07849849 0.490217793,3.01133393 L0.490217793,3.01133393 Z M1.54521964,5.95181294 L0.272425249,5.95181294 L0.272425249,5.49716057 L1.54448136,5.49716057 L1.54448136,5.95181294 L1.54521964,5.95181294 Z M3.63528977,5.95181294 L2.36323367,5.95181294 L2.36323367,5.49716057 L3.63528977,5.49716057 L3.63528977,5.95181294 L3.63528977,5.95181294 Z M3.77187154,5.22481198 L2.2266519,5.22481198 C2.15134736,5.22481198 2.09007014,5.28607196 2.09007014,5.36135531 L2.09007014,5.63370389 L1.93133998,5.63370389 L2.35215947,2.90800384 L3.64636397,2.90800384 L4.06718346,5.63370389 L3.90771502,5.63370389 L3.90771502,5.36135531 C3.9084533,5.28607196 3.84717608,5.22481198 3.77187154,5.22481198 L3.77187154,5.22481198 Z M5.72609819,5.95181294 L4.4533038,5.95181294 L4.4533038,5.49716057 L5.72609819,5.49716057 L5.72609819,5.95181294 Z" id="形状" fill="#404040"></path>
                </g>
            </g>
            <g id="编组-5" transform="translate(114.000000, 0.000000)">
                <g id="直线-3" stroke-linecap="square">
                    <use fill="black" fill-opacity="1" filter="url(#filter-4)" xlink:href="#path-3"></use>
                    <use stroke="#5E5E5E" stroke-width="0.5" xlink:href="#path-3"></use>
                </g>
                <g id="编组" transform="translate(0.000000, 3.000000)" fill-rule="nonzero">
                    <path d="M5.535622,5.36135531 L5.72609819,3.26744493 C5.75046142,3.00173899 5.54078996,2.77219859 5.27353267,2.77219859 L0.724990772,2.77219859 C0.457733481,2.77219859 0.248062016,3.00173899 0.272425249,3.26744493 L0.46290144,5.36135531 L0.136581764,5.36135531 L0.136581764,6.08835627 L1.6818014,6.08835627 L1.6818014,5.72522483 L2.2266519,5.72522483 L2.2266519,6.08835627 L3.77187154,6.08835627 L3.77187154,5.72522483 L4.31746032,5.72522483 L4.31746032,6.08835627 L5.86267996,6.08835627 L5.86267996,5.36135531 L5.535622,5.36135531 Z" id="路径" fill="#323232"></path>
                    <path d="M0.838685862,4.57088015 C0.792174234,4.57088015 0.752307124,4.5354527 0.747877446,4.48821608 L0.634182355,3.23423169 C0.631967516,3.20913724 0.640088594,3.18330472 0.657807309,3.16485291 C0.675526024,3.14640111 0.699150978,3.13533003 0.724990772,3.13533003 L1.45662606,3.13533003 C1.50682909,3.13533003 1.54743448,3.17592399 1.54743448,3.22611289 C1.54743448,3.27630179 1.50682909,3.31689575 1.45662606,3.31689575 L0.824658546,3.31689575 L0.929494278,4.4719785 C0.933923957,4.5221674 0.897009967,4.56645172 0.84680694,4.57088015 L0.838685862,4.57088015 L0.838685862,4.57088015 Z" id="路径" fill="#FFFFFF"></path>
                    <path d="M1.77260982,3.22611289 C1.77260982,3.27625088 1.81326613,3.31689575 1.86341824,3.31689575 C1.91357034,3.31689575 1.95422665,3.27625088 1.95422665,3.22611289 C1.95422665,3.1759749 1.91357034,3.13533003 1.86341824,3.13533003 C1.81326613,3.13533003 1.77260982,3.1759749 1.77260982,3.22611289 Z" id="路径" fill="#FFFFFF"></path>
                    <path d="M0.136581764,5.72448675 L1.6818014,5.72448675 L1.6818014,6.0876182 L0.136581764,6.0876182 L0.136581764,5.72448675 Z M2.2266519,5.72448675 L3.77187154,5.72448675 L3.77187154,6.0876182 L2.2266519,6.0876182 L2.2266519,5.72448675 Z M5.535622,5.36135531 L5.72609819,3.26744493 C5.75046142,3.00173899 5.54078996,2.77219859 5.27353267,2.77219859 L4.81875231,2.77219859 C5.0860096,2.77219859 5.29568106,3.00173899 5.27131783,3.26744493 L5.08084164,5.36135531 L5.3163529,5.36135531 L5.3163529,5.72448675 L4.31746032,5.72448675 L4.31746032,6.0876182 L5.86267996,6.0876182 L5.86267996,5.36135531 L5.535622,5.36135531 L5.535622,5.36135531 Z" id="形状" fill="#6E6E6E"></path>
                    <path d="M5.68475452,5.22481198 L5.86194168,3.27925408 C5.87670727,3.11466402 5.82133629,2.95007395 5.70985604,2.82755399 C5.59837578,2.70503403 5.43890735,2.63491719 5.27353267,2.63491719 L3.88039867,2.63491719 L3.73274271,1.67837582 C3.71354743,1.55437972 3.76375046,1.43259783 3.86341824,1.36026677 C4.05315615,1.22298537 4.15799188,1.04215772 4.15799188,0.852473208 C4.15799188,0.406677695 3.60575858,0 2.99889258,0 C2.39202658,0 1.83979328,0.405939623 1.83979328,0.852473208 C1.83979328,1.04215772 1.94462901,1.22298537 2.13436693,1.36026677 C2.23477298,1.43259783 2.28497601,1.55511779 2.26504245,1.67911389 L2.11738649,2.63491719 L0.724990772,2.63491719 C0.559616094,2.63491719 0.400147656,2.70503403 0.288667405,2.82755399 C0.177187154,2.95007395 0.121816168,3.11466402 0.136581764,3.27925408 L0.313768918,5.22481198 L0.136581764,5.22481198 C0.0612772241,5.22481198 0,5.28607196 0,5.36135531 L0,6.08835627 C0,6.16363962 0.0612772241,6.2248996 0.136581764,6.2248996 L1.6818014,6.2248996 C1.75710594,6.2248996 1.81838317,6.16363962 1.81838317,6.08835627 L1.81838317,5.90605248 L2.09080842,5.90605248 L2.09080842,6.0876182 C2.09080842,6.16290155 2.15208564,6.22416153 2.22739018,6.22416153 L3.77260982,6.22416153 C3.84791436,6.22416153 3.90919158,6.16290155 3.90919158,6.0876182 L3.90919158,5.90605248 L4.18161683,5.90605248 L4.18161683,6.0876182 C4.18161683,6.16290155 4.24289406,6.22416153 4.3181986,6.22416153 L5.86341824,6.22416153 C5.93872278,6.22416153 6,6.16290155 6,6.0876182 L6,5.36061724 C5.99852344,5.28607196 5.93724622,5.22481198 5.86194168,5.22481198 L5.68475452,5.22481198 Z M5.27353267,2.90800384 C5.36434109,2.90800384 5.4477667,2.94490745 5.50830565,3.01133393 C5.56958287,3.07849849 5.59837578,3.16485291 5.59025471,3.2548977 L5.41085271,5.22481198 L4.31746032,5.22481198 C4.30490956,5.22481198 4.29309708,5.2270262 4.28128461,5.22997849 L3.92248062,2.90726577 L5.27353267,2.90726577 L5.27353267,2.90800384 Z M2.11295681,0.85321128 C2.11295681,0.590457633 2.50793651,0.273086655 2.99889258,0.273086655 C3.48984865,0.273086655 3.88482835,0.590457633 3.88482835,0.85321128 C3.88482835,0.988278464 3.77113326,1.09087048 3.70321152,1.1403213 C3.51937984,1.27317427 3.42783315,1.49607203 3.4625323,1.721184 L3.60354374,2.63565526 L2.39276486,2.63565526 L2.53525286,1.721184 C2.57069029,1.49533396 2.47840532,1.27317427 2.29457364,1.1403213 C2.2266519,1.09087048 2.11295681,0.988278464 2.11295681,0.85321128 L2.11295681,0.85321128 Z M0.490217793,3.01133393 C0.551495017,2.94490745 0.634920635,2.90800384 0.724990772,2.90800384 L2.07604282,2.90800384 L1.71723883,5.23071656 C1.70542636,5.22776427 1.69361388,5.22555005 1.68106312,5.22555005 L0.586932447,5.22555005 L0.407530454,3.25563578 C0.400147656,3.16485291 0.428940568,3.07849849 0.490217793,3.01133393 L0.490217793,3.01133393 Z M1.54521964,5.95181294 L0.272425249,5.95181294 L0.272425249,5.49716057 L1.54448136,5.49716057 L1.54448136,5.95181294 L1.54521964,5.95181294 Z M3.63528977,5.95181294 L2.36323367,5.95181294 L2.36323367,5.49716057 L3.63528977,5.49716057 L3.63528977,5.95181294 L3.63528977,5.95181294 Z M3.77187154,5.22481198 L2.2266519,5.22481198 C2.15134736,5.22481198 2.09007014,5.28607196 2.09007014,5.36135531 L2.09007014,5.63370389 L1.93133998,5.63370389 L2.35215947,2.90800384 L3.64636397,2.90800384 L4.06718346,5.63370389 L3.90771502,5.63370389 L3.90771502,5.36135531 C3.9084533,5.28607196 3.84717608,5.22481198 3.77187154,5.22481198 L3.77187154,5.22481198 Z M5.72609819,5.95181294 L4.4533038,5.95181294 L4.4533038,5.49716057 L5.72609819,5.49716057 L5.72609819,5.95181294 Z" id="形状" fill="#404040"></path>
                </g>
            </g>
        </g>
    </g>
</svg>