<?xml version="1.0" encoding="UTF-8"?>
<svg width="160px" height="100px" viewBox="0 0 160 100" version="1.1" xmlns="http://www.w3.org/2000/svg" xmlns:xlink="http://www.w3.org/1999/xlink">
    <title>ipad</title>
    <defs>
        <linearGradient x1="50%" y1="0%" x2="50%" y2="100%" id="linearGradient-1">
            <stop stop-color="#373737" offset="0%"></stop>
            <stop stop-color="#000000" offset="100%"></stop>
        </linearGradient>
        <linearGradient x1="50%" y1="0%" x2="50%" y2="100%" id="linearGradient-2">
            <stop stop-color="#C8C8C8" offset="0%"></stop>
            <stop stop-color="#979797" offset="100%"></stop>
        </linearGradient>
    </defs>
    <g id="页面-1" stroke="none" stroke-width="1" fill="none" fill-rule="evenodd">
        <g id="ipad">
            <rect id="矩形" x="0" y="0" width="160" height="100"></rect>
            <path d="M25.1144574,5.00143575 L134.590287,5 C136.515157,5 137.380461,5.17308908 138.10553,5.50099869 L138.33091,5.60967418 C138.368054,5.62863739 138.405077,5.64802414 138.442114,5.66783176 C139.256929,6.10359949 139.896401,6.74307093 140.332168,7.55788574 L140.445942,7.78101661 C140.771985,8.45635193 140.959938,9.2141228 140.994268,10.8360081 L141,11.409713 L141,11.409713 L141,89.590287 L140.994268,90.1639919 C140.961845,91.6957725 140.792394,92.4567843 140.499001,93.1055302 L140.390326,93.33091 C140.371363,93.3680538 140.351976,93.4050772 140.332168,93.4421143 C139.896401,94.2569291 139.256929,94.8964005 138.442114,95.3321682 L138.218983,95.4459422 C137.543648,95.7719846 136.785877,95.9599375 135.163992,95.9942677 L134.590287,96 L134.590287,96 L25.409713,96 L24.8360081,95.9942677 C23.3042275,95.9618447 22.5432157,95.7923941 21.8944698,95.4990013 L21.66909,95.3903258 C21.6319462,95.3713626 21.5949228,95.3519759 21.5578857,95.3321682 C20.7430709,94.8964005 20.1035995,94.2569291 19.6678318,93.4421143 L19.5540578,93.2189834 C19.2099019,92.5061294 19.019605,91.701426 19.0014357,89.8855426 L19,11.409713 C19,9.48484299 19.1730891,8.61953876 19.5009987,7.89446982 L19.6096742,7.66908998 C19.6286374,7.63194618 19.6480241,7.59492278 19.6678318,7.55788574 C20.1035995,6.74307093 20.7430709,6.10359949 21.5578857,5.66783176 L21.7810166,5.55405783 C22.4938706,5.20990192 23.298574,5.01960505 25.1144574,5.00143575 Z M135.390533,8.57948718 L24.9954548,8.57948718 C23.941093,8.57948718 23.0772897,9.39536497 23.0009405,10.4302248 L22.9954548,10.5794872 L22.9954548,90.3794872 C22.9954548,91.433849 23.8113326,92.2976523 24.8461925,92.3740014 L24.9954548,92.3794872 L135.390533,92.3794872 C136.444894,92.3794872 137.308698,91.5636094 137.385047,90.5287495 L137.390533,90.3794872 L137.390533,10.5794872 C137.390533,9.52512538 136.574655,8.66132206 135.539795,8.58497292 L135.390533,8.57948718 Z" id="形状" fill="#000000"></path>
            <path d="M136,5 C138.688755,5 140.881818,7.12230671 140.99538,9.78311038 L141,10 L141,91 C141,93.6887547 138.877693,95.8818181 136.21689,95.9953805 L136,96 L109.14645,96 L107.198982,92.41 L134.864145,92.4102564 C135.67505,92.4102564 136.008861,92.3323192 136.308019,92.1852367 L136.382342,92.1470306 C136.703501,91.9752728 136.955549,91.7232252 137.127307,91.402066 L137.165513,91.3277425 L137.165513,91.3277425 L137.233251,91.1732275 C137.315778,90.9578949 137.366922,90.6943873 137.384078,90.2516117 L137.390533,89.8838688 L137.390533,11.1161312 L137.384078,10.7483883 C137.366922,10.3056127 137.315778,10.0421051 137.233251,9.82677248 L137.165513,9.67225748 C137.153256,9.64732767 137.140519,9.62263851 137.127307,9.59793396 C136.955549,9.27677479 136.703501,9.0247272 136.382342,8.8529694 C136.085888,8.69442374 135.791649,8.60429068 135.057188,8.59136219 L134.864145,8.58974359 L61.7339822,8.589 L59.7869822,5 L136,5 Z" id="路径" fill="url(#linearGradient-1)"></path>
            <path d="M134.590287,5.25 C136.453122,5.25 137.295196,5.4098218 137.998016,5.7269044 C139.087596,6.29860394 139.697943,6.90209854 140.107628,7.66780247 C140.50501,8.47958371 140.686311,9.17357859 140.735688,10.5360333 L140.74428,10.8385059 L140.75,11.409713 L140.750012,89.5877892 L140.744324,90.1587014 C140.713081,91.6347319 140.555618,92.3717444 140.273201,92.9978162 C139.70147,94.0875211 139.097948,94.6979181 138.332198,95.107628 C137.520416,95.5050104 136.826421,95.6863114 135.463967,95.735688 L135.161494,95.7442801 L134.590287,95.75 L25.4122108,95.7500125 L24.8412986,95.7443236 C23.3652681,95.7130808 22.6282556,95.5556178 22.0021838,95.2732005 C20.9124789,94.7014699 20.302082,94.0979484 19.8923959,93.3322464 C19.4744204,92.4779263 19.2910383,91.7352861 19.2562402,90.1857551 L19.2514357,89.885538 L19.25,11.409713 C19.25,9.54687801 19.4098218,8.7048044 19.7269044,8.00198376 C20.2986039,6.91240418 20.9020984,6.30205694 21.6677536,5.89239591 C22.5220737,5.47442044 23.2647139,5.29103828 24.8142438,5.25624017 L25.1144607,5.25143575 L134.590287,5.25 Z M135.398965,8.32948718 L24.9954548,8.32948718 L24.79709,8.33812345 C24.2741911,8.38394248 23.8024004,8.61014495 23.4420975,8.97044784 C23.0498341,9.36271124 22.7887404,9.91559184 22.7454548,10.5710544 L22.7454548,10.5710544 L22.7454548,90.3794872 L22.7540911,90.577852 C22.7999101,91.1007509 23.0261126,91.5725416 23.3864155,91.9328445 C23.7786789,92.3251079 24.3315595,92.5862016 24.9870221,92.6294872 L24.9870221,92.6294872 L135.390533,92.6294872 L135.588897,92.6208509 C136.111796,92.5750319 136.583587,92.3488294 136.94389,91.9885265 C137.336153,91.5962631 137.597247,91.0433825 137.640533,90.3879199 L137.640533,90.3879199 L137.640533,10.5794872 L137.631896,10.3811224 C137.586077,9.85822351 137.359875,9.38643278 136.999572,9.02612989 C136.607308,8.63386648 136.054428,8.37277278 135.398965,8.32948718 L135.398965,8.32948718 Z" id="形状" stroke="url(#linearGradient-2)" stroke-width="0.5"></path>
        </g>
    </g>
</svg>