<?xml version="1.0" encoding="UTF-8"?>
<svg width="160px" height="100px" viewBox="0 0 160 100" version="1.1" xmlns="http://www.w3.org/2000/svg" xmlns:xlink="http://www.w3.org/1999/xlink">
    <title>笔记本</title>
    <defs>
        <linearGradient x1="50%" y1="0%" x2="50%" y2="100%" id="linearGradient-1">
            <stop stop-color="#5E5E5E" offset="0%"></stop>
            <stop stop-color="#000000" offset="100%"></stop>
        </linearGradient>
        <linearGradient x1="50%" y1="0%" x2="50%" y2="100%" id="linearGradient-2">
            <stop stop-color="#C8C8C8" offset="0%"></stop>
            <stop stop-color="#979797" offset="100%"></stop>
        </linearGradient>
        <linearGradient x1="50%" y1="0%" x2="50%" y2="100%" id="linearGradient-3">
            <stop stop-color="#828282" offset="0%"></stop>
            <stop stop-color="#4D4D4D" offset="100%"></stop>
        </linearGradient>
        <linearGradient x1="0%" y1="50%" x2="100%" y2="50%" id="linearGradient-4">
            <stop stop-color="#E7E7E7" stop-opacity="0.323056094" offset="0%"></stop>
            <stop stop-color="#8D8D8D" stop-opacity="0.6" offset="32.052591%"></stop>
            <stop stop-color="#919191" stop-opacity="0.627588232" offset="67.1067458%"></stop>
            <stop stop-color="#919191" stop-opacity="0" offset="100%"></stop>
        </linearGradient>
        <linearGradient x1="0%" y1="50%" x2="100%" y2="50%" id="linearGradient-5">
            <stop stop-color="#C9C9C9" stop-opacity="0" offset="0%"></stop>
            <stop stop-color="#656565" offset="100%"></stop>
        </linearGradient>
        <linearGradient x1="50%" y1="0%" x2="50%" y2="100%" id="linearGradient-6">
            <stop stop-color="#A3A3A3" offset="0%"></stop>
            <stop stop-color="#484848" offset="100%"></stop>
        </linearGradient>
    </defs>
    <g id="页面-1" stroke="none" stroke-width="1" fill="none" fill-rule="evenodd">
        <g id="笔记本">
            <g id="路径-8" transform="translate(20.000000, 5.000000)">
                <path d="M115,0 C117.761424,-6.97699784e-15 120,2.23857625 120,5 L120,77.1826281 C120,79.9440518 117.761424,82.1826281 115,82.1826281 L5,82.1826281 C2.23857625,82.1826281 1.2263553e-15,79.9440518 0,77.1826281 L0,5 C5.50001544e-16,2.23857625 2.23857625,1.39544373e-15 5,0 L115,0 Z M116,4.5 L4,4.5 L4,75.5 L116,75.5 L116,4.5 Z" id="形状结合" fill="#000000"></path>
                <path d="M114.6,0.400890869 C117.288755,0.400890869 119.481818,2.52319758 119.59538,5.18400125 L119.6,5.40089087 L119.6,75.3786192 C119.6,78.0673739 117.477693,80.2604373 114.81689,80.3739996 L114.6,80.3786192 L92.4,80.3786192 L89.969,75.9998909 L116,76 L116,4 L49.998,3.99989087 L48,0.400890869 L114.6,0.400890869 Z" id="路径" fill="url(#linearGradient-1)"></path>
                <path d="M115,0.25 C116.311676,0.25 117.499176,0.78166186 118.358757,1.64124279 C119.161033,2.44351832 119.677654,3.5314478 119.742972,4.7393808 L119.75,5 L119.75,77.1826281 C119.75,78.4943043 119.218338,79.6818043 118.358757,80.5413853 C117.556482,81.3436608 116.468552,81.8602824 115.260619,81.9255996 L115,81.9326281 L5,81.9326281 C3.68832372,81.9326281 2.50082372,81.4009662 1.64124279,80.5413853 C0.838967255,79.7391097 0.322345666,78.6511803 0.257028457,77.4432473 L0.25,77.1826281 L0.25,5 C0.25,3.68832372 0.78166186,2.50082372 1.64124279,1.64124279 C2.44351832,0.838967255 3.5314478,0.322345666 4.7393808,0.257028457 L5,0.25 L115,0.25 Z M116.25,4.25 L3.75,4.25 L3.75,75.75 L116.25,75.75 L116.25,4.25 Z" id="形状结合" stroke="url(#linearGradient-2)" stroke-width="0.5"></path>
            </g>
            <rect id="矩形" stroke="url(#linearGradient-3)" stroke-width="0.5" x="23.7521159" y="9.25" width="111.997884" height="71.5"></rect>
            <path d="M18.9920944,85.5782042 L8,89.1870824 L8,89.1870824 L151.8,89.1870824 L140.807906,85.5782042 C140.405195,85.4459879 139.984029,85.3786192 139.560169,85.3786192 L20.2398307,85.3786192 C19.815971,85.3786192 19.3948051,85.4459879 18.9920944,85.5782042 Z" id="路径-2" fill="#CBCBCB"></path>
            <rect id="矩形" fill="#E7E7E7" x="8" y="89.1870824" width="143.8" height="3.00668151"></rect>
            <g id="编组" transform="translate(146.200000, 89.187082)">
                <rect id="矩形" fill="url(#linearGradient-4)" x="0" y="0" width="3.4" height="3.00668151"></rect>
                <rect id="矩形" fill="url(#linearGradient-5)" x="4.4" y="0" width="1.2" height="3.00668151"></rect>
            </g>
            <g id="编组" transform="translate(10.800000, 90.690423) scale(-1, 1) translate(-10.800000, -90.690423) translate(8.000000, 89.187082)">
                <rect id="矩形" fill="url(#linearGradient-4)" x="0" y="0" width="3.4" height="3.00668151"></rect>
                <rect id="矩形" fill="url(#linearGradient-5)" x="4.4" y="0" width="1.2" height="3.00668151"></rect>
            </g>
            <g id="编组-20" transform="translate(8.000000, 85.779510)">
                <path d="M0,6.4142539 L3.21578478,7.86458 C3.73268515,8.09770321 4.29324366,8.21826281 4.86028195,8.21826281 L138.611833,8.21826281 C139.132274,8.21826281 139.647714,8.11669971 140.129253,7.9192678 L143.8,6.4142539 L143.8,6.4142539 L0,6.4142539 Z" id="路径-3" fill="url(#linearGradient-6)"></path>
                <polygon id="路径-4" fill="#B2B2B2" points="13.2 0 9.2 1.60356347 18.8 1.60356347 22.4 0"></polygon>
                <polygon id="路径-4" fill="#B2B2B2" transform="translate(128.100000, 0.801782) scale(-1, 1) translate(-128.100000, -0.801782) " points="125.6 0 121.4 1.60356347 131 1.60356347 134.8 0"></polygon>
                <path d="M23.9068128,0.321438464 L20.8,1.60356347 L20.8,1.60356347 L123.4,1.60356347 L120.080251,0.309674548 C119.895039,0.237487382 119.697997,0.200445434 119.499215,0.200445434 L24.517172,0.200445434 C24.3077614,0.200445434 24.1003876,0.241553673 23.9068128,0.321438464 Z" id="路径-5" fill="#929292"></path>
                <polygon id="路径-5" fill="#282828" points="25.2 0.200445434 22 1.60356347 122.2 1.60356347 118.6 0.200445434"></polygon>
                <polygon id="路径-6" fill="#282828" points="25.6 0 31 0 31 0.400890869 31.2 0.400890869 32.2 0 37.6 0 37.6 0.601336303 38 0.601336303 38.8 0 44.6 0 44.6 0.400890869 45.6 0.400890869 45.6 0 51.4 0 51.4 0.400890869 52.4 0.400890869 52.4 0 58 0 58 0.400890869 59.2 0.400890869 59.2 0 64.8 0 64.8 0.400890869 65.8 0.400890869 65.8 0 71.6 0 71.6 0.400890869 72.6 0.400890869 72.6 0 78.2 0 78.2 0.400890869 79.4 0.400890869 79.4 0 85 0 85 0.400890869 86 0.400890869 86 0 91.8 0 91.8 0.400890869 93 0.400890869 93 0 98.4 0 98.4 0.400890869 99.6 0.400890869 99.6 0 105.4 0 105.4 0.400890869 106.4 0.400890869 106.4 0 112.2 0 112.2 0.200445434 113.2 0.200445434 113.2 0 118.4 0 118.6 0.200445434 118.6 0.601336303 25.2 0.200445434"></polygon>
                <polygon id="路径-7" fill="#BDBDBD" points="43.2 2.00445434 41.8 3.20712695 100.8 3.20712695 98.6 2.00445434"></polygon>
            </g>
            <rect id="矩形" x="0" y="0" width="160" height="100"></rect>
        </g>
    </g>
</svg>