<?xml version="1.0" encoding="UTF-8"?>
<svg width="160px" height="100px" viewBox="0 0 160 100" version="1.1" xmlns="http://www.w3.org/2000/svg" xmlns:xlink="http://www.w3.org/1999/xlink">
    <title>pc</title>
    <defs>
        <linearGradient x1="0%" y1="50%" x2="100%" y2="50%" id="linearGradient-1">
            <stop stop-color="#4F4F4F" offset="0%"></stop>
            <stop stop-color="#373737" offset="5.89283763%"></stop>
            <stop stop-color="#626262" offset="22.5056682%"></stop>
            <stop stop-color="#464646" offset="41.0896355%"></stop>
            <stop stop-color="#CECECE" offset="63.8157985%"></stop>
            <stop stop-color="#6A6A6A" offset="76.6060356%"></stop>
            <stop stop-color="#000000" offset="100%"></stop>
        </linearGradient>
        <linearGradient x1="51.2308794%" y1="49.3856073%" x2="52.4649705%" y2="50.8104911%" id="linearGradient-2">
            <stop stop-color="#000000" offset="0%"></stop>
            <stop stop-color="#5E5E5E" offset="12.7578842%"></stop>
            <stop stop-color="#000000" offset="28.3670919%"></stop>
            <stop stop-color="#616161" offset="56.1122736%"></stop>
            <stop stop-color="#222222" offset="73.19558%"></stop>
            <stop stop-color="#636363" offset="100%"></stop>
        </linearGradient>
        <linearGradient x1="48.1751488%" y1="34.9615437%" x2="59.6644336%" y2="61.0910856%" id="linearGradient-3">
            <stop stop-color="#151515" offset="0%"></stop>
            <stop stop-color="#5D5D5D" offset="19.8290931%"></stop>
            <stop stop-color="#000000" offset="46.20144%"></stop>
            <stop stop-color="#303030" offset="84.7316384%"></stop>
            <stop stop-color="#090909" offset="100%"></stop>
        </linearGradient>
        <linearGradient x1="53.0933592%" y1="49.3374298%" x2="54.1372478%" y2="50.6025316%" id="linearGradient-4">
            <stop stop-color="#000000" offset="0%"></stop>
            <stop stop-color="#A7A7A7" offset="29.3293687%"></stop>
            <stop stop-color="#474747" offset="46.5579586%"></stop>
            <stop stop-color="#959595" offset="69.2072942%"></stop>
            <stop stop-color="#505050" offset="100%"></stop>
        </linearGradient>
        <linearGradient x1="47.0445274%" y1="33.0118658%" x2="56.9981427%" y2="64.6243638%" id="linearGradient-5">
            <stop stop-color="#151515" offset="0%"></stop>
            <stop stop-color="#4A4A4A" offset="32.0691706%"></stop>
            <stop stop-color="#000000" offset="60.0979298%"></stop>
            <stop stop-color="#090909" offset="100%"></stop>
        </linearGradient>
        <linearGradient x1="47.7157188%" y1="5.48426403%" x2="55.4088561%" y2="88.321708%" id="linearGradient-6">
            <stop stop-color="#151515" offset="0%"></stop>
            <stop stop-color="#4A4A4A" offset="32.0691706%"></stop>
            <stop stop-color="#000000" offset="60.0979298%"></stop>
            <stop stop-color="#090909" offset="100%"></stop>
        </linearGradient>
        <filter x="-119.9%" y="-119.3%" width="339.9%" height="338.7%" filterUnits="objectBoundingBox" id="filter-7">
            <feGaussianBlur stdDeviation="0.32" in="SourceGraphic"></feGaussianBlur>
        </filter>
        <linearGradient x1="50%" y1="0%" x2="50%" y2="100%" id="linearGradient-8">
            <stop stop-color="#494949" offset="0%"></stop>
            <stop stop-color="#444444" offset="100%"></stop>
        </linearGradient>
        <linearGradient x1="50%" y1="0%" x2="50%" y2="100%" id="linearGradient-9">
            <stop stop-color="#747474" offset="0%"></stop>
            <stop stop-color="#383838" offset="100%"></stop>
        </linearGradient>
        <linearGradient x1="50%" y1="-21.0446376%" x2="50%" y2="100%" id="linearGradient-10">
            <stop stop-color="#FFFFFF" offset="0%"></stop>
            <stop stop-color="#000000" stop-opacity="0" offset="100%"></stop>
        </linearGradient>
        <linearGradient x1="100%" y1="50%" x2="0%" y2="50%" id="linearGradient-11">
            <stop stop-color="#000000" stop-opacity="0" offset="0%"></stop>
            <stop stop-color="#FFFFFF" offset="100%"></stop>
        </linearGradient>
    </defs>
    <g id="页面-1" stroke="none" stroke-width="1" fill="none" fill-rule="evenodd">
        <g id="pc">
            <rect id="矩形" x="0" y="0" width="160" height="100"></rect>
            <g id="底座" transform="translate(33.238377, 79.099641)">
                <g id="路径" transform="translate(44.387866, 0.000000)">
                    <path d="M0.00107053199,0 L4.16363211,0 L4.31657779,12.9461955 C4.32080118,13.287521 4.05640621,13.5720909 3.71569315,13.5929596 C3.11040957,13.6294956 2.5659623,13.6477637 2.08235132,13.6477637 C1.56121476,13.6477637 1.00477043,13.6053376 0.413018324,13.5204855 C0.176459452,13.4866155 0.000854539387,13.2838823 0.00107053199,13.0449111 L0.00107053199,0 L0.00107053199,0 Z" id="蒙版" fill="url(#linearGradient-1)"></path>
                    <path d="M4.31739604,12.9107816 L4.31657779,12.9461955 C4.31953416,13.1851233 4.19086754,13.3962409 3.99653691,13.508566 L3.90838088,13.550856 C3.87759395,13.561899 3.84223732,13.5717517 3.80472623,13.5809529 L3.71569315,13.5929596 C3.47357972,13.607574 3.2412001,13.6192655 3.01855428,13.6280342 L2.37981826,13.6455715 C2.27822916,13.6470329 2.17907352,13.6477637 2.08235132,13.6477637 C1.60052334,13.6477637 1.08851314,13.6114965 0.546320723,13.5389622 C0.366427051,13.4949761 0.228800678,13.4296046 0.0841060825,13.31345 C0.0312362386,13.2372137 0.000980799769,13.1441896 0.00107053199,13.0449111 L3.58765101e-13,13.0066434 L0.0440145304,13.0233859 L0.0440145304,13.0233859 L0.161169054,13.0846149 L0.161169054,13.0846149 C0.214535228,13.1114315 0.303478852,13.1382481 0.416140775,13.1650647 L0.669575198,13.2186979 L0.669575198,13.2186979 L1.12219941,13.2991478 C1.17512636,13.3080866 1.22849254,13.3170255 1.28185871,13.3259644 C1.76215428,13.4064142 3.20304098,13.4064142 3.68333654,13.2455145 C3.92511798,13.1645174 4.13647115,13.0529398 4.31739604,12.9107816 Z" fill="#000000"></path>
                </g>
                <g id="路径-10" transform="translate(0.000000, 4.878733)">
                    <path d="M45.5896759,0.643598616 C45.322845,0.214532872 44.9225987,0 44.388937,0 C15.251006,6.06055363 0.682040451,9.09083045 0.682040451,9.09083045 C0.201744885,9.2517301 -0.118452159,9.73442907 0.0416463627,10.217128 C0.190153343,10.6648784 0.521941929,11.0216263 1.16233602,11.0216263 C1.16233602,11.0216263 15.6245692,8.3399654 44.5490355,2.9766436 C45.0293311,2.86937716 45.4028943,2.62802768 45.6697252,2.25259516 C46.0699715,1.68944637 45.7399907,0.885305735 45.5896759,0.643598616 Z" id="蒙版" fill="url(#linearGradient-2)"></path>
                    <path d="M45.8321552,1.30482121 C45.8581189,1.44713223 45.8691971,1.59908335 45.8531943,1.74990613 L26.297804,5.30968858 L45.8321552,1.30482121 Z" id="路径" fill="#FFFFFF"></path>
                    <path d="M3.08351828,8.60813149 C3.71832163,9.03345142 3.98605582,9.66957476 3.88672085,10.5165015 L1.16233602,11.0216263 L1.16233602,11.0216263 C0.521941929,11.0216263 0.190153343,10.6648784 0.0416463627,10.217128 C-0.107016551,9.76890756 0.158452938,9.3206871 0.58168715,9.13011717 L0.688343777,9.08951939 L0.688343777,9.08951939 L2.95754082,8.617537 L2.95754082,8.617537 L3.08351828,8.60813149 Z" id="路径" fill="url(#linearGradient-3)"></path>
                    <path d="M1.0939928,9.03925154 C1.66557418,9.0996279 2.06899285,9.72171332 1.99505384,10.4287184 C1.97771915,10.5944718 1.93568583,10.7501772 1.87412216,10.8906576 L1.16233602,11.0216263 C0.521941929,11.0216263 0.190153343,10.6648784 0.0416463627,10.217128 C-0.000845295554,10.0890152 -0.00950389281,9.96090231 0.00968416189,9.83880582 C0.144662078,9.46694817 0.411611961,9.18621224 0.72682863,9.0804077 L0.933341982,9.03747696 C0.986233094,9.03305937 1.0398967,9.03353737 1.0939928,9.03925154 Z" id="路径" fill="#000000"></path>
                    <ellipse id="椭圆形" fill="#FFFFFF" cx="0.922188235" cy="9.78203841" rx="1" ry="1"></ellipse>
                    <ellipse id="椭圆形" fill="#FFFFFF" cx="0.922188235" cy="9.78203841" rx="1" ry="1"></ellipse>
                </g>
                <g id="路径-10" transform="translate(69.444356, 10.502175) scale(-1, 1) translate(-69.444356, -10.502175) translate(46.630316, 5.103992)">
                    <path d="M45.067734,0.257439446 C44.6941708,0.0429065744 44.4006568,-0.0375432526 44.1871921,0.0160899654 C44.1871921,0.0160899654 0.682040451,8.86557093 0.682040451,8.86557093 C0.201744885,9.02647059 -0.118452159,9.50916955 0.0416463627,9.99186851 C0.190153343,10.4396188 0.521941929,10.7963668 1.16233602,10.7963668 C1.16233602,10.7963668 15.6640532,8.1683391 44.6674877,2.91228374 C45.3078818,2.48334444 45.6280788,1.94701226 45.6280788,1.3032872 C45.6280788,0.498788927 45.067734,0.257439446 45.067734,0.257439446 Z" id="蒙版" fill="url(#linearGradient-4)"></path>
                    <path d="M41.6323896,1.02592756 L45.067734,0.257439446 L45.1017749,0.274816609 C45.1660745,0.310657007 45.309803,0.405145329 45.4308374,0.587605536 L44.606051,0.786066287 L44.606051,0.786066287 L43.0566665,1.13736893 L43.0566665,1.13736893 L40.8600407,1.6094984 L40.8600407,1.6094984 L37.4202301,2.31506924 L37.4202301,2.31506924 L33.7812421,3.0353157 L33.7812421,3.0353157 L29.0333298,3.95029942 L29.0333298,3.95029942 L27.296798,4.2799308 L27.296798,4.2799308 L30.0504926,3.66207612 L30.0504926,3.66207612 L33.1323892,2.96216263 L33.1323892,2.96216263 L41.6323896,1.02592756 L41.6323896,1.02592756 Z" id="路径" fill="#FFFFFF"></path>
                    <path d="M18.5987008,6.02883424 L0.00672252661,9.84013047 C-0.013331284,9.68695195 0.0122642222,9.53722808 0.0730473739,9.40147289 L18.5987008,6.02883424 Z" id="路径" fill="#FFFFFF"></path>
                    <path d="M3.08351828,8.38287197 C3.721117,8.81006481 3.98840665,9.4499217 3.88538723,10.3024426 L1.16233602,10.7963668 L1.16233602,10.7963668 C0.521941929,10.7963668 0.190153343,10.4396188 0.0416463627,9.99186851 C-0.118452159,9.50916955 0.201744885,9.02647059 0.682040451,8.86557093 L3.03457335,8.38703691 L3.03457335,8.38703691 L3.08351828,8.38287197 Z" id="路径" fill="url(#linearGradient-5)"></path>
                    <path d="M0.834710415,8.83287607 C1.39656771,8.90445905 1.7906043,9.52077938 1.71745749,10.2202094 C1.6984797,10.401674 1.64989918,10.5710956 1.57849754,10.7216808 L1.16233602,10.7963668 C0.521941929,10.7963668 0.190153343,10.4396188 0.0416463627,9.99186851 C-0.118452159,9.50916955 0.201744885,9.02647059 0.682040451,8.86557093 L0.834710415,8.83287607 Z" id="路径" fill="url(#linearGradient-6)"></path>
                    <ellipse id="椭圆形" fill="#FFFFFF" filter="url(#filter-7)" cx="1.04064039" cy="9.57352941" rx="1" ry="1"></ellipse>
                    <ellipse id="椭圆形" fill="#FFFFFF" cx="1.04064039" cy="9.57352941" rx="1" ry="1"></ellipse>
                </g>
            </g>
            <path d="M143.4,5.17934547 C144.283656,5.17934547 145,5.89568988 145,6.77934549 L145,79.5793454 C145,80.4630011 144.283656,81.1793455 143.4,81.1793455 L16.6,81.1793455 C15.7163444,81.1793455 15,80.4630011 15,79.5793454 L15,6.77934549 C15,5.89568988 15.7163444,5.17934547 16.6,5.17934547 L143.4,5.17934547 Z M143.504565,7.67934547 L16.5003348,7.67934547 L16.5003348,78.6793455 L143.504565,78.6793455 L143.504565,7.67934547 Z" id="形状" fill="url(#linearGradient-8)"></path>
            <path d="" id="形状结合" stroke="url(#linearGradient-9)" stroke-width="0.5" fill="#000000"></path>
            <g id="高光" transform="translate(15.079657, 5.259659)">
                <path d="M127.923545,0.100702969 C128.147512,0.0947146614 128.315395,0.0947146614 128.427194,0.100702969 C128.484687,0.103782446 128.570741,0.117384123 128.685359,0.141508 C129.230127,0.268625497 129.667926,0.674059852 129.840686,1.19974138 L2.84217094e-13,1.19974138 C0.204227429,0.578311447 0.778835364,0.124921941 1.46269369,0.100702969 L2.7519477,0.100614832 L127.923545,0.100702969 Z" id="路径" fill="url(#linearGradient-10)"></path>
                <path d="M127.923545,74.5947642 C128.147512,74.5887759 128.315395,74.5887759 128.427194,74.5947642 C128.484687,74.5978436 128.570741,74.6114453 128.685359,74.6355692 C129.230127,74.7626867 129.667926,75.168121 129.840686,75.6938026 L0,75.6938026 C0.204227429,75.0723726 0.778835364,74.6189831 1.46269369,74.5947642 L2.7519477,74.594676 L127.923545,74.5947642 Z" id="路径" fill="url(#linearGradient-10)" transform="translate(64.920343, 75.142038) scale(1, -1) translate(-64.920343, -75.142038) "></path>
                <path d="M1.23226004,0 L1.23226004,75.8393725 C0.594478577,75.6288359 0.134197062,75.0280133 0.134197062,74.3196862 L0.134197062,1.51968626 C0.134197062,0.861953937 0.53107245,0.296916827 1.09841247,0.0509856833 L1.23226004,0 Z" id="路径" fill="url(#linearGradient-11)"></path>
                <path d="M129.744436,0 L129.744436,75.8393725 C129.106654,75.6288359 128.646373,75.0280133 128.646373,74.3196862 L128.646373,1.51968626 C128.646373,0.861953937 129.043248,0.296916827 129.610588,0.0509856833 L129.744436,0 Z" id="路径" fill="url(#linearGradient-11)" transform="translate(129.195404, 37.919686) scale(-1, 1) translate(-129.195404, -37.919686) "></path>
            </g>
        </g>
    </g>
</svg>