<?xml version="1.0" encoding="UTF-8"?>
<svg width="36px" height="36px" viewBox="0 0 36 36" version="1.1" xmlns="http://www.w3.org/2000/svg" xmlns:xlink="http://www.w3.org/1999/xlink">
    <!-- Generator: Sketch 56.2 (81672) - https://sketch.com -->
    <title>webcam_disable</title>
    <desc>Created with Sketch.</desc>
    <g id="页面-1" stroke="none" stroke-width="1" fill="none" fill-rule="evenodd" opacity="0.400000006">
        <g id="按钮规范" transform="translate(-1350.000000, -1257.000000)">
            <g id="record备份-7" transform="translate(1075.000000, 1245.000000)">
                <g id="主工具栏" transform="translate(272.000000, 10.000000)">
                    <g id="Group-6">
                        <g id="webcam_normal" transform="translate(3.000000, 2.000000)">
                            <g id="编组" transform="translate(9.000000, 10.000000)">
                                <rect id="Rectangle-6" stroke="#000000" x="0.5" y="0.5" width="17" height="15" rx="2"></rect>
                                <path d="M6,5 L17,5 C17.5522847,5 18,5.44771525 18,6 L18,12 C18,14.209139 16.209139,16 14,16 L5,16 C4.44771525,16 4,15.5522847 4,15 L4,7 C4,5.8954305 4.8954305,5 6,5 Z M13,9.00014285 C13,7.89536462 12.1045714,7 11,7 C9.89542857,7 9,7.89536462 9,9.00014285 C9,10.1043497 9.89542857,11 11,11 C12.1045714,11 13,10.1043497 13,9.00014285 Z M11,12.5565625 C10.3233333,12.5565625 9.70033333,12.347317 9.19766667,12 C7.84033333,12.5477039 7,14.253131 7,15 L15,15 C15,14.2598513 14.1333333,12.5544242 12.8006667,12.0006109 C12.2986667,12.3479279 11.676,12.5565625 11,12.5565625 Z" id="Combined-Shape" fill="#000000"></path>
                            </g>
                        </g>
                    </g>
                </g>
            </g>
        </g>
    </g>
</svg>