<?xml version="1.0" encoding="UTF-8"?>
<svg width="36px" height="36px" viewBox="0 0 36 36" version="1.1" xmlns="http://www.w3.org/2000/svg" xmlns:xlink="http://www.w3.org/1999/xlink">
    <title>fast-icon/recording_normal</title>
    <g id="fast-icon/recording_normal" stroke="none" stroke-width="1" fill="none" fill-rule="evenodd">
        <path d="M21.1111111,9 C22.8293303,9 24.2222222,10.3928919 24.2222222,12.1111111 L24.222,13.731 L24.1531275,13.8096503 C23.6276047,14.4216093 23.1582522,15.0479151 22.7596406,15.6728483 C22.1888481,16.5667484 21.8724317,17.4551653 21.8724317,18.2876696 C21.8724317,19.1426472 22.159218,20.0129038 22.701461,20.8525627 C23.1365804,21.5551579 23.6500897,22.2452148 24.2225167,22.8933647 L24.2222222,23.8888889 C24.2222222,25.6071081 22.8293303,27 21.1111111,27 L7.11111111,27 C5.39289189,27 4,25.6071081 4,23.8888889 L4,12.1111111 C4,10.3928919 5.39289189,9 7.11111111,9 L21.1111111,9 Z M30.7742768,10.6859865 C31.3058628,10.6859865 31.6500472,10.8289722 31.8062767,11.0862792 C31.9626906,11.3719135 32.0563914,11.6862124 31.9625062,12.0865051 L31.9625062,12.0865051 L31.9625062,24.4033462 C31.9625062,24.8036389 31.8374488,25.1466024 31.6183218,25.4607327 C31.3993792,25.7752002 31.0557481,25.918186 30.6180474,25.918186 C30.4616334,25.918186 30.2740474,25.8608568 30.0241172,25.7465356 C29.7741869,25.6322145 29.5552443,25.5178933 29.305314,25.3750762 C29.0548304,25.2320904 28.8366256,25.0892732 28.6174986,24.9462875 C28.398556,24.8036389 28.2423265,24.6891491 28.1486257,24.6034926 C27.8986955,24.4033462 27.5235234,24.0605513 26.9919374,23.5746021 C26.4918924,23.0886528 25.9604909,22.5458802 25.4289049,21.9457784 C24.9035687,21.3537797 24.4329537,20.7228988 24.0219174,20.0596477 C23.6157577,19.4307127 23.4279872,18.8306109 23.4279872,18.2876696 C23.4279872,17.773393 23.6467454,17.144458 24.0846306,16.4586996 C24.5221468,15.7727726 25.0537328,15.0870142 25.6478475,14.4297518 C26.2417777,13.7724894 26.8982366,13.1723876 27.5546955,12.6007817 C28.2423265,12.0291759 28.8050846,11.6005558 29.2427854,11.3147529 C29.4301869,11.2004317 29.6491295,11.057446 29.9615885,10.9146288 C30.2742319,10.7718117 30.5243466,10.6859865 30.7742768,10.6859865 Z M13.3333333,12 C9.89689489,12 7.11111111,14.6862915 7.11111111,18 C7.11111111,21.3137085 9.89689489,24 13.3333333,24 C16.7697718,24 19.5555556,21.3137085 19.5555556,18 C19.5555556,14.6862915 16.7697718,12 13.3333333,12 Z M13.3333333,13.5 C15.9106622,13.5 18,15.5147186 18,18 C18,20.4852814 15.9106622,22.5 13.3333333,22.5 C10.7560045,22.5 8.66666667,20.4852814 8.66666667,18 C8.66666667,15.5147186 10.7560045,13.5 13.3333333,13.5 Z" id="形状结合" fill="#000000" fill-rule="nonzero"></path>
    </g>
</svg>