<?xml version="1.0" encoding="UTF-8"?>
<svg width="20px" height="20px" viewBox="0 0 20 20" version="1.1" xmlns="http://www.w3.org/2000/svg" xmlns:xlink="http://www.w3.org/1999/xlink">
    <title>icon_status/recording</title>
    <g id="icon_status/recording" stroke="none" stroke-width="1" fill="none" fill-rule="evenodd">
        <rect id="矩形" x="0" y="0" width="20" height="20"></rect>
        <path d="M12,3.5 C12.6903559,3.5 13.3153559,3.77982203 13.767767,4.23223305 C14.220178,4.68464406 14.5,5.30964406 14.5,6 L14.5,6 L14.5,7.33455794 C14.0499694,7.87155217 13.7435057,8.29129764 13.4855312,8.71072294 C13.173776,9.21703549 12.9894203,9.71836012 12.9894203,10.1917798 C12.9894203,10.6748457 13.1520964,11.1641554 13.4516464,11.6453496 C13.7475255,12.1408059 14.1028495,12.6263392 14.5009693,13.0764569 L14.5009693,13.0764569 L14.5,14 C14.5,14.6903559 14.220178,15.3153559 13.767767,15.767767 C13.3153559,16.220178 12.6903559,16.5 12,16.5 L12,16.5 L3,16.5 C2.30964406,16.5 1.68464406,16.220178 1.23223305,15.767767 C0.779822031,15.3153559 0.5,14.6903559 0.5,14 L0.5,14 L0.5,6 C0.5,5.30964406 0.779822031,4.68464406 1.23223305,4.23223305 C1.68464406,3.77982203 2.30964406,3.5 3,3.5 L3,3.5 Z M18.2120351,4.62399098 C18.8145188,4.62399098 19.1411945,4.85512047 19.3069481,5.13822427 C19.4415746,5.392148 19.5185595,5.64684353 19.496347,5.94962596 L19.496347,5.94962596 L19.4758968,14.2688975 C19.4758968,14.6408863 19.3661449,14.9605632 19.1697578,15.2525214 C18.9381459,15.5975067 18.5839586,15.7787907 18.1116019,15.7787907 C17.3450387,15.5393708 17.1906321,15.4522447 17.0129955,15.3469786 C16.8460087,15.2481256 16.6999596,15.149609 16.5538885,15.0507578 C16.0395512,14.65035 15.7899271,14.4142786 15.4365367,14.079262 C15.0960464,13.7364461 14.7458878,13.3654167 14.3958258,12.9555988 C14.0396918,12.5394092 13.7206791,12.0958677 13.4468002,11.6374035 C13.1272791,11.1243027 12.9894203,10.6331589 12.9894203,10.1917798 C12.9894203,9.77757211 13.1437652,9.26577518 13.4856586,8.71051595 C13.78071,8.23080948 14.1388854,7.75097688 14.5395076,7.29135803 C14.9345052,6.8380514 15.3706063,6.42367485 15.8158373,6.02181373 C16.2764689,5.6247235 16.653971,5.32768797 16.9471578,5.1291571 C17.8123556,4.65426127 18.0152233,4.62399098 18.2120351,4.62399098 Z" id="形状结合" stroke-opacity="0.1" stroke="#000000" fill-rule="nonzero"></path>
        <path d="M12,4 C13.1045695,4 14,4.8954305 14,6 L14,7.154 L13.9152156,7.25543549 C13.5936805,7.64780768 13.3057693,8.04860826 13.059769,8.44856551 C12.6928309,9.04449893 12.4894203,9.63677689 12.4894203,10.1917798 C12.4894203,10.7617648 12.673783,11.3419359 13.0223678,11.9017084 C13.3022354,12.3703531 13.6325498,12.8306299 14.0007733,13.2629288 L14,14 C14,15.1045695 13.1045695,16 12,16 L3,16 C1.8954305,16 1,15.1045695 1,14 L1,6 C1,4.8954305 1.8954305,4 3,4 L12,4 Z M18.2120351,5.12399098 C18.553769,5.12399098 18.7750304,5.21931483 18.8754636,5.39085278 C18.9760154,5.58127565 19.0362516,5.79080825 18.9758968,6.05767005 L18.9758968,6.05767005 L18.9758968,14.2688975 C18.9758968,14.5357593 18.8955028,14.7644016 18.7546354,14.9738218 C18.6138866,15.1834668 18.3929809,15.2787907 18.1116019,15.2787907 C18.0110501,15.2787907 17.8904591,15.2405712 17.7297896,15.1643571 C17.5691201,15.088143 17.4283713,15.0119289 17.2677019,14.9167174 C17.1066767,14.8213936 16.9664022,14.7261822 16.8255348,14.6308583 C16.684786,14.5357593 16.5843528,14.4594328 16.5241165,14.4023284 C16.3634471,14.2688975 16.122265,14.0403676 15.7805312,13.7164014 C15.4590737,13.3924352 15.1174584,13.0305868 14.7757246,12.6305189 C14.4380085,12.2358531 14.1354702,11.8152659 13.8712326,11.3730985 C13.6101299,10.9538085 13.4894203,10.5537406 13.4894203,10.1917798 C13.4894203,9.84892866 13.6300506,9.42963864 13.9115482,8.97246638 C14.1928087,8.51518171 14.5345425,8.05800945 14.9164734,7.61983452 C15.2982857,7.18165958 15.720295,6.7815917 16.1423043,6.40052114 C16.5843528,6.01945059 16.9461258,5.73370387 17.2275049,5.54316859 C17.3479773,5.46695448 17.4887261,5.37163064 17.6895926,5.2764192 C17.8905776,5.18120777 18.0513657,5.12399098 18.2120351,5.12399098 Z M7,6 C4.790861,6 3,7.790861 3,10 C3,12.209139 4.790861,14 7,14 C9.209139,14 11,12.209139 11,10 C11,7.790861 9.209139,6 7,6 Z M7,7 C8.65685425,7 10,8.34314575 10,10 C10,11.6568542 8.65685425,13 7,13 C5.34314575,13 4,11.6568542 4,10 C4,8.34314575 5.34314575,7 7,7 Z" id="形状结合" fill="#FF4E4E" fill-rule="nonzero"></path>
    </g>
</svg>