<?xml version="1.0" encoding="UTF-8"?>
<svg width="16px" height="16px" viewBox="0 0 16 16" version="1.1" xmlns="http://www.w3.org/2000/svg" xmlns:xlink="http://www.w3.org/1999/xlink">
    <title>screen-recording-2</title>
    <g id="screen-recording-2" stroke="none" stroke-width="1" fill="none" fill-rule="evenodd">
        <path d="M6,5 L10,5 C10.5522847,5 11,5.44771525 11,6 L11,10 C11,10.5522847 10.5522847,11 10,11 L6,11 C5.44771525,11 5,10.5522847 5,10 L5,6 C5,5.44771525 5.44771525,5 6,5 Z" id="路径" fill="#FF5736" fill-rule="nonzero" opacity="0.200074"></path>
        <path d="M8,0.5 C12.1421356,0.5 15.5,3.8578644 15.5,8 C15.5,12.1421356 12.1421356,15.5 8,15.5 C3.8578644,15.5 0.5,12.1421356 0.5,8 C0.5,3.85786438 3.85786438,0.5 8,0.5 Z M8,1.5 C4.41014912,1.5 1.5,4.41014913 1.5,8 C1.5,11.5898508 4.41014915,14.5 8,14.5 C11.5898508,14.5 14.5,11.5898508 14.5,8 C14.5,4.41014915 11.5898508,1.5 8,1.5 Z" id="形状结合" fill="#FF5736" fill-rule="nonzero"></path>
    </g>
</svg>