<?xml version="1.0" encoding="UTF-8"?>
<svg xmlns="http://www.w3.org/2000/svg" xmlns:xlink="http://www.w3.org/1999/xlink" width="36" height="36" viewBox="0 0 36 36">
<path fill-rule="nonzero" fill="rgb(0%, 0%, 0%)" fill-opacity="1" d="M 6.078125 25 L 8.03125 25 L 9.53125 20.296875 L 15.15625 20.296875 L 16.625 25 L 18.6875 25 L 13.453125 9.609375 L 11.296875 9.609375 Z M 10.015625 18.765625 L 10.765625 16.390625 C 11.3125 14.640625 11.8125 12.984375 12.296875 11.1875 L 12.390625 11.1875 C 12.890625 12.96875 13.375 14.640625 13.9375 16.390625 L 14.671875 18.765625 Z M 23.875 25.265625 C 25.28125 25.265625 26.5625 24.53125 27.65625 23.640625 L 27.71875 23.640625 L 27.875 25 L 29.453125 25 L 29.453125 17.984375 C 29.453125 15.15625 28.296875 13.296875 25.5 13.296875 C 23.65625 13.296875 22.0625 14.125 21.03125 14.796875 L 21.765625 16.109375 C 22.671875 15.515625 23.875 14.90625 25.1875 14.90625 C 27.0625 14.90625 27.546875 16.3125 27.546875 17.78125 C 22.6875 18.328125 20.546875 19.5625 20.546875 22.03125 C 20.546875 24.09375 21.953125 25.265625 23.875 25.265625 Z M 24.421875 23.71875 C 23.28125 23.71875 22.40625 23.21875 22.40625 21.90625 C 22.40625 20.4375 23.703125 19.5 27.546875 19.0625 L 27.546875 22.234375 C 26.4375 23.21875 25.5 23.71875 24.421875 23.71875 Z M 6 0.640625 "/>
</svg>
