<?xml version="1.0" encoding="UTF-8"?>
<svg width="24px" height="24px" viewBox="0 0 24 24" version="1.1" xmlns="http://www.w3.org/2000/svg" xmlns:xlink="http://www.w3.org/1999/xlink">
    <title>Aa大</title>
    <g id="icon" stroke="none" stroke-width="1" fill="none" fill-rule="evenodd">
        <g id="画板" transform="translate(-810, -385)">
            <g id="Aa大" transform="translate(804, 379)">
                <rect id="矩形-3" x="6" y="6" width="24" height="24"></rect>
                <g id="Aa" transform="translate(9, 5)" fill="#000000" fill-rule="nonzero">
                    <path d="M3.808,12.6 C4.192,11.32 4.56,10.024 4.896,8.68 L4.976,8.68 C5.328,10.008 5.68,11.32 6.08,12.6 L6.544,14.184 L3.328,14.184 L3.808,12.6 Z M0,19 L1.888,19 L2.896,15.64 L6.992,15.64 L7.984,19 L9.952,19 L6.048,7.208 L3.904,7.208 L0,19 Z" id="形状"></path>
                    <path d="M13.424,19.208 C14.48,19.208 15.424,18.68 16.224,17.992 L16.288,17.992 L16.432,19 L17.936,19 L17.936,13.704 C17.936,11.368 16.928,9.976 14.736,9.976 C13.328,9.976 12.096,10.552 11.184,11.128 L11.872,12.376 C12.624,11.896 13.488,11.48 14.416,11.48 C15.712,11.48 16.08,12.376 16.096,13.4 C12.432,13.8 10.832,14.776 10.832,16.664 C10.832,18.216 11.904,19.208 13.424,19.208 Z M13.984,17.752 C13.2,17.752 12.608,17.4 12.608,16.536 C12.608,15.544 13.488,14.872 16.096,14.568 L16.096,16.728 C15.376,17.384 14.752,17.752 13.984,17.752 Z" id="形状"></path>
                </g>
            </g>
        </g>
    </g>
</svg>