<?xml version="1.0" encoding="UTF-8"?>
<svg width="24px" height="24px" viewBox="0 0 24 24" version="1.1" xmlns="http://www.w3.org/2000/svg" xmlns:xlink="http://www.w3.org/1999/xlink">
    <title>Aa小</title>
    <g id="icon" stroke="none" stroke-width="1" fill="none" fill-rule="evenodd">
        <g id="画板" transform="translate(-655, -385)">
            <g id="Aa小" transform="translate(649, 379)">
                <rect id="矩形-3" x="6" y="6" width="24" height="24"></rect>
                <g id="Aa" transform="translate(11, 8)" fill="#000000" fill-rule="nonzero">
                    <path d="M2.856,9.2 C3.144,8.24 3.42,7.268 3.672,6.26 L3.732,6.26 C3.996,7.256 4.26,8.24 4.56,9.2 L4.908,10.388 L2.496,10.388 L2.856,9.2 Z M0,14 L1.416,14 L2.172,11.48 L5.244,11.48 L5.988,14 L7.464,14 L4.536,5.156 L2.928,5.156 L0,14 Z" id="形状"></path>
                    <path d="M10.068,14.156 C10.86,14.156 11.568,13.76 12.168,13.244 L12.216,13.244 L12.324,14 L13.452,14 L13.452,10.028 C13.452,8.276 12.696,7.232 11.052,7.232 C9.996,7.232 9.072,7.664 8.388,8.096 L8.904,9.032 C9.468,8.672 10.116,8.36 10.812,8.36 C11.784,8.36 12.06,9.032 12.072,9.8 C9.324,10.1 8.124,10.832 8.124,12.248 C8.124,13.412 8.928,14.156 10.068,14.156 Z M10.488,13.064 C9.9,13.064 9.456,12.8 9.456,12.152 C9.456,11.408 10.116,10.904 12.072,10.676 L12.072,12.296 C11.532,12.788 11.064,13.064 10.488,13.064 Z" id="形状"></path>
                </g>
            </g>
        </g>
    </g>
</svg>