<?xml version="1.0" encoding="UTF-8"?>
<svg width="24px" height="24px" viewBox="0 0 24 24" version="1.1" xmlns="http://www.w3.org/2000/svg" xmlns:xlink="http://www.w3.org/1999/xlink">
    <title>编组</title>
    <g id="V25-2.4--AI功能" stroke="none" stroke-width="1" fill="none" fill-rule="evenodd">
        <g id="截图录屏-工具栏2" transform="translate(-1201, -876)">
            <g id="编组-3" transform="translate(861, 860)">
                <g id="编组" transform="translate(334, 10)">
                    <g transform="translate(6, 6)">
                        <g id="编组" fill="#000000" transform="translate(1.6614, 3)">
                            <path d="M14.224043,-1 C15.3560027,-1 16.3915868,-0.362855627 16.9018929,0.647550525 L20.3926843,7.55931753 C20.8591622,8.48294372 20.8167354,9.58176471 20.2804279,10.4666721 L15.9845291,17.5549051 C15.4408114,18.4520394 14.4679727,19 13.4189356,19 L6.58106441,19 L6.55264017,18.999 L6.5,19 L6.46364017,18.996 L6.38534907,18.9936271 C5.41209876,18.930141 4.52520627,18.3959685 4.01547092,17.5549051 L-0.226953327,10.5549051 C-0.806162001,9.59921084 -0.806162001,8.40078916 -0.226953327,7.44509485 L4.01547092,0.445094852 C4.55918863,-0.452039374 5.53202734,-1 6.58106441,-1 L14.224043,-1 Z M14.4766402,4.999 L15.5377511,7.65179523 C15.9046442,8.56902813 15.7964547,9.60809362 15.2484719,10.4300678 L10.8686402,17 L13.4189356,17 C13.7686146,17 14.0928942,16.8173465 14.2741334,16.5183017 L18.5700322,9.43006872 C18.7488014,9.13509957 18.7629437,8.76882591 18.607451,8.46095051 L16.8596402,5 L14.4766402,4.999 Z M12.8196402,6.241 L7.85749293,14.5144958 C7.69936009,14.7780505 7.43037732,14.9520986 7.13028378,14.9914926 L7.01627269,14.9989374 L6.98369265,15 L4.80564017,15 L5.72586658,16.5183017 C5.90466606,16.8133209 6.2226807,16.9950613 6.56695685,16.9999009 L7.92963248,17 C8.26398567,17 8.576217,16.8328989 8.76168278,16.5547002 L13.5843713,9.32066745 C13.7670322,9.04667604 13.8030954,8.70032088 13.6807977,8.39457658 L12.8196402,6.241 Z M9.13064017,1 L6.58106441,1 C6.23138539,1 5.90710582,1.18265354 5.72586658,1.48169828 L1.48344234,8.48169828 C1.29037278,8.80026305 1.29037278,9.19973695 1.48344234,9.51830172 L3.59264017,12.999 L5.88196601,13 L4.36510094,9.96626985 C4.04412961,9.32432721 4.0917388,8.55961616 4.48985473,7.96244227 L9.13064017,1 Z M14.224043,1 L12.0703675,1 C11.7360143,1 11.423783,1.16710114 11.2383172,1.4452998 L6.31490361,8.83041355 C6.21537442,8.9797072 6.20347217,9.17088528 6.28371528,9.33137109 L7.35164017,11.468 L12.1425071,3.48550424 C12.3006399,3.22194951 12.5696227,3.04790137 12.8697162,3.00850738 L12.9837273,3.00106259 L13.0000087,3.00026572 L15.8496402,3 L15.1166596,1.54918351 C14.9465576,1.21238146 14.6013629,1 14.224043,1 Z" id="形状结合" fill-rule="nonzero"></path>
                        </g>
                        <circle id="椭圆形" fill="#FF4040" cx="21" cy="3" r="3"></circle>
                        <path d="M21,0 C22.6568542,0 24,1.34314575 24,3 C24,4.65685425 22.6568542,6 21,6 C19.3431458,6 18,4.65685425 18,3 C18,1.34314575 19.3431458,0 21,0 Z M21,1 C19.8954305,1 19,1.8954305 19,3 C19,4.1045695 19.8954305,5 21,5 C22.1045695,5 23,4.1045695 23,3 C23,1.8954305 22.1045695,1 21,1 Z" id="椭圆形" fill-opacity="0.1" fill="#000000" fill-rule="nonzero"></path>
                    </g>
                </g>
            </g>
        </g>
    </g>
</svg>