<?xml version="1.0" encoding="UTF-8"?>
<svg width="36px" height="36px" viewBox="0 0 36 36" version="1.1" xmlns="http://www.w3.org/2000/svg" xmlns:xlink="http://www.w3.org/1999/xlink">
    <title>箭头</title>
    <g id="icon" stroke="none" stroke-width="1" fill="none" fill-rule="evenodd">
        <g id="画板" transform="translate(-211.000000, -91.000000)">
            <g id="箭头" transform="translate(211.000000, 91.000000)">
                <rect id="占位" fill="#D8D8D8" opacity="0" x="0" y="0" width="36" height="36" rx="8"></rect>
                <path d="M23.9393398,10.3535534 C24.134602,10.1582912 24.4511845,10.1582912 24.6464466,10.3535534 L24.6464466,10.3535534 L25.3535534,11.0606602 C25.5488155,11.2559223 25.5488155,11.5725048 25.3535534,11.767767 L25.3535534,11.767767 L16.2065389,20.9141068 L18.3559413,23.0630481 C18.5512034,23.2583102 18.5512034,23.5748927 18.3559413,23.7701548 C18.2887011,23.837395 18.2036807,23.8840666 18.1108531,23.904695 L10.7670041,25.5366614 C10.4974375,25.5965651 10.2303491,25.4265997 10.1704454,25.1570331 C10.1545701,25.0855943 10.1545701,25.0115415 10.1704454,24.9401027 L11.8024118,17.5962537 C11.8623155,17.3266871 12.1294039,17.1567217 12.3989706,17.2166254 C12.4917982,17.2372537 12.5768185,17.2839253 12.6440587,17.3511655 L14.7925389,19.4991068 Z" id="形状结合" fill="#000000" fill-rule="nonzero"></path>
            </g>
        </g>
    </g>
</svg>