<?xml version="1.0" encoding="UTF-8"?>
<svg width="24px" height="24px" viewBox="0 0 24 24" version="1.1" xmlns="http://www.w3.org/2000/svg" xmlns:xlink="http://www.w3.org/1999/xlink">
    <title>图标/AI/问问ai</title>
    <g id="图标/AI/问问ai" stroke="none" fill="none" fill-rule="evenodd">
        <path d="M12,2.5 C17.2445054,2.5 21.5,6.71365463 21.5,11.9164282 C21.5,17.1192017 17.2445054,21.3328563 12,21.3328563 C10.8544676,21.3328563 9.73637875,21.1313239 8.68660788,20.7440194 L8.351,20.613 L8.29876176,20.6304893 C8.22212377,20.6556403 8.13445881,20.6846939 8.0358862,20.717614 L7.87986147,20.7698893 C7.32630402,20.9558946 6.5,21.2387257 5.40189976,21.6180608 C4.71122223,21.8566549 4.0062048,21.298024 4.08057671,20.5710911 C4.1969417,19.4337057 4.28155816,18.5781296 4.33432266,18.0055778 C4.34993526,17.8361642 4.36270916,17.6920483 4.37261546,17.5737249 L4.375,17.533 L4.21033479,17.3079416 C3.17120034,15.8358478 2.57304663,14.094013 2.50627123,12.2611192 L2.5,11.9164282 C2.5,6.71365463 6.75549457,2.5 12,2.5 Z M12,4.5 C7.85566468,4.5 4.5,7.82267186 4.5,11.9164282 C4.5,13.638941 5.09445752,15.2690146 6.16788602,16.5798566 C6.4218404,17.1511709 6.4218404,17.1511709 6.39617027,17.2017928 L6.39642676,17.2765296 L6.39540869,17.3114414 C6.39351733,17.3644952 6.38951066,17.4314135 6.38335914,17.5162519 C6.37211169,17.6713708 6.35299775,17.8948947 6.32588351,18.1891135 C6.30448112,18.4213526 6.27800826,18.6985264 6.24645833,19.0207127 L6.226,19.219 L6.4406909,19.1460851 C6.67377605,19.0665155 6.88243611,18.9956214 7.06669745,18.933394 L7.24282686,18.8740552 C7.52597694,18.7789116 7.74098832,18.7079897 7.88972534,18.6607207 C7.97002513,18.6352013 8.03309246,18.6158955 8.0823161,18.6019278 C8.12427715,18.5901655 8.12427715,18.5901655 8.17993946,18.5767791 C8.20750338,18.5415958 8.20750338,18.5415958 8.83475116,18.642228 C9.81686569,19.0950554 10.8904084,19.3328563 12,19.3328563 C16.1443353,19.3328563 19.5,16.0101845 19.5,11.9164282 C19.5,7.82267186 16.1443353,4.5 12,4.5 Z M8,11 C8.55228475,11 9,11.4477153 9,12 C9,12.5522847 8.55228475,13 8,13 C7.44771525,13 7,12.5522847 7,12 C7,11.4477153 7.44771525,11 8,11 Z M12,11 C12.5522847,11 13,11.4477153 13,12 C13,12.5522847 12.5522847,13 12,13 C11.4477153,13 11,12.5522847 11,12 C11,11.4477153 11.4477153,11 12,11 Z M16,11 C16.5522847,11 17,11.4477153 17,12 C17,12.5522847 16.5522847,13 16,13 C15.4477153,13 15,12.5522847 15,12 C15,11.4477153 15.4477153,11 16,11 Z" id="形状结合" fill="#000000"></path>
    </g>
</svg>