<?xml version="1.0" encoding="UTF-8"?>
<svg width="36px" height="36px" viewBox="0 0 36 36" version="1.1" xmlns="http://www.w3.org/2000/svg" xmlns:xlink="http://www.w3.org/1999/xlink">
    <title>上一步</title>
    <g id="icon" stroke="none" stroke-width="1" fill="none" fill-rule="evenodd">
        <g id="画板" transform="translate(-499.000000, -91.000000)">
            <g id="上一步" transform="translate(499.000000, 91.000000)">
                <rect id="占位" fill="#D8D8D8" opacity="0" x="0" y="0" width="36" height="36" rx="8"></rect>
                <g id="编组" transform="translate(9.666667, 8.875000)" fill="#000000" fill-rule="nonzero">
                    <path d="M3.33333333,5.125 L4.94555488,6.71812586 C5.14197681,6.9122213 5.1438628,7.22879817 4.94976736,7.42522009 C4.94906947,7.42592635 4.94836948,7.42663052 4.94766739,7.42733261 L4.47855339,7.89644661 C4.28329124,8.09170876 3.96670876,8.09170876 3.77144661,7.89644661 L0,4.125 L0,4.125 L3.77144661,0.353553391 C3.96670876,0.158291245 4.28329124,0.158291245 4.47855339,0.353553391 L4.94766739,0.822667393 C5.14292954,1.01792954 5.14292954,1.33451203 4.94766739,1.52977417 C4.94696531,1.53047626 4.94626114,1.53117625 4.94555488,1.53187414 L3.33333333,3.125 L3.33333333,3.125 L9.33333333,3.125 C13.0152317,3.125 16.3333333,6.44310167 16.3333333,10.125 C16.3333333,13.8068983 13.0152317,17.125 9.33333333,17.125 L2.83333333,17.125 C2.55719096,17.125 2.33333333,16.9011424 2.33333333,16.625 L2.33333333,15.625 C2.33333333,15.3488576 2.55719096,15.125 2.83333333,15.125 L9.33333333,15.125 L9.33333333,15.125 C12.0947571,15.125 14.3333333,12.8864237 14.3333333,10.125 C14.3333333,7.36357625 12.0947571,5.125 9.33333333,5.125 L3.33333333,5.125 Z" id="路径"></path>
                </g>
            </g>
        </g>
    </g>
</svg>