<?xml version="1.0" encoding="UTF-8"?>
<svg width="36px" height="36px" viewBox="0 0 36 36" version="1.1" xmlns="http://www.w3.org/2000/svg" xmlns:xlink="http://www.w3.org/1999/xlink">
    <title>涂鸦笔</title>
    <g id="icon" stroke="none" stroke-width="1" fill="none" fill-rule="evenodd">
        <g id="画板" transform="translate(-247.000000, -91.000000)">
            <g id="涂鸦笔" transform="translate(247.000000, 91.000000)">
                <rect id="占位" fill="#D8D8D8" opacity="0" x="0" y="0" width="36" height="36" rx="8"></rect>
                <path d="M21.7486908,15.6676078 L20.3323922,14.2513092 L11.0032512,23.5804502 L11.0032512,24.9967488 L12.4195498,24.9967488 L21.7486908,15.6676078 Z M23.1649894,14.2513092 L24.581288,12.8350106 L23.1649894,11.418712 L21.7486908,12.8350106 L23.1649894,14.2513092 Z M9,26.5 L9,22.7501025 L9,22.7501025 L22.4568401,9.29326241 C22.8479748,8.90224586 23.4820041,8.90224586 23.8731387,9.29326241 L26.7067376,12.1268613 C27.0977541,12.5179959 27.0977541,13.1520252 26.7067376,13.5431599 L13.2498975,27 L9.5,27 C9.22385763,27 9,26.7761424 9,26.5 Z" id="形状" fill="#000000" fill-rule="nonzero"></path>
            </g>
        </g>
    </g>
</svg>