<?xml version="1.0" encoding="UTF-8"?>
<svg width="36px" height="36px" viewBox="0 0 36 36" version="1.1" xmlns="http://www.w3.org/2000/svg" xmlns:xlink="http://www.w3.org/1999/xlink">
    <title>成功</title>
    <g id="icon" stroke="none" stroke-width="1" fill="none" fill-rule="evenodd">
        <g id="画板" transform="translate(-683.000000, -91.000000)">
            <g id="成功" transform="translate(683.000000, 91.000000)">
                <rect id="占位" fill="#FF6969" opacity="0" x="0" y="0" width="36" height="36" rx="8"></rect>
                <path d="M28.1397918,9.69096432 L29.201514,10.7526865 C29.3967761,10.9479486 29.3967761,11.2645311 29.201514,11.4597933 L14.3522716,26.3090357 C14.1570094,26.5042978 13.8404269,26.5042978 13.6451648,26.3090357 L12.5834426,25.2473135 C12.5566083,25.2204792 12.5334618,25.1913537 12.514003,25.1605666 L6.79848603,19.4429904 C6.60322389,19.2477283 6.60322389,18.9311458 6.79848603,18.7358836 L7.86020822,17.6741615 C8.05547036,17.4788993 8.37205285,17.4788993 8.567315,17.6741615 L14.0079326,23.1144109 L27.432685,9.69096432 C27.6279471,9.49570217 27.9445296,9.49570217 28.1397918,9.69096432 Z" id="形状结合" fill="#000000" fill-rule="nonzero"></path>
            </g>
        </g>
    </g>
</svg>