<?xml version="1.0" encoding="UTF-8"?>
<svg width="36px" height="36px" viewBox="0 0 36 36" version="1.1" xmlns="http://www.w3.org/2000/svg" xmlns:xlink="http://www.w3.org/1999/xlink">
    <title>涂鸦笔</title>
    <g id="icon" stroke="none" stroke-width="1" fill="none" fill-rule="evenodd">
        <g id="画板" transform="translate(-481.000000, -288.000000)">
            <g id="涂鸦笔" transform="translate(481.000000, 288.000000)">
                <rect id="占位" fill="#D8D8D8" opacity="0" x="0" y="0" width="36" height="36" rx="8"></rect>
                <path d="M21.456,15.5133057 L21.314,15.3713057 C20.6447825,14.7260225 19.8222756,14.2617707 18.924,14.0223057 C16.017,13.2443057 13.225,14.8913057 12.432,17.8523057 C12.389,18.0123057 12.366,18.1923057 12.328,18.6433057 C12.174,20.5133057 11.734,21.9083057 10.528,23.3233057 C12.788,24.2113057 15.466,24.8373057 17.502,24.8373057 C19.9902073,24.8342175 22.1670111,23.162465 22.812,20.7593057 C23.3130855,18.8938496 22.798299,16.9022789 21.456,15.5133057 L21.456,15.5133057 Z M19.29,12.0513057 L24.229,8.21030571 C24.62684,7.90123914 25.1924704,7.93637679 25.549,8.29230571 L28.544,11.2863057 C28.9005078,11.6429737 28.9356612,12.2092858 28.626,12.6073057 L24.786,17.5453057 C25.3345936,19.7830076 24.8249687,22.1486937 23.4036838,23.962037 C21.9823989,25.7753804 19.8069664,26.835419 17.503,26.8373057 C14,26.8373057 9.5,25.3353057 7,23.8353057 C10.98,20.8353057 10.047,19.0253057 10.5,17.3353057 C11.558,13.3853057 15.342,11.0783057 19.289,12.0513057 L19.29,12.0513057 Z M22.703,13.9303057 C22.768,13.9933057 22.833,14.0583057 22.896,14.1243057 L24.031,15.2583057 L26.506,12.0763057 L24.76,10.3303057 L21.578,12.8053057 L22.703,13.9303057 L22.703,13.9303057 Z" id="形状" fill="#000000" fill-rule="nonzero"></path>
            </g>
        </g>
    </g>
</svg>