<?xml version="1.0" encoding="UTF-8"?>
<svg width="24px" height="24px" viewBox="0 0 24 24" version="1.1" xmlns="http://www.w3.org/2000/svg" xmlns:xlink="http://www.w3.org/1999/xlink">
    <title>图标/AI/解释</title>
    <g id="图标/AI/解释" stroke="none" fill="none" fill-rule="nonzero">
        <path d="M19,2 C20.1045695,2 21,2.8954305 21,4 L21,17 C21,17.1552451 20.9638549,17.3083582 20.8944272,17.4472136 L20.118,19 L20.8944272,20.5527864 C21.2093803,21.1826927 20.7920161,21.9179766 20.1151353,21.99363 L20,22 L7,22 C5.34314575,22 4,20.6568542 4,19 L4,5 C4,3.34314575 5.34314575,2 7,2 L19,2 Z M18.381,18 L7,18 C6.48716416,18 6.06449284,18.3860402 6.00672773,18.8833789 L6,19 C6,19.5522847 6.44771525,20 7,20 L18.381,20 L18.1055728,19.4472136 C17.9849182,19.2059043 17.9676818,18.9279744 18.0538637,18.6762021 L18.1055728,18.5527864 L18.381,18 Z M19,4 L7,4 C6.44771525,4 6,4.44771525 6,5 L6.00008893,16.1706743 C6.31284272,16.0601428 6.64939781,16 7,16 L19,16 L19,4 Z M12,13 C12.5522847,13 13,13.4477153 13,14 C13,14.5522847 12.5522847,15 12,15 C11.4477153,15 11,14.5522847 11,14 C11,13.4477153 11.4477153,13 12,13 Z M12.5,5.25998438 C14.5411021,5.25998438 16.0118416,6.73123088 15.7225946,8.80507748 C15.5346677,10.1524785 14.5141102,10.9255281 12.8289759,11.2950525 L12.8,11.3007721 L12.8,11.5 C12.8,11.7761424 12.5761424,12 12.3,12 L11.7,12 C11.4238576,12 11.2,11.7761424 11.2,11.5 L11.2,10.6976101 C11.2,10.2953896 11.498639,9.95570814 11.8975476,9.90419755 C13.3797459,9.71280303 14.0438159,9.2588644 14.1379335,8.58405902 C14.2852874,7.52755902 13.6179428,6.85998438 12.5,6.85998438 C11.8047577,6.85998438 11.3018645,7.10275469 10.9573491,7.70209249 C10.8469831,7.89409112 10.7804644,8.18893632 10.7804644,8.58219476 C10.7804644,8.81143639 10.5946273,8.99727345 10.3653857,8.99727345 L9.59554307,8.99727345 C9.39495664,8.99727345 9.22760184,8.85499195 9.1888973,8.66584759 L9.18046438,8.58219476 C9.18046438,7.92693188 9.30828977,7.36034422 9.57019513,6.90471933 C10.225569,5.76459517 11.2708589,5.25998438 12.5,5.25998438 Z" id="形状结合" fill="#000000"></path>
    </g>
</svg>