<?xml version="1.0" encoding="UTF-8"?>
<svg width="36px" height="36px" viewBox="0 0 36 36" version="1.1" xmlns="http://www.w3.org/2000/svg" xmlns:xlink="http://www.w3.org/1999/xlink">
    <title>形状</title>
    <g id="icon" stroke="none" stroke-width="1" fill="none" fill-rule="evenodd">
        <g id="画板" transform="translate(-150, -135)">
            <g id="形状" transform="translate(150, 135)">
                <rect fill="#D8D8D8" opacity="0" x="0" y="0" width="36" height="36" rx="8"></rect>
                <path d="M23,9 C23.5522847,9 24,9.44771525 24,10 L24.0010432,14.2901893 L23.9571206,14.2772672 C26.8706198,15.123994 29,17.8133253 29,21 C29,24.8659932 25.8659932,28 22,28 C19.5942596,28 17.4719705,26.7864009 16.2119475,24.9380175 L16.255617,25.0013298 L9,25 C8.44771525,25 8,24.5522847 8,24 L8,10 C8,9.44771525 8.44771525,9 9,9 L23,9 Z M22,16 C19.2385763,16 17,18.2385763 17,21 C17,23.7614237 19.2385763,26 22,26 C24.7614237,26 27,23.7614237 27,21 C27,18.2385763 24.7614237,16 22,16 Z M22,11 L10,11 L10,23 L15.2901893,23.0010432 L15.2979562,23.0269411 C15.1041708,22.3853285 15,21.7048295 15,21 C15,17.1340068 18.1340068,14 22,14 L22,11 Z" id="形状结合" fill="#000000" fill-rule="nonzero"></path>
            </g>
        </g>
    </g>
</svg>