<?xml version="1.0" encoding="UTF-8"?>
<svg width="36px" height="36px" viewBox="0 0 36 36" version="1.1" xmlns="http://www.w3.org/2000/svg" xmlns:xlink="http://www.w3.org/1999/xlink">
    <!-- Generator: Sketch 56.2 (81672) - https://sketch.com -->
    <title>key_mormal</title>
    <desc>Created with Sketch.</desc>
    <g id="页面-1" stroke="none" stroke-width="1" fill="none" fill-rule="evenodd">
        <g id="按钮规范" transform="translate(-359.000000, -287.000000)" fill="#000000">
            <g id="record" transform="translate(136.000000, 204.000000)">
                <g id="主工具栏" transform="translate(158.000000, 0.000000)">
                    <g id="Group-5" transform="translate(62.000000, 81.000000)">
                        <g id="key_mormal" transform="translate(3.000000, 2.000000)">
                            <path d="M13,10 L23,10 C25.209139,10 27,11.790861 27,14 L27,22 C27,24.209139 25.209139,26 23,26 L13,26 C10.790861,26 9,24.209139 9,22 L9,14 C9,11.790861 10.790861,10 13,10 Z M14,14 C12.8954305,14 12,14.8954305 12,16 L12,22.5 C12,22.7761424 12.2238576,23 12.5,23 C12.7761424,23 13,22.7761424 13,22.5 L13,19 L17.5,19 C17.7761424,19 18,18.7761424 18,18.5 C18,18.2238576 17.7761424,18 17.5,18 L13,18 L13,16 C13,15.4477153 13.4477153,15 14,15 L17.5,15 C17.7761424,15 18,14.7761424 18,14.5 C18,14.2238576 17.7761424,14 17.5,14 L14,14 Z M21,17 C19.8954305,17 19,17.8954305 19,19 L19,22.5 C19,22.7761424 19.2238576,23 19.5,23 C19.7761424,23 20,22.7761424 20,22.5 L20,19 C20,18.4477153 20.4477153,18 21,18 L22,18 C22.5522847,18 23,18.4477153 23,19 L23,22.5 C23,22.7761424 23.2238576,23 23.5,23 C23.7761424,23 24,22.7761424 24,22.5 L24,19 C24,17.8954305 23.1045695,17 22,17 L21,17 Z" id="Combined-Shape"></path>
                        </g>
                    </g>
                </g>
            </g>
        </g>
    </g>
</svg>