<?xml version="1.0" encoding="UTF-8"?>
<svg width="36px" height="36px" viewBox="0 0 36 36" version="1.1" xmlns="http://www.w3.org/2000/svg" xmlns:xlink="http://www.w3.org/1999/xlink">
    <title>按键</title>
    <g id="icon" stroke="none" stroke-width="1" fill="none" fill-rule="evenodd">
        <g id="画板" transform="translate(-103.000000, -281.000000)">
            <g id="按键" transform="translate(103.000000, 281.000000)">
                <rect id="占位" fill="#D8D8D8" opacity="0" x="0" y="0" width="36" height="36" rx="8"></rect>
                <path d="M26,10 C26.5522847,10 27,10.4477153 27,11 L27,25 C27,25.5522847 26.5522847,26 26,26 L10,26 C9.44771525,26 9,25.5522847 9,25 L9,11 C9,10.4477153 9.44771525,10 10,10 L26,10 Z M17.75,14 L13,14 C12.4477153,14 12,14.4477153 12,15 L12,15 L12,22.75 C12,22.8880712 12.1119288,23 12.25,23 L12.25,23 L12.75,23 C12.8880712,23 13,22.8880712 13,22.75 L13,22.75 L13,19 L17.75,19 C17.8880712,19 18,18.8880712 18,18.75 L18,18.75 L18,18.25 C18,18.1119288 17.8880712,18 17.75,18 L17.75,18 L13,18 L13,15.5 C13,15.2238576 13.2238576,15 13.5,15 L13.5,15 L17.75,15 C17.8880712,15 18,14.8880712 18,14.75 L18,14.75 L18,14.25 C18,14.1119288 17.8880712,14 17.75,14 L17.75,14 Z M23,17 L20,17 C19.4477153,17 19,17.4477153 19,18 L19,18 L19,22.75 C19,22.8880712 19.1119288,23 19.25,23 L19.25,23 L19.75,23 C19.8880712,23 20,22.8880712 20,22.75 L20,22.75 L20,18.5 C20,18.2238576 20.2238576,18 20.5,18 L20.5,18 L22.5,18 C22.7761424,18 23,18.2238576 23,18.5 L23,18.5 L23,22.75 C23,22.8880712 23.1119288,23 23.25,23 L23.25,23 L23.75,23 C23.8880712,23 24,22.8880712 24,22.75 L24,22.75 L24,18 C24,17.4477153 23.5522847,17 23,17 L23,17 Z" id="Combined-Shape" fill="#000000" fill-rule="nonzero"></path>
            </g>
        </g>
    </g>
</svg>