<?xml version="1.0" encoding="UTF-8"?>
<svg width="36px" height="36px" viewBox="0 0 36 36" version="1.1" xmlns="http://www.w3.org/2000/svg" xmlns:xlink="http://www.w3.org/1999/xlink">
    <title>马赛克</title>
    <g id="icon" stroke="none" stroke-width="1" fill="none" fill-rule="evenodd">
        <g id="画板" transform="translate(-283.000000, -91.000000)">
            <g id="马赛克" transform="translate(283.000000, 91.000000)">
                <rect id="占位" fill="#D8D8D8" opacity="0" x="0" y="0" width="36" height="36" rx="8"></rect>
                <path d="M26.5,9 C26.7761424,9 27,9.22385763 27,9.5 L27,26.5 C27,26.7761424 26.7761424,27 26.5,27 L9.5,27 C9.22385763,27 9,26.7761424 9,26.5 L9,9.5 C9,9.22385763 9.22385763,9 9.5,9 L26.5,9 Z M25,18 L18,18 L18,25 L25,25 L25,18 Z M18,11 L11,11 L11,18 L18,18 L18,11 Z" id="形状结合" fill="#000000" fill-rule="nonzero"></path>
            </g>
        </g>
    </g>
</svg>