<?xml version="1.0" encoding="UTF-8"?>
<svg width="16px" height="16px" viewBox="0 0 16 16" version="1.1" xmlns="http://www.w3.org/2000/svg" xmlns:xlink="http://www.w3.org/1999/xlink">
    <title>马赛克属性大</title>
    <g id="icon" stroke="none" stroke-width="1" fill="none" fill-rule="evenodd">
        <g id="画板" transform="translate(-685.000000, -299.000000)" fill="#000000" fill-rule="nonzero">
            <g id="马赛克属性大" transform="translate(685.000000, 299.000000)">
                <path d="M15.5,0 C15.7761424,-5.07265313e-17 16,0.223857625 16,0.5 L16,15.5 C16,15.7761424 15.7761424,16 15.5,16 L0.5,16 C0.223857625,16 3.38176876e-17,15.7761424 0,15.5 L0,0.5 C-3.38176876e-17,0.223857625 0.223857625,5.07265313e-17 0.5,0 L15.5,0 Z M14,8 L8,8 L8,14 L14,14 L14,8 Z M8,2 L2,2 L2,8 L8,8 L8,2 Z" id="形状结合"></path>
            </g>
        </g>
    </g>
</svg>