<?xml version="1.0" encoding="UTF-8"?>
<svg width="16px" height="16px" viewBox="0 0 16 16" version="1.1" xmlns="http://www.w3.org/2000/svg" xmlns:xlink="http://www.w3.org/1999/xlink">
    <title>马赛克属性小</title>
    <g id="icon" stroke="none" stroke-width="1" fill="none" fill-rule="evenodd">
        <g id="画板" transform="translate(-648.000000, -299.000000)">
            <g id="马赛克属性小" transform="translate(648.000000, 299.000000)">
                <rect id="矩形" fill="#D8D8D8" opacity="0" x="0" y="0" width="16" height="16"></rect>
                <path d="M15.5,0 C15.7761424,-5.07265313e-17 16,0.223857625 16,0.5 L16,15.5 C16,15.7761424 15.7761424,16 15.5,16 L0.5,16 C0.223857625,16 3.38176876e-17,15.7761424 0,15.5 L0,0.5 C-3.38176876e-17,0.223857625 0.223857625,5.07265313e-17 0.5,0 L15.5,0 Z M14,12 L12,12 L12,14 L14,14 L14,12 Z M9,12 L7,12 L7,14 L9,14 L9,12 Z M4,12 L2,12 L2,14 L4,14 L4,12 Z M9,7 L7,7 L7,9 L9,9 L9,7 Z M14,7 L12,7 L12,9 L14,9 L14,7 Z M4,7 L2,7 L2,9 L4,9 L4,7 Z M4,2 L2,2 L2,4 L4,4 L4,2 Z M9,2 L7,2 L7,4 L9,4 L9,2 Z M14,2 L12,2 L12,4 L14,4 L14,2 Z" id="形状结合" fill="#000000" fill-rule="nonzero"></path>
            </g>
        </g>
    </g>
</svg>