<?xml version="1.0" encoding="UTF-8"?>
<svg width="36px" height="36px" viewBox="0 0 36 36" version="1.1" xmlns="http://www.w3.org/2000/svg" xmlns:xlink="http://www.w3.org/1999/xlink">
    <!-- Generator: Sketch 56.2 (81672) - https://sketch.com -->
    <title>mouse_mormal</title>
    <desc>Created with Sketch.</desc>
    <g id="页面-1" stroke="none" stroke-width="1" fill="none" fill-rule="evenodd">
        <g id="按钮规范" transform="translate(-463.000000, -287.000000)" fill="#000000">
            <g id="record" transform="translate(136.000000, 204.000000)">
                <g id="主工具栏" transform="translate(158.000000, 0.000000)">
                    <g id="Group-7" transform="translate(166.000000, 81.000000)">
                        <g id="mouse_mormal" transform="translate(2.500000, 1.500000)">
                            <path d="M14.5,19.032591 C12.3313833,18.3871791 10.75,16.3782655 10.75,14 C10.75,11.1005051 13.1005051,8.75 16,8.75 C18.8994949,8.75 21.25,11.1005051 21.25,14 C21.25,14.8461403 21.049829,15.6455281 20.694258,16.3533924 L19.5553035,15.1958084 C19.6815719,14.8202465 19.75,14.4181144 19.75,14 C19.75,11.9289322 18.0710678,10.25 16,10.25 C15.6032746,10.25 15.2209381,10.3116062 14.8620353,10.4257739 L14.5,10.0578169 L14.5,10.5620328 C13.1755714,11.1407002 12.25,12.4622607 12.25,14 C12.25,15.5377393 13.1755714,16.8592998 14.5,17.4379672 L14.5,19.032591 Z" id="Combined-Shape" fill-rule="nonzero"></path>
                            <path d="M14.5,21.8596042 C10.798709,21.1574943 8,17.9055839 8,14 C8,9.581722 11.581722,6 16,6 C20.418278,6 24,9.581722 24,14 C24,15.6187809 23.5192028,17.1252656 22.6926208,18.3844417 L21.9726115,17.6526555 C22.624305,16.5893162 23,15.3385323 23,14 C23,10.1340068 19.8659932,7 16,7 C12.1340068,7 9,10.1340068 9,14 C9,17.3511186 11.354818,20.15224 14.5,20.8389102 L14.5,21.8596042 Z" id="Combined-Shape" fill-rule="nonzero" opacity="0.200000003"></path>
                            <polygon id="Path" points="15.5 28.5 22.8328786 28.5 26.5 23.6799234 15.5 12.5"></polygon>
                        </g>
                    </g>
                </g>
            </g>
        </g>
    </g>
</svg>