<?xml version="1.0" encoding="UTF-8"?>
<svg width="36px" height="36px" viewBox="0 0 36 36" version="1.1" xmlns="http://www.w3.org/2000/svg" xmlns:xlink="http://www.w3.org/1999/xlink">
    <title>识别文字</title>
    <g id="6.0" stroke="none" stroke-width="1" fill="none" fill-rule="evenodd">
        <g id="截图备份" transform="translate(-898.000000, -893.000000)">
            <g id="截图工具栏" transform="translate(727.000000, 881.000000)">
                <g id="识别文字" transform="translate(171.000000, 12.000000)">
                    <rect id="占位备份-2" fill="#FFFFFF" opacity="0" x="0" y="0" width="36" height="36" rx="8"></rect>
                    <path d="M15.7114428,23 L16.3681592,20.728513 L19.5522388,20.728513 L20.2487562,23 L22,23 L18.8092869,13 L17.1044776,13 L14,23 L15.7114428,23 Z M19,19 L17,19 L17.9939024,16 L19,19 Z" id="A备份" fill="#000000" fill-rule="nonzero"></path>
                    <g id="编组" transform="translate(8.500000, 9.000000)" fill="#000000">
                        <path d="M6.5,0 L6.5,2 L2.5,2 L2.5,6 L0.5,6 L0.5,-1.8369702e-16 L6.5,0 Z" id="形状结合"></path>
                        <path d="M6.5,12 L6.5,14 L2.5,14 L2.5,18 L0.5,18 L0.5,12 L6.5,12 Z" id="形状结合备份-2" transform="translate(3.500000, 15.000000) scale(1, -1) translate(-3.500000, -15.000000) "></path>
                        <path d="M18.5,0 L18.5,2 L14.5,2 L14.5,6 L12.5,6 L12.5,-1.8369702e-16 L18.5,0 Z" id="形状结合备份" transform="translate(15.500000, 3.000000) scale(-1, 1) translate(-15.500000, -3.000000) "></path>
                        <path d="M18.5,12 L18.5,14 L14.5,14 L14.5,18 L12.5,18 L12.5,12 L18.5,12 Z" id="形状结合备份-3" transform="translate(15.500000, 15.000000) scale(-1, -1) translate(-15.500000, -15.000000) "></path>
                    </g>
                </g>
            </g>
        </g>
    </g>
</svg>