<?xml version="1.0" encoding="UTF-8"?>
<svg width="36px" height="36px" viewBox="0 0 36 36" version="1.1" xmlns="http://www.w3.org/2000/svg" xmlns:xlink="http://www.w3.org/1999/xlink">
    <title>圆 2</title>
    <g id="icon" stroke="none" stroke-width="1" fill="none" fill-rule="evenodd">
        <g id="画板" transform="translate(-445.000000, -288.000000)">
            <g id="圆" transform="translate(445.000000, 288.000000)">
                <rect id="占位" fill="#D8D8D8" opacity="0" x="0" y="0" width="36" height="36" rx="8"></rect>
                <path d="M18,9 C22.9705627,9 27,13.0294373 27,18 C27,22.9705627 22.9705627,27 18,27 C13.0294373,27 9,22.9705627 9,18 C9,13.0294373 13.0294373,9 18,9 Z M18,11 C14.1340068,11 11,14.1340068 11,18 C11,21.8659932 14.1340068,25 18,25 C21.8659932,25 25,21.8659932 25,18 C25,14.1340068 21.8659932,11 18,11 Z" id="形状结合" fill="#000000" fill-rule="nonzero"></path>
            </g>
        </g>
    </g>
</svg>