<?xml version="1.0" encoding="UTF-8"?>
<svg width="36px" height="36px" viewBox="0 0 36 36" version="1.1" xmlns="http://www.w3.org/2000/svg" xmlns:xlink="http://www.w3.org/1999/xlink">
    <title>钉</title>
    <g id="icon" stroke="none" stroke-width="1" fill="none" fill-rule="evenodd">
        <g id="画板" transform="translate(-463.000000, -91.000000)">
            <g id="钉" transform="translate(463.000000, 91.000000)">
                <rect id="占位" fill="#D8D8D8" opacity="0" x="0" y="0" width="36" height="36" rx="8"></rect>
                <path d="M21.9532576,9.29799518 C25.2530893,12.5978268 26.9030051,14.2477427 26.9030051,14.2477427 C27.9827734,15.327511 27.5092017,16.4699732 26.5685598,16.7417245 C26.5685598,16.7417245 25.8550837,16.9710574 24.4281313,17.4297232 L20.8925974,20.9652571 L20.5390441,24.8543444 C20.4986059,25.4629835 20.0881111,26.115039 19.3339894,26.059399 C19.0328958,26.037184 18.7274739,25.8712014 18.4177237,25.5614511 L15.2357432,22.3794706 L10.6395491,26.9756647 C10.444287,27.1709269 10.1277045,27.1709269 9.93244233,26.9756647 L9.22533555,26.2685579 C9.03007341,26.0732958 9.03007341,25.7567133 9.22533555,25.5614511 L13.8215296,20.9652571 L13.8215296,20.9652571 L10.6395491,17.7832766 C10.2784724,17.4601735 10.098497,17.1407588 10.0996227,16.8250323 C10.1026445,15.9775272 11.0185506,15.6862989 11.3466559,15.6619562 L15.2357432,15.3084028 L18.7712771,11.7728689 L19.4783839,9.65154857 C19.8478436,8.57498212 20.8925974,8.23733501 21.9532576,9.29799518 Z M20.1854907,13.1870825 L16.2964034,17.0761698 L13.1144228,17.4297232 L18.7712771,23.0865774 L19.1248305,19.9045969 L23.0139178,16.0155096 L25.1352381,15.3084028 L20.8925974,11.0657621 L20.1854907,13.1870825 Z" id="形状" fill="#000000" fill-rule="nonzero"></path>
            </g>
        </g>
    </g>
</svg>