<?xml version="1.0" encoding="UTF-8"?>
<svg width="36px" height="36px" viewBox="0 0 36 36" version="1.1" xmlns="http://www.w3.org/2000/svg" xmlns:xlink="http://www.w3.org/1999/xlink">
    <title>录像</title>
    <g id="icon" stroke="none" stroke-width="1" fill="none" fill-rule="evenodd">
        <g id="画板" transform="translate(-535.000000, -91.000000)">
            <g id="录像" transform="translate(535.000000, 91.000000)">
                <rect id="占位" fill="#D8D8D8" opacity="0" x="0" y="0" width="36" height="36" rx="8"></rect>
                <g id="编组" transform="translate(7.000000, 10.000000)" fill="#000000" fill-rule="nonzero">
                    <path d="M18,12.5 L18,15 C18,15.5522847 17.5522847,16 17,16 L1,16 C0.44771525,16 6.76353751e-17,15.5522847 0,15 L0,1 C-6.76353751e-17,0.44771525 0.44771525,1.01453063e-16 1,0 L17,0 C17.5522847,-1.01453063e-16 18,0.44771525 18,1 L18,3.5 L18,3.5 L22.5527864,1.2236068 C23.0467649,0.976617549 23.6474379,1.1768419 23.8944272,1.67082039 C23.9638549,1.80967583 24,1.96278889 24,2.11803399 L24,13.881966 C24,14.4342508 23.5522847,14.881966 23,14.881966 C22.8447549,14.881966 22.6916418,14.8458209 22.5527864,14.7763932 L18,12.5 L18,12.5 Z M9,14 C12.3137085,14 15,11.3137085 15,8 C15,4.6862915 12.3137085,2 9,2 C5.6862915,2 3,4.6862915 3,8 C3,11.3137085 5.6862915,14 9,14 Z" id="形状"></path>
                </g>
            </g>
        </g>
    </g>
</svg>