<?xml version="1.0" encoding="UTF-8"?>
<svg width="36px" height="36px" viewBox="0 0 36 36" version="1.1" xmlns="http://www.w3.org/2000/svg" xmlns:xlink="http://www.w3.org/1999/xlink">
    <title>本地保存</title>
    <g id="icon" stroke="none" stroke-width="1" fill="none" fill-rule="evenodd">
        <g id="画板" transform="translate(-96, -135)">
            <g id="本地保存" transform="translate(96, 135)">
                <rect id="占位" fill="#D8D8D8" opacity="0" x="0" y="0" width="36" height="36" rx="8"></rect>
                <path d="M9.5,22 C9.77614237,22 10,22.2238576 10,22.5 L10,25.5 C10,25.7761424 10.2238576,26 10.5,26 L25.5,26 C25.7761424,26 26,25.7761424 26,25.5 L26,22.5 C26,22.2238576 26.2238576,22 26.5,22 L27.5,22 C27.7761424,22 28,22.2238576 28,22.5 L28,27 C28,27.5522847 27.5522847,28 27,28 L9,28 C8.44771525,28 8,27.5522847 8,27 L8,22.5 C8,22.2238576 8.22385763,22 8.5,22 L9.5,22 Z M18.5,8 C18.7761424,8 19,8.22385763 19,8.5 L19,19.825 L23.9695803,15.5661391 C24.179242,15.3864265 24.4948921,15.4107051 24.6746047,15.6203667 L25.3253957,16.3796283 C25.5051068,16.5892912 25.480826,16.9049412 25.2711631,17.0846523 L18.6507914,22.7592566 C18.2763016,23.0802478 17.7236984,23.0802478 17.3492086,22.7592566 L10.7288369,17.0846523 C10.519174,16.9049412 10.4948932,16.5892912 10.6746043,16.3796283 L11.325393,15.6203694 C11.4851362,15.4340024 11.7522879,15.3941101 11.9569358,15.5137628 L12.0304197,15.5661391 L17,19.826 L17,8.5 C17,8.22385763 17.2238576,8 17.5,8 L18.5,8 Z" id="形状结合" fill="#000000" fill-rule="nonzero"></path>
            </g>
        </g>
    </g>
</svg>