<?xml version="1.0" encoding="UTF-8"?>
<svg width="20px" height="20px" viewBox="0 0 20 20" version="1.1" xmlns="http://www.w3.org/2000/svg" xmlns:xlink="http://www.w3.org/1999/xlink">
    <!-- Generator: Sketch 56.2 (81672) - https://sketch.com -->
    <title>screencap-normal</title>
    <desc>Created with Sketch.</desc>
    <g id="页面-1" stroke="none" stroke-width="1" fill="none" fill-rule="evenodd">
        <g id="按钮规范" transform="translate(-153.000000, -109.000000)" fill="#000000" fill-rule="nonzero">
            <g id="截图工具栏" transform="translate(137.000000, 89.000000)">
                <g id="Group-4" transform="translate(10.000000, 10.000000)">
                    <g id="screencap-normal" transform="translate(6.000000, 10.000000)">
                        <path d="M4.75,9.5 C3.230625,9.5 2,8.2686875 2,6.75 C2,5.2313125 3.2313125,4 4.75,4 C6.2686875,4 7.5,5.2313125 7.5,6.75 C7.5,8.2686875 6.2686875,9.5 4.75,9.5 Z M11.1428571,10.7599888 C11.6192143,10.7599888 12.0745357,10.6768036 12.5,10.5307383 L12.5,14.6899972 C12.5,15.4131187 11.892,16 11.1428571,16 L4.35714286,16 C3.608,16 3,15.4131187 3,14.6899972 L3,10.5307383 C3.42546429,10.6768036 3.88078571,10.7599888 4.35714286,10.7599888 C5.77128571,10.7599888 7.01985714,10.0604473 7.75,9 C8.48014286,10.0604473 9.72871429,10.7599888 11.1428571,10.7599888 Z M14,11.45 L18,9.5 L18,16 L14,14.05 L14,11.45 Z M11.25,4 C12.7686875,4 14,5.2313125 14,6.75 C14,8.2686875 12.7686875,9.5 11.25,9.5 C9.7313125,9.5 8.5,8.2686875 8.5,6.75 C8.5,5.2313125 9.7313125,4 11.25,4 Z M4.75,7.5 C5.16421356,7.5 5.5,7.16421356 5.5,6.75 C5.5,6.33578644 5.16421356,6 4.75,6 C4.33578644,6 4,6.33578644 4,6.75 C4,7.16421356 4.33578644,7.5 4.75,7.5 Z M11.25,7.5 C11.6642136,7.5 12,7.16421356 12,6.75 C12,6.33578644 11.6642136,6 11.25,6 C10.8357864,6 10.5,6.33578644 10.5,6.75 C10.5,7.16421356 10.8357864,7.5 11.25,7.5 Z" id="Combined-Shape"></path>
                    </g>
                </g>
            </g>
        </g>
    </g>
</svg>