<?xml version="1.0" encoding="UTF-8"?>
<svg width="20px" height="20px" viewBox="0 0 20 20" version="1.1" xmlns="http://www.w3.org/2000/svg" xmlns:xlink="http://www.w3.org/1999/xlink">
    <!-- Generator: Sketch 56.2 (81672) - https://sketch.com -->
    <title>screenshot-normal</title>
    <desc>Created with Sketch.</desc>
    <g id="页面-1" stroke="none" stroke-width="1" fill="none" fill-rule="evenodd">
        <g id="按钮规范" transform="translate(-227.000000, -109.000000)" fill="#000000" fill-rule="nonzero">
            <g id="截图工具栏" transform="translate(137.000000, 89.000000)">
                <g id="Group-3" transform="translate(84.000000, 10.000000)">
                    <g id="screenshot-normal" transform="translate(6.000000, 10.000000)">
                        <path d="M15,13 L17,13 L17,14 L15,14 L15,16 L14,16 L14,14 L6,14 C4.8954305,14 4,13.1045695 4,12 L4,6 L2,6 L2,5 L4,5 L4,3 L5,3 L5,5 L13,5 C14.1045695,5 15,5.8954305 15,7 L15,13 Z M5,6 L5,12 C5,12.5522847 5.44771525,13 6,13 L14,13 L14,7 C14,6.44771525 13.5522847,6 13,6 L5,6 Z M6,7 L13,7 L13,12 L6,12 L6,7 Z" id="Combined-Shape"></path>
                    </g>
                </g>
            </g>
        </g>
    </g>
</svg>