<?xml version="1.0" encoding="UTF-8"?>
<svg width="36px" height="36px" viewBox="0 0 36 36" version="1.1" xmlns="http://www.w3.org/2000/svg" xmlns:xlink="http://www.w3.org/1999/xlink">
    <title>滚动截图</title>
    <g id="icon" stroke="none" stroke-width="1" fill="none" fill-rule="evenodd">
        <g id="画板" transform="translate(-391.000000, -91.000000)">
            <g id="滚动截图" transform="translate(391.000000, 91.000000)">
                <rect id="占位" fill="#D8D8D8" opacity="0" x="0" y="0" width="36" height="36" rx="8"></rect>
                <path d="M13,14.5004358 C13,14.2240528 13.2276528,14 13.5096495,14 L22.4903505,14 C22.7718221,14 23,14.2307968 23,14.5004358 L23,21.4995642 C23,21.7759472 22.7723472,22 22.4903505,22 L13.5096495,22 C13.2281779,22 13,21.7692032 13,21.4995642 L13,14.5004358 Z M12.5606258,12.5384695 L12.2833973,12.0253761 C12.1574156,11.7922097 12.2352507,11.5012488 12.4608234,11.362127 L18,7.94584262 L18,7.94584262 L23.5478899,11.3548196 C23.7789257,11.4967827 23.8546928,11.797031 23.7186788,12.0316184 L23.4134002,12.5581415 C23.2748901,12.7970339 22.968945,12.8784099 22.7300526,12.7398999 C22.7289923,12.7392852 22.7279343,12.7386665 22.7268785,12.738044 L18,9.95075022 L18,9.95075022 L13.2533064,12.7321831 C13.0150546,12.8717922 12.7087379,12.7918264 12.5691288,12.5535746 C12.5662074,12.5485891 12.5633727,12.5435533 12.5606258,12.5384695 Z M12.5606258,23.4493011 L12.2833973,23.9623945 C12.1574156,24.1955608 12.2352507,24.4865217 12.4608234,24.6256436 L18,28.0419279 L18,28.0419279 L23.5478899,24.6329509 C23.7789257,24.4909878 23.8546928,24.1907396 23.7186788,23.9561522 L23.4134002,23.429629 C23.2748901,23.1907366 22.968945,23.1093606 22.7300526,23.2478706 C22.7289923,23.2484854 22.7279343,23.2491041 22.7268785,23.2497266 L18,26.0370203 L18,26.0370203 L13.2533064,23.2555874 C13.0150546,23.1159784 12.7087379,23.1959441 12.5691288,23.4341959 C12.5662074,23.4391815 12.5633727,23.4442173 12.5606258,23.4493011 Z" id="形状结合" fill="#000000" fill-rule="nonzero"></path>
            </g>
        </g>
    </g>
</svg>