<?xml version="1.0" encoding="UTF-8"?>
<svg width="36px" height="36px" viewBox="0 0 36 36" version="1.1" xmlns="http://www.w3.org/2000/svg" xmlns:xlink="http://www.w3.org/1999/xlink">
    <title>录像 2</title>
    <g id="icon" stroke="none" stroke-width="1" fill="none" fill-rule="evenodd">
        <g id="画板" transform="translate(-179.000000, -281.000000)">
            <g id="录像" transform="translate(179.000000, 281.000000)">
                <rect id="占位" fill="#D8D8D8" opacity="0" x="0" y="0" width="36" height="36" rx="8"></rect>
                <g id="编组" transform="translate(8.000000, 9.000000)" fill="#000000">
                    <path d="M4,1.8369702e-16 L3.999,1.998 L16,1.99824964 C17.1045695,1.99824964 18,2.89368014 18,3.99824964 L18,14 L20,14 L20,16 L18,16 L18,18 L16,18 L16,15.998 L4,15.9982496 C2.8954305,15.9982496 2,15.1028191 2,13.9982496 L2,4 L0,4 L0,2 L1.999,2 L2,-1.8369702e-16 L4,1.8369702e-16 Z M15,3.99824964 L4,3.99824964 L4,12.9982496 C4,13.5110855 4.38604019,13.9337568 4.88337887,13.9915219 L5,13.9982496 L16,13.9982496 L16,4.99824964 C16,4.44596489 15.5522847,3.99824964 15,3.99824964 Z M14,6 L14,12 L6,12 L6,6 L14,6 Z" id="Combined-Shape"></path>
                </g>
            </g>
        </g>
    </g>
</svg>