<?xml version="1.0" encoding="UTF-8"?>
<svg width="24px" height="24px" viewBox="0 0 24 24" version="1.1" xmlns="http://www.w3.org/2000/svg" xmlns:xlink="http://www.w3.org/1999/xlink">
    <title>图标/AI/总结</title>
    <g id="图标/AI/总结" stroke="none" fill="none" fill-rule="evenodd">
        <path d="M18.3738145,2.55010604 C18.72978,2.55033788 19.0222884,2.64020421 19.4841979,2.88454876 L21.4775232,3.93899393 C22.3562617,4.40383611 22.6917911,5.49302352 22.2269489,6.37176211 C22.2209614,6.38301663 22.2209614,6.38301663 22.2148678,6.39421411 L14.6671584,20.1861742 C14.5726218,20.3589213 14.4176921,20.4907316 14.2320302,20.5563702 L10.8437689,21.7542508 C10.3752716,21.9198826 9.87069924,21.6228196 9.7882116,21.1327999 L9.21109937,17.7044513 C9.18123258,17.5270269 9.21204626,17.3447145 9.29856346,17.1869609 L16.6816362,3.72482195 C16.932914,3.26664727 17.1277271,3.03067063 17.4248455,2.83462938 C17.7086943,2.64734359 18.0337468,2.54988529 18.3738145,2.55010604 Z M16.696,7.024 L10.834,17.713 L11.208,19.928 L13.41,19.149 L19.289,8.407 L16.696,7.024 Z M6.3590287,13 C6.58190838,13 6.66272994,13.0232064 6.74421143,13.0667832 C6.82569291,13.1103599 6.88964005,13.1743071 6.93321682,13.2557886 C6.9767936,13.3372701 7,13.4180916 7,13.6409713 L7,14.3590287 C7,14.5819084 6.9767936,14.6627299 6.93321682,14.7442114 C6.88964005,14.8256929 6.82569291,14.8896401 6.74421143,14.9332168 C6.66272994,14.9767936 6.58190838,15 6.3590287,15 L2.6409713,15 C2.41809162,15 2.33727006,14.9767936 2.25578857,14.9332168 C2.17430709,14.8896401 2.11035995,14.8256929 2.06678318,14.7442114 C2.0232064,14.6627299 2,14.5819084 2,14.3590287 L2,13.6409713 C2,13.4180916 2.0232064,13.3372701 2.06678318,13.2557886 C2.11035995,13.1743071 2.17430709,13.1103599 2.25578857,13.0667832 C2.33727006,13.0232064 2.41809162,13 2.6409713,13 L6.3590287,13 Z M9.3590287,9 C9.58190838,9 9.66272994,9.0232064 9.74421143,9.06678318 C9.82569291,9.11035995 9.88964005,9.17430709 9.93321682,9.25578857 C9.9767936,9.33727006 10,9.41809162 10,9.6409713 L10,10.3590287 C10,10.5819084 9.9767936,10.6627299 9.93321682,10.7442114 C9.88964005,10.8256929 9.82569291,10.8896401 9.74421143,10.9332168 C9.66272994,10.9767936 9.58190838,11 9.3590287,11 L2.6409713,11 C2.41809162,11 2.33727006,10.9767936 2.25578857,10.9332168 C2.17430709,10.8896401 2.11035995,10.8256929 2.06678318,10.7442114 C2.0232064,10.6627299 2,10.5819084 2,10.3590287 L2,9.6409713 C2,9.41809162 2.0232064,9.33727006 2.06678318,9.25578857 C2.11035995,9.17430709 2.17430709,9.11035995 2.25578857,9.06678318 C2.33727006,9.0232064 2.41809162,9 2.6409713,9 L9.3590287,9 Z M18.3727741,4.15010604 C18.346345,4.15010604 18.3280747,4.15556677 18.3060148,4.17012206 C18.2557764,4.20326977 18.2208926,4.24552452 18.0845093,4.49420295 L17.466,5.621 L20.057,7.003 L20.8112981,5.62610459 C20.8642896,5.5259723 20.8270086,5.40495148 20.729371,5.35330235 L18.7360457,4.29885718 C18.4853402,4.16623698 18.4329627,4.15010604 18.3727741,4.15010604 Z M12.3590287,5 C12.5819084,5 12.6627299,5.0232064 12.7442114,5.06678318 C12.8256929,5.11035995 12.8896401,5.17430709 12.9332168,5.25578857 C12.9767936,5.33727006 13,5.41809162 13,5.6409713 L13,6.3590287 C13,6.58190838 12.9767936,6.66272994 12.9332168,6.74421143 C12.8896401,6.82569291 12.8256929,6.88964005 12.7442114,6.93321682 C12.6627299,6.9767936 12.5819084,7 12.3590287,7 L2.6409713,7 C2.41809162,7 2.33727006,6.9767936 2.25578857,6.93321682 C2.17430709,6.88964005 2.11035995,6.82569291 2.06678318,6.74421143 C2.0232064,6.66272994 2,6.58190838 2,6.3590287 L2,5.6409713 C2,5.41809162 2.0232064,5.33727006 2.06678318,5.25578857 C2.11035995,5.17430709 2.17430709,5.11035995 2.25578857,5.06678318 C2.33727006,5.0232064 2.41809162,5 2.6409713,5 L12.3590287,5 Z" id="形状结合" fill="#000000"></path>
    </g>
</svg>