<?xml version="1.0" encoding="UTF-8"?>
<svg width="36px" height="36px" viewBox="0 0 36 36" version="1.1" xmlns="http://www.w3.org/2000/svg" xmlns:xlink="http://www.w3.org/1999/xlink">
    <title>文字</title>
    <g id="icon" stroke="none" stroke-width="1" fill="none" fill-rule="evenodd">
        <g id="画板" transform="translate(-319.000000, -91.000000)">
            <g id="文字" transform="translate(319.000000, 91.000000)">
                <rect id="占位" fill="#D8D8D8" opacity="0" x="0" y="0" width="36" height="36" rx="8"></rect>
                <path d="M10.6353995,9 L24.3563752,9 C24.6263675,9 24.8475956,9.21434573 24.8561256,9.48420329 L24.9804688,13.4179688 L24.9804688,13.4179688 L24.3583984,13.4179688 C24.0537094,12.029941 23.6665063,11.1264669 23.1967773,10.7075195 C22.7270484,10.2885721 21.7389398,10.0791016 20.2324219,10.0791016 L18.7851562,10.0791016 L18.7851562,24.3837891 C18.7851562,25.3909556 18.9417302,26.0151355 19.2548828,26.2563477 C19.5680354,26.4975598 19.942052,26.4541012 21,26.5302734 L21,27 L14,27 L14,26.5302734 C15.1002659,26.4456376 15.5182278,26.4658217 15.7890625,26.1865234 C16.0598972,25.9072252 16.1953125,25.2047582 16.1953125,24.0791016 L16.1953125,10.0791016 L14.7480469,10.0791016 C13.3092376,10.0791016 12.3295924,10.2864563 11.809082,10.7011719 C11.2885716,11.1158875 10.8971367,12.0214774 10.6347656,13.4179688 L10,13.4179688 L10.1356965,9.48276886 C10.1449819,9.21349327 10.3659639,9 10.6353995,9 Z" id="T" fill="#000000" fill-rule="nonzero"></path>
            </g>
        </g>
    </g>
</svg>