<?xml version="1.0" encoding="UTF-8"?>
<svg width="24px" height="24px" viewBox="0 0 24 24" version="1.1" xmlns="http://www.w3.org/2000/svg" xmlns:xlink="http://www.w3.org/1999/xlink">
    <title>图标/AI/翻译</title>
    <g id="图标/AI/翻译" stroke="none" fill="none" fill-rule="evenodd" stroke-width="1">
        <path d="M16.4308439,11.5002846 L20.2441141,20.5 L19.5511891,20.5 L18.2801891,17.5 L13.7210141,17.5 L12.4480141,20.5 L11.75527,20.5 L15.5735986,11.5000793 L16.4308439,11.5002846 Z M16.0013272,12.125127 L14.1446351,16.5 L17.8560524,16.5 L16.0013272,12.125127 Z M4.5,16.4937756 L4.5,17.9975252 C4.5,18.4117388 4.66789322,18.7867388 4.93933983,19.0581854 C5.21078644,19.329632 5.58578644,19.4975252 6,19.4975252 L9.5,19.4975252 L9.5,20.4975252 L6,20.4975252 C5.30964406,20.4975252 4.68464406,20.2177032 4.23223305,19.7652922 C3.77982203,19.3128811 3.5,18.6878811 3.5,17.9975252 L3.5,16.4937756 L4.5,16.4937756 Z M8.5,3.5 L8.5,5.5 L12.5,5.5 L12.5,6.50038373 L11.4653799,6.50117808 C11.0690493,7.86043706 10.3186144,9.21674566 9.21318388,10.5931116 C9.03058589,10.7971201 8.84585245,10.9942227 8.65897598,11.1843925 C8.53293463,11.3126551 8.40372302,11.439998 8.27140113,11.5665023 C8.41415239,11.6899528 8.55831708,11.8097123 8.70388858,11.9257837 C9.42926676,12.5041637 10.2361442,13.0280984 11.1246755,13.4967131 L10.8597051,14.0352909 C9.86019123,13.5093444 8.95421258,12.9126708 8.14312324,12.2445654 C6.5766552,13.0177533 5.59806101,13.6307887 4.570485,14.0819377 L4.35391736,13.5217122 C5.25536481,13.1232922 6.12297466,12.590905 6.95243202,11.9265511 C7.09509802,11.8122828 7.23420067,11.6960604 7.36958773,11.5778648 C7.25022385,11.4557504 7.12924158,11.3286189 7.00638332,11.1962101 C6.09100827,10.2096767 5.45999,9.34888374 5.01397944,8.49954209 L5.69590488,8.49960058 C6.08510103,9.18556984 6.59204615,9.86972702 7.22048789,10.5508536 C8.16843446,10.8058012 8.46507805,10.5312113 8.74892786,10.213855 C9.7740659,8.9385002 10.4601857,7.70616524 10.8385448,6.50079414 L3.5,6.50005065 L3.5,5.5 L7.5,5.5 L7.5,3.5 L8.5,3.5 Z M17,4.5 C17.6903559,4.5 18.3153559,4.77982203 18.767767,5.23223305 C19.220178,5.68464406 19.5,6.30964406 19.5,7 L19.5,9.50374961 L18.5,9.50374961 L18.5,7 C18.5,6.58578644 18.3321068,6.21078644 18.0606602,5.93933983 C17.7892136,5.66789322 17.4142136,5.5 17,5.5 L14.5,5.5 L14.5,4.5 Z" id="形状结合" stroke="#000000" fill="#D8D8D8"></path>
    </g>
</svg>