<?xml version="1.0" encoding="UTF-8"?>
<svg width="36px" height="36px" viewBox="0 0 36 36" version="1.1" xmlns="http://www.w3.org/2000/svg" xmlns:xlink="http://www.w3.org/1999/xlink">
    <title>开启摄像头</title>
    <g id="icon" stroke="none" stroke-width="1" fill="none" fill-rule="evenodd">
        <g id="画板" transform="translate(-141.000000, -281.000000)">
            <g id="开启摄像头" transform="translate(141.000000, 281.000000)">
                <rect id="占位" fill="#D8D8D8" opacity="0" x="0" y="0" width="36" height="36" rx="8"></rect>
                <path d="M10,26 C9.44771525,26 9,25.5522847 9,25 L9,11 C9,10.4477153 9.44771525,10 10,10 L26,10 C26.5522847,10 27,10.4477153 27,11 L27,25 C27,25.5128358 26.6139598,25.9355072 26.1166211,25.9932723 L26,26 L26,26 L10,26 Z M25,12 L11,12 L11,24 L13,24 L13,16 C13,15.4477153 13.4477153,15 14,15 L25,15 L25,12 Z M21.8006667,22.0006109 C21.2986667,22.3479279 20.676,22.5565625 20,22.5565625 C19.3233333,22.5565625 18.7003333,22.347317 18.1976667,22 C17.2972496,22.3633315 16.6243449,23.2361336 16.2733416,24.0006104 L23.7187762,24.0011227 C23.3613243,23.2390986 22.6831709,22.3673512 21.8006667,22.0006109 Z M20,17 C18.8954286,17 18,17.8953646 18,19.0001428 C18,20.1043497 18.8954286,21 20,21 C21.1045714,21 22,20.1043497 22,19.0001428 C22,17.8953646 21.1045714,17 20,17 Z" id="形状结合" fill="#000000" fill-rule="nonzero"></path>
            </g>
        </g>
    </g>
</svg>