<?xml version="1.0" encoding="UTF-8"?>
<svg width="36px" height="36px" viewBox="0 0 36 36" version="1.1" xmlns="http://www.w3.org/2000/svg" xmlns:xlink="http://www.w3.org/1999/xlink">
    <!-- Generator: Sketch 56.2 (81672) - https://sketch.com -->
    <title>webcam_normal</title>
    <desc>Created with Sketch.</desc>
    <g id="页面-1" stroke="none" stroke-width="1" fill="none" fill-rule="evenodd">
        <g id="按钮规范" transform="translate(-411.000000, -287.000000)">
            <g id="record" transform="translate(136.000000, 204.000000)">
                <g id="主工具栏" transform="translate(158.000000, 0.000000)">
                    <g id="Group-6" transform="translate(114.000000, 81.000000)">
                        <g id="webcam_normal" transform="translate(3.000000, 2.000000)">
                            <rect id="Rectangle-6" stroke="#000000" x="9.5" y="10.5" width="17" height="15" rx="2"></rect>
                            <path d="M15,15 L26,15 C26.5522847,15 27,15.4477153 27,16 L27,22 C27,24.209139 25.209139,26 23,26 L14,26 C13.4477153,26 13,25.5522847 13,25 L13,17 C13,15.8954305 13.8954305,15 15,15 Z M22,19.0001428 C22,17.8953646 21.1045714,17 20,17 C18.8954286,17 18,17.8953646 18,19.0001428 C18,20.1043497 18.8954286,21 20,21 C21.1045714,21 22,20.1043497 22,19.0001428 Z M20,22.5565625 C19.3233333,22.5565625 18.7003333,22.347317 18.1976667,22 C16.8403333,22.5477039 16,24.253131 16,25 L24,25 C24,24.2598513 23.1333333,22.5544242 21.8006667,22.0006109 C21.2986667,22.3479279 20.676,22.5565625 20,22.5565625 Z" id="Combined-Shape" fill="#000000"></path>
                        </g>
                    </g>
                </g>
            </g>
        </g>
    </g>
</svg>