<?xml version="1.0" encoding="UTF-8"?>
<svg width="24px" height="24px" viewBox="0 0 24 24" version="1.1" xmlns="http://www.w3.org/2000/svg" xmlns:xlink="http://www.w3.org/1999/xlink">
    <!-- Generator: Sketch 56.2 (81672) - https://sketch.com -->
    <title>mute_normal</title>
    <desc>Created with Sketch.</desc>
    <g id="页面-1" stroke="none" stroke-width="1" fill="none" fill-rule="evenodd">
        <g id="按钮规范" transform="translate(-379.000000, -214.000000)">
            <g id="Group" transform="translate(370.000000, 206.000000)">
                <g id="mute_normal" transform="translate(9.000000, 8.000000)">
                    <path d="M9.04533816,6.79355506 L10.1464466,5.69244661 C10.461429,5.37746418 11,5.60054757 11,6.046 L11,8.20525528 L9.04533816,6.79355506 Z M11,11.9058558 L11,17.046 C11,17.4914524 10.461429,17.7145358 10.1464466,17.3995534 L8.17157288,15.4246797 C7.60896374,14.8620705 6.845902,14.546 6.05025253,14.546 L4,14.546 C2.8954305,14.546 2,13.6505695 2,12.546 L2,10.546 C2,9.4414305 2.8954305,8.546 4,8.546 L6.05025253,8.546 C6.14398789,8.546 6.23727097,8.5416132 6.32982727,8.53295331 L11,11.9058558 Z M20,14.7052553 L19,13.9830331 L19,4.5 C19,4.22385763 19.2238576,4 19.5,4 C19.7761424,4 20,4.22385763 20,4.5 L20,14.7052553 Z M20,18.4058558 L20,18.635 C20,18.9111424 19.7761424,19.135 19.5,19.135 C19.2238576,19.135 19,18.9111424 19,18.635 L19,17.6836336 L20,18.4058558 Z M17,12.5385886 L16,11.8163664 L16,6.343 C16,6.06685763 16.2238576,5.843 16.5,5.843 C16.7761424,5.843 17,6.06685763 17,6.343 L17,12.5385886 Z M17,16.2391892 L17,16.792 C17,17.0681424 16.7761424,17.292 16.5,17.292 C16.2238576,17.292 16,17.0681424 16,16.792 L16,15.5169669 L17,16.2391892 Z M14.014,10.3820331 L13.014,9.65981084 L13.014,8.164 C13.014,7.88785763 13.2378576,7.664 13.514,7.664 C13.7901424,7.664 14.014,7.88785763 14.014,8.164 L14.014,10.3820331 Z M14.014,14.0826336 L14.014,14.928 C14.014,15.2041424 13.7901424,15.428 13.514,15.428 C13.2378576,15.428 13.014,15.2041424 13.014,14.928 L13.014,13.3604114 L14.014,14.0826336 Z" id="形状结合" fill="#000000" fill-rule="nonzero"></path>
                    <path d="M4,5 L22,18" id="直线" stroke="#000000" stroke-linecap="square" transform="translate(13.000000, 11.500000) rotate(-180.000000) translate(-13.000000, -11.500000) "></path>
                </g>
            </g>
        </g>
    </g>
</svg>