<?xml version="1.0" encoding="UTF-8"?>
<svg width="24px" height="24px" viewBox="0 0 24 24" version="1.1" xmlns="http://www.w3.org/2000/svg" xmlns:xlink="http://www.w3.org/1999/xlink">
    <!-- Generator: Sketch 56.2 (81672) - https://sketch.com -->
    <title>volume_normal</title>
    <desc>Created with Sketch.</desc>
    <g id="页面-1" stroke="none" stroke-width="1" fill="none" fill-rule="evenodd">
        <g id="按钮规范" transform="translate(-303.000000, -293.000000)" fill="#EE4B4B">
            <g id="record" transform="translate(136.000000, 204.000000)">
                <g id="主工具栏" transform="translate(158.000000, 0.000000)">
                    <g id="Group" transform="translate(0.000000, 81.000000)">
                        <g id="Combined-Shape-2" transform="translate(9.000000, 8.000000)">
                            <g id="volume_normal">
                                <path d="M8.17157288,8.66732034 L10.1464466,6.69244661 C10.461429,6.37746418 11,6.60054757 11,7.046 L11,18.046 C11,18.4914524 10.461429,18.7145358 10.1464466,18.3995534 L8.17157288,16.4246797 C7.60896374,15.8620705 6.845902,15.546 6.05025253,15.546 L4,15.546 C2.8954305,15.546 2,14.6505695 2,13.546 L2,11.546 C2,10.4414305 2.8954305,9.546 4,9.546 L6.05025253,9.546 C6.845902,9.546 7.60896374,9.22992948 8.17157288,8.66732034 Z M19,5.5 C19,5.22385763 19.2238576,5 19.5,5 C19.7761424,5 20,5.22385763 20,5.5 L20,19.635 C20,19.9111424 19.7761424,20.135 19.5,20.135 C19.2238576,20.135 19,19.9111424 19,19.635 L19,5.5 Z M16,7.343 C16,7.06685763 16.2238576,6.843 16.5,6.843 C16.7761424,6.843 17,7.06685763 17,7.343 L17,17.792 C17,18.0681424 16.7761424,18.292 16.5,18.292 C16.2238576,18.292 16,18.0681424 16,17.792 L16,7.343 Z M13.014,9.164 C13.014,8.88785763 13.2378576,8.664 13.514,8.664 C13.7901424,8.664 14.014,8.88785763 14.014,9.164 L14.014,15.928 C14.014,16.2041424 13.7901424,16.428 13.514,16.428 C13.2378576,16.428 13.014,16.2041424 13.014,15.928 L13.014,9.164 Z" id="Combined-Shape"></path>
                            </g>
                        </g>
                    </g>
                </g>
            </g>
        </g>
    </g>
</svg>