<?xml version="1.0" encoding="UTF-8"?>
<svg width="24px" height="24px" viewBox="0 0 24 24" version="1.1" xmlns="http://www.w3.org/2000/svg" xmlns:xlink="http://www.w3.org/1999/xlink">
    <!-- Generator: Sketch 56.2 (81672) - https://sketch.com -->
    <title>audio frequency_normal</title>
    <desc>Created with Sketch.</desc>
    <g id="页面-1" stroke="none" stroke-width="1" fill="none" fill-rule="evenodd">
        <g id="按钮规范" transform="translate(-298.000000, -214.000000)" fill="#EE4B4B">
            <g id="Group" transform="translate(289.000000, 206.000000)">
                <g id="iconmonstr-audio-4" transform="translate(9.000000, 8.000000)">
                    <g id="audio-frequency_normal">
                        <path d="M6.16666609,8.50046403 L8.39966498,8.50046403 C7.62091537,10.1950394 7.62091537,13.8064393 8.39966498,15.5004313 L6.16666609,15.5004313 C5.40191647,14.854101 5,13.4290243 5,12.0033643 C5,10.5742043 5.40366647,9.14504435 6.16666609,8.50046403 Z M18.9999965,12.0033643 C19.0029097,16.6880925 17.1654106,19.5073293 15.4294115,18.9239987 C14.9779117,18.7723327 9.84866427,15.6695972 9.84866427,15.6695972 C8.68608151,14.3746033 8.68608151,9.66829191 9.84866427,8.37329795 C9.84866427,8.37329795 15.1925783,5.17897954 15.4183282,5.08739663 C16.9880774,4.45389959 18.9976597,7.31571956 18.9999965,12.0033643 Z M17.0265774,7.51580196 C16.4123277,6.19514146 15.2754116,6.21730802 14.6734119,7.51696862 C14.3304121,8.25838182 14.0941622,9.36321 13.9675789,10.3152056 L14.2749954,10.3152056 C15.200745,10.3152056 15.9509112,11.065952 15.9509112,11.9922811 C15.9509112,12.9186101 15.200745,13.6693566 14.2749954,13.6693566 L13.9745789,13.6693566 C14.1011622,14.6044355 14.333912,15.7331803 14.6780785,16.5218432 C15.2544116,17.8465871 16.4642443,17.8238372 17.0306607,16.5206766 C18.1658268,13.9091054 18.0643269,9.74879153 17.0265774,7.51580196 L17.0265774,7.51580196 Z" id="形状"></path>
                    </g>
                </g>
            </g>
        </g>
    </g>
</svg>