<?xml version="1.0" encoding="UTF-8"?>
<svg width="80px" height="92px" viewBox="0 0 80 92" version="1.1" xmlns="http://www.w3.org/2000/svg" xmlns:xlink="http://www.w3.org/1999/xlink">
    <!-- Generator: Sketch 56.2 (81672) - https://sketch.com -->
    <title>hand</title>
    <desc>Created with Sketch.</desc>
    <defs>
        <path d="M61.3275513,42.3362832 L61.3275513,36.9557522 C61.3275513,28.8849558 50.6551026,28.8849558 50.6551026,36.9557522 L50.6551026,31.5752212 C50.6551026,23.5044248 39.9826539,23.5044248 39.9826539,31.5752212 L39.9826539,10.0530973 C39.9826539,1.98230088 29.3102052,1.98230088 29.3102052,10.0530973 L29.3102052,61.6039646 L17.151618,49.2664071 C12.1595801,44.2329204 4.65151245,51.8409912 9.64355033,56.8771681 L31.0071245,78.4100531 C32.0076666,79.4189027 33.4271023,80 34.7985119,80 L66.815858,80 C69.764122,80 72,77.5653097 72,74.5925664 L72,42.3362832 C72,34.2654867 61.3275513,34.2654867 61.3275513,42.3362832" id="path-1"></path>
        <filter x="-22.7%" y="-13.8%" width="145.3%" height="138.2%" filterUnits="objectBoundingBox" id="filter-2">
            <feMorphology radius="0.5" operator="dilate" in="SourceAlpha" result="shadowSpreadOuter1"></feMorphology>
            <feOffset dx="0" dy="4" in="shadowSpreadOuter1" result="shadowOffsetOuter1"></feOffset>
            <feGaussianBlur stdDeviation="4" in="shadowOffsetOuter1" result="shadowBlurOuter1"></feGaussianBlur>
            <feComposite in="shadowBlurOuter1" in2="SourceAlpha" operator="out" result="shadowBlurOuter1"></feComposite>
            <feColorMatrix values="0 0 0 0 0   0 0 0 0 0   0 0 0 0 0  0 0 0 0.1 0" type="matrix" in="shadowBlurOuter1"></feColorMatrix>
        </filter>
    </defs>
    <g id="页面-1" stroke="none" stroke-width="1" fill="none" fill-rule="evenodd">
        <g id="按钮规范" transform="translate(-553.000000, -602.000000)">
            <g id="长按手势" transform="translate(553.000000, 596.000000)">
                <g id="hand" transform="translate(0.000000, 6.000000)">
                    <g id="Fill-76">
                        <use fill="black" fill-opacity="1" filter="url(#filter-2)" xlink:href="#path-1"></use>
                        <use stroke-opacity="0.1" stroke="#000000" stroke-width="1" fill="#FFFFFF" fill-rule="evenodd" xlink:href="#path-1"></use>
                    </g>
                </g>
            </g>
        </g>
    </g>
</svg>