<?xml version="1.0" encoding="UTF-8"?>
<svg width="36px" height="36px" viewBox="0 0 36 36" version="1.1" xmlns="http://www.w3.org/2000/svg" xmlns:xlink="http://www.w3.org/1999/xlink">
    <!-- Generator: Sketch 56.2 (81672) - https://sketch.com -->
    <title>Mosaic_normal</title>
    <desc>Created with Sketch.</desc>
    <g id="页面-1" stroke="none" stroke-width="1" fill="none" fill-rule="evenodd">
        <g id="按钮规范" transform="translate(-343.000000, -602.000000)" fill="#000000">
            <g id="二级工具栏" transform="translate(331.000000, 378.000000)">
                <g id="主工具栏" transform="translate(7.000000, 10.000000)">
                    <g id="Group-5" transform="translate(2.000000, 212.000000)">
                        <g id="Mosaic_normal" transform="translate(3.000000, 2.000000)">
                            <path d="M27,21.5 L27,18 L18,18 L18,27 L25,27 L13,27 C10.790861,27 9,25.209139 9,23 L9,14.5 L9,18 L18,18 L18,9 L11,9 L23,9 C25.209139,9 27,10.790861 27,13 L27,21.5 Z" id="Combined-Shape"></path>
                            <path d="M13,9 L18,9 L18,18 L9,18 L9,13 C9,10.790861 10.790861,9 13,9 Z M18,18 L27,18 L27,23 C27,25.209139 25.209139,27 23,27 L18,27 L18,18 Z" id="Combined-Shape" opacity="0.200000003"></path>
                        </g>
                    </g>
                </g>
            </g>
        </g>
    </g>
</svg>