<?xml version="1.0" encoding="UTF-8"?>
<svg width="36px" height="36px" viewBox="0 0 36 36" version="1.1" xmlns="http://www.w3.org/2000/svg" xmlns:xlink="http://www.w3.org/1999/xlink">
    <!-- Generator: Sketch 56.2 (81672) - https://sketch.com -->
    <title>video</title>
    <desc>Created with Sketch.</desc>
    <g id="页面-1" stroke="none" stroke-width="1" fill="none" fill-rule="evenodd">
        <g id="按钮规范" transform="translate(-443.000000, -568.000000)" fill-rule="nonzero">
            <g id="营销工具-主图视频" transform="translate(443.000000, 568.000000)">
                <rect id="矩形" fill="#000000" opacity="0" x="3" y="3" width="30" height="30"></rect>
                <path d="M22.3575,10.96395 C22.0779,10.70985 21.7473,10.5063 21.366,10.35375 C20.9858392,10.2023158 20.580312,10.1246822 20.1711,10.124999 L8.29875,10.124999 C7.8666,10.124999 7.4853,10.2267 7.104,10.4046 C6.74805,10.608 6.44295,10.83675 6.16335,11.1165 C5.9091,11.3961 5.70585,11.7267 5.5533,12.05715 C5.40075,12.3876 5.3499,12.7182 5.3499,13.0485 L5.3499,23.34465 C5.3499,23.77695 5.4261,24.18375 5.57865,24.5397 C5.7312,24.8955 5.93475,25.2261 6.2142,25.50555 C6.49395,25.7853 6.7989,26.01405 7.15485,26.1411 C7.5108,26.2938 7.91745,26.36985 8.34975,26.36985 L20.2221,26.36985 C20.5524,26.36985 20.883,26.26815 21.2388,26.0649 C21.5949,25.8615 21.9252,25.60725 22.2303,25.3023 C22.53525,24.9972 22.7643,24.66675 22.9674,24.33615 C23.17065,24.0057 23.2725,23.67525 23.2725,23.4207 L23.2725,20.90415 C23.2725,20.8533 23.1963,20.75145 23.0184,20.5737 C22.8219359,20.3781179 22.6432803,20.1654278 22.48455,19.93815 C22.2774322,19.678082 22.0984344,19.3968139 21.95055,19.09905 C21.77235,18.7941 21.6963,18.4635 21.6963,18.13305 C21.6963,17.80275 21.7725,17.47215 21.95055,17.1417 C22.1286,16.81125 22.30635,16.53165 22.48455,16.2519 C22.68795,15.9723 22.866,15.7434 23.0184,15.54 C23.19645,15.3366 23.2725,15.2094 23.2725,15.1332 L23.2725,13.0485 C23.2725,12.64185 23.1963,12.23505 23.04375,11.8791 C22.866,11.54865 22.6371,11.24355 22.3575,10.96395 Z M14.1459,22.73445 C11.65455,22.73445 9.64605,20.7261 9.64605,18.23475 C9.64605,15.7434 11.6544,13.7349 14.1459,13.7349 C16.6374,13.7349 18.6204,15.76875 18.6204,18.2601 C18.6204,20.75145 16.6119,22.73445 14.1459,22.73445 L14.1459,22.73445 Z M30.49275,11.98095 C30.3657,11.75205 30.0858,11.62485 29.6535,11.62485 C29.45025,11.62485 29.24685,11.7012 28.9926,11.82825 C28.7385,11.9553 28.56045,12.0825 28.40805,12.1842 C28.0521,12.43845 27.59445,12.81975 27.03525,13.32825 C26.5014,13.83675 25.96755,14.3706 25.48455,14.9553 C25.0014,15.54 24.5691,16.15005 24.2133,16.76025 C23.8572,17.3703 23.6793,17.9298 23.6793,18.3873 C23.6793,18.8703 23.832,19.40415 24.1623,19.96365 C24.4965657,20.5536775 24.8792825,21.1149085 25.3065,21.64155 C25.7388,22.1754 26.17095,22.65825 26.5776,23.09055 C27.0099,23.52285 27.315,23.8278 27.51825,24.00585 C27.59445,24.08205 27.7215,24.1839 27.89955,24.3108 C28.07775,24.438 28.2552,24.56505 28.4589,24.69225 C28.66215,24.8193 28.8402,24.921 29.04345,25.0227 C29.2467,25.1244 29.39925,25.1754 29.52645,25.1754 C29.8824,25.1754 30.16185,25.0482 30.3399,24.76845 C30.5181,24.489 30.6198,24.1839 30.6198,23.8278 L30.6198,12.87075 C30.69615,12.51465 30.61995,12.23505 30.49275,11.98095 Z" id="形状" fill="#EE4B4B"></path>
                <path d="M11.3240998,18.3111 C11.3235,19.89765 12.60915,21.1842 14.19585,21.1848002 C15.78255,21.1854 17.0691,19.89975 17.06955,18.31305 L17.06955,18.31095 C17.06955,16.72425 15.78345,15.43815 14.1969,15.43815 C12.61035,15.43815 11.3240998,16.7244 11.3240998,18.3111 L11.3240998,18.3111 Z" id="路径" fill="#FF4E4E"></path>
            </g>
        </g>
    </g>
</svg>