<?xml version="1.0" encoding="UTF-8"?>
<svg width="25px" height="25px" viewBox="0 0 25 25" version="1.1" xmlns="http://www.w3.org/2000/svg" xmlns:xlink="http://www.w3.org/1999/xlink">
    <title>mouse and touch</title>
    <g id="深" stroke="none" stroke-width="1" fill="none" fill-rule="evenodd">
        <g id="mouse-and-touch" fill="#C0C6D4">
            <path d="M11,3.75 C13.8994949,3.75 16.25,6.10050506 16.25,9 C16.25,9.84595154 16.0499183,10.6451715 15.6944959,11.3529187 L14.5557265,10.1945497 C14.6817247,9.81934804 14.75,9.4176473 14.75,9 C14.75,6.92893219 13.0710678,5.25 11,5.25 C10.6035291,5.25 10.2214286,5.31152721 9.8627259,5.42555427 L9.5,5.05781694 L9.50002918,5.56202001 C8.17558501,6.14068082 7.25,7.46224943 7.25,9 C7.25,10.5377506 8.17558501,11.8593192 9.50002918,12.43798 L9.5005566,14.0327566 C7.33165388,13.3875228 5.75,11.3784689 5.75,9 C5.75,6.10050506 8.10050506,3.75 11,3.75 Z" id="Combined-Shape" fill-rule="nonzero"></path>
            <path d="M11,1 C15.418278,1 19,4.581722 19,9 C19,10.6187175 18.5192405,12.1251476 17.6927179,13.3842937 L16.9725368,12.6527773 C17.6242763,11.5894118 18,10.3385834 18,9 C18,5.13400675 14.8659932,2 11,2 C7.13400675,2 4,5.13400675 4,9 C4,12.3511661 6.35488478,15.1523195 9.50013381,15.8389394 L9.50042196,16.8596843 C5.7989217,16.1577414 3,12.9057323 3,9 C3,4.581722 6.581722,1 11,1 Z" id="Combined-Shape" fill-rule="nonzero" opacity="0.200000003"></path>
            <polygon id="Path" points="10.5 23.5 17.8328786 23.5 21.5 18.6799234 10.5 7.5"></polygon>
        </g>
    </g>
</svg>