<?xml version="1.0" encoding="utf-8" ?>
<svg xmlns="http://www.w3.org/2000/svg" xmlns:xlink="http://www.w3.org/1999/xlink" width="21" height="19">
	<path d="M15.5 0C15.776142 0 16 0.22385763 16 0.5L16.001043 5.2901893L15.957121 5.277267C18.870621 6.1239939 21 8.8133249 21 12C21 15.865993 17.865993 19 14 19C11.591633 19 9.4673367 17.783751 8.2078238 15.931961L8.2556171 16.001329L0.5 16C0.22385763 16 0 15.776142 0 15.5L0 0.5C0 0.22385763 0.22385763 5.5511151e-17 0.5 0L15.5 0ZM14 7C11.238576 7 9 9.2385759 9 12C9 14.761424 11.238576 17 14 17C16.761423 17 19 14.761424 19 12C19 9.2385759 16.761423 7 14 7ZM13.5 2L2.5 2C2.2238576 2 2 2.2238576 2 2.5L2 13.5C2 13.776142 2.2238576 14 2.5 14L7.2901893 14.001043L7.297956 14.026941C7.1041708 13.385328 7 12.704829 7 12C7 8.1340065 10.134007 5 14 5L14 2.5C14 2.2238576 13.776142 2 13.5 2Z"/>
</svg>
