<?xml version="1.0" encoding="UTF-8"?>
<svg width="24px" height="24px" viewBox="0 0 24 24" version="1.1" xmlns="http://www.w3.org/2000/svg" xmlns:xlink="http://www.w3.org/1999/xlink">
    <title>图标/工具栏/形状@2x</title>
    <g id="ai图标更新" stroke="none" stroke-width="1" fill="none" fill-rule="evenodd" fill-opacity="0.7">
        <g id="截图录屏-工具栏" transform="translate(-618, -419)" fill="#000000">
            <g id="编组-3" transform="translate(120, 403)">
                <g id="编组" transform="translate(492, 10)">
                    <g id="图标/工具栏/形状" transform="translate(6, 6)">
                        <g id="编组" transform="translate(-6, -6)">
                            <g transform="translate(9, 9)" fill-rule="nonzero" id="形状结合">
                                <path d="M1.5,13 C1.77614237,13 2,13.2238576 2,13.5 L2,16.5 C2,16.7761424 2.22385763,17 2.5,17 L15,17 C15.5522847,17 16,16.5522847 16,16 L16,13.5 C16,13.2238576 16.2238576,13 16.5,13 L17.5,13 C17.7761424,13 18,13.2238576 18,13.5 L18,18.5 C18,18.7761424 17.7761424,19 17.5,19 L0.5,19 C0.223857625,19 0,18.7761424 0,18.5 L0,13.5 C0,13.2238576 0.223857625,13 0.5,13 L1.5,13 Z M9.5,-1 C9.77614237,-1 10,-0.776142375 10,-0.5 L10,11.783 L14.9714981,7.56161234 C15.1819497,7.38283137 15.4974845,7.40850247 15.6762695,7.61895074 L16.3238684,8.38093212 C16.4827906,8.56799978 16.4801673,8.83810076 16.3298158,9.02138184 L16.266391,9.08583415 L10.0606602,14.3535534 C9.47487373,14.9393398 8.52512627,14.9393398 7.99900012,14.4085575 L1.73360896,9.08583416 C1.52315784,8.90704674 1.49748934,8.59150657 1.67627675,8.38105545 L2.32355297,7.61879989 C2.48247512,7.43173223 2.74944883,7.39066565 2.95462086,7.50941733 L3.02850195,7.56161241 L8,11.789 L8,-0.5 C8,-0.776142375 8.22385763,-1 8.5,-1 L9.5,-1 Z"></path>
                            </g>
                        </g>
                    </g>
                </g>
            </g>
        </g>
    </g>
</svg>