<?xml version="1.0" encoding="UTF-8"?>
<svg width="21px" height="20px" viewBox="0 0 21 20" version="1.1" xmlns="http://www.w3.org/2000/svg" xmlns:xlink="http://www.w3.org/1999/xlink">
    <title>screenshot-dark</title>
    <g id="screenshot-dark" stroke="none" fill="none" transform="translate(0.5, 0)" fill-rule="nonzero">
        <path d="M2.5,13.75 L2.5,15.9999999 C2.5,16.8284271 3.1715729,17.5 4.00000006,17.5 L6.25,17.5 L6.25,18.75 L4.00000006,18.75 C2.48121696,18.75 1.25,17.518783 1.25,15.9999999 L1.25,13.75 L2.5,13.75 Z M18.75,13.75 L18.75,15.9999999 C18.75,17.518783 17.518783,18.75 15.9999999,18.75 L13.75,18.75 L13.75,17.5 L15.9999999,17.5 C16.8284271,17.5 17.5,16.8284271 17.5,15.9999999 L17.5,13.75 L18.75,13.75 Z M12.8306632,10.3093271 L16.2505517,14.6947937 L16.25,15.9999999 C16.25,16.1380712 16.1380712,16.25 15.9999999,16.25 L4.00000006,16.25 C3.86192884,16.25 3.75,16.1380712 3.75,15.9999999 L3.74891238,15.1900636 L6.45846651,12.1479671 C6.72240863,11.8327756 7.25498212,11.7951787 7.57608158,12.0690695 L8.94299474,13.2261331 C9.12934362,13.3611468 9.38985942,13.3195313 9.52487307,13.1331824 L11.5890739,10.2841259 C11.8883214,9.90124861 12.5531051,9.91474206 12.8306632,10.3093271 Z M6.25,5 C6.94035594,5 7.5,5.55964406 7.5,6.25 C7.5,6.94035594 6.94035594,7.5 6.25,7.5 C5.55964406,7.5 5,6.94035594 5,6.25 C5,5.55964406 5.55964406,5 6.25,5 Z M6.25,1.25 L6.25,2.5 L4.00000006,2.5 C3.1715729,2.5 2.5,3.1715729 2.5,4.00000006 L2.5,6.25 L1.25,6.25 L1.25,4.00000006 C1.25,2.48121696 2.48121696,1.25 4.00000006,1.25 L6.25,1.25 Z M15.9999999,1.25 C17.518783,1.25 18.75,2.48121696 18.75,4.00000006 L18.75,6.25 L17.5,6.25 L17.5,4.00000006 C17.5,3.1715729 16.8284271,2.5 15.9999999,2.5 L13.75,2.5 L13.75,1.25 L15.9999999,1.25 Z" id="形状" fill="#000000"></path>
    </g>
</svg>