<?xml version="1.0" encoding="UTF-8"?>
<svg width="36px" height="36px" viewBox="0 0 36 36" version="1.1" xmlns="http://www.w3.org/2000/svg" xmlns:xlink="http://www.w3.org/1999/xlink">
    <title>复制</title>
    <g id="6.0" stroke="none" stroke-width="1" fill="none" fill-rule="evenodd">
        <g id="OCR_1" transform="translate(-1219.000000, -773.000000)" fill="#536076">
            <g id="复制" transform="translate(1219.000000, 773.000000)">
                <g transform="translate(11.000000, 11.000000)" id="形状结合">
                    <path d="M11,2 C12.1045695,2 13,2.8954305 13,4 L13,13 C13,14.1045695 12.1045695,15 11,15 L2,15 C0.8954305,15 1.3527075e-16,14.1045695 0,13 L0,4 C-1.3527075e-16,2.8954305 0.8954305,2 2,2 L11,2 Z M6.59090909,5.54545455 L6.40909091,5.54545455 C6.13294853,5.54545455 5.90909091,5.76931217 5.90909091,6.04545455 L5.90909091,6.04545455 L5.909,7.909 L4.04545455,7.90909091 C3.79999466,7.90909091 3.59584618,8.08596607 3.55351021,8.31921528 L3.54545455,8.40909091 L3.54545455,8.59090909 C3.54545455,8.86705147 3.76931217,9.09090909 4.04545455,9.09090909 L4.04545455,9.09090909 L5.909,9.09 L5.90909091,10.9545455 C5.90909091,11.2000053 6.08596607,11.4041538 6.31921528,11.4464898 L6.40909091,11.4545455 L6.59090909,11.4545455 C6.86705147,11.4545455 7.09090909,11.2306878 7.09090909,10.9545455 L7.09090909,10.9545455 L7.09,9.09 L8.95454545,9.09090909 C9.20000534,9.09090909 9.40415382,8.91403393 9.44648979,8.68078472 L9.45454545,8.59090909 L9.45454545,8.40909091 C9.45454545,8.13294853 9.23068783,7.90909091 8.95454545,7.90909091 L8.95454545,7.90909091 L7.09,7.909 L7.09090909,6.04545455 C7.09090909,5.79999466 6.91403393,5.59584618 6.68078472,5.55351021 L6.59090909,5.54545455 Z"></path>
                    <path d="M13.8818897,2.23625192 C13.8818897,1.66283686 13.4502542,1.19023708 12.8941747,1.12564841 L12.7637794,1.11812596 L3.00013252,1.11781589 C3.38682971,0.449569654 4.10941789,0 4.93700723,0 L12.7637794,0 C13.9988099,0 15,1.00120409 15,2.23625192 L15,10.0631336 C15,10.8907346 14.5504366,11.6133329 13.8821998,12.0000355 L13.8818897,2.23625192 Z" fill-rule="nonzero"></path>
                </g>
            </g>
        </g>
    </g>
</svg>