<svg xmlns="http://www.w3.org/2000/svg" xmlns:xlink="http://www.w3.org/1999/xlink" width="24" height="24" viewBox="0 0 24 24">
  <defs>
    <filter id="deepin-screenshot&amp;record-a" width="122.7%" height="126.3%" x="-11.4%" y="-13.2%" filterUnits="objectBoundingBox">
      <feOffset in="SourceAlpha" result="shadowOffsetOuter1"/>
      <feGaussianBlur in="shadowOffsetOuter1" result="shadowBlurOuter1" stdDeviation=".5"/>
      <feComposite in="shadowBlurOuter1" in2="SourceAlpha" operator="out" result="shadowBlurOuter1"/>
      <feColorMatrix in="shadowBlurOuter1" result="shadowMatrixOuter1" values="0 0 0 0 0   0 0 0 0 0   0 0 0 0 0  0 0 0 0.15 0"/>
      <feMerge>
        <feMergeNode in="shadowMatrixOuter1"/>
        <feMergeNode in="SourceGraphic"/>
      </feMerge>
    </filter>
    <linearGradient id="deepin-screenshot&amp;record-b" x1="50%" x2="50%" y1="0%" y2="96.107%">
      <stop offset="0%" stop-color="#F0EDFF"/>
      <stop offset="100%" stop-color="#BBA7F6"/>
    </linearGradient>
    <path id="deepin-screenshot&amp;record-c" d="M18,8.5 L18,12.5 L14,12.5 L14,8.5 L18,8.5 Z M4,8.5 L4,12.5 L0,12.5 L0,8.5 L4,8.5 Z M18,0.5 L18,4.5 L14,4.5 L14,0.5 L18,0.5 Z M4,0.5 L4,4.5 L0,4.5 L0,0.5 L4,0.5 Z"/>
    <linearGradient id="deepin-screenshot&amp;record-e" x1="39.277%" x2="39.277%" y1="15.304%" y2="105.982%">
      <stop offset="0%" stop-color="#6B6386"/>
      <stop offset="72.102%" stop-color="#302B42"/>
      <stop offset="100%" stop-color="#72639E"/>
    </linearGradient>
    <radialGradient id="deepin-screenshot&amp;record-f" cx="50%" cy="91.243%" r="23.464%" fx="50%" fy="91.243%" gradientTransform="matrix(0 1 -1.57176 0 1.934 .412)">
      <stop offset="0%" stop-color="#8462FF"/>
      <stop offset="100%" stop-color="#232129"/>
    </radialGradient>
    <circle id="deepin-screenshot&amp;record-g" cx="6.295" cy="6" r="4"/>
    <radialGradient id="deepin-screenshot&amp;record-h" cx="50%" cy="50%" r="50%" fx="50%" fy="50%">
      <stop offset="0%" stop-color="#F53E84"/>
      <stop offset="100%" stop-color="#4F2CA2"/>
    </radialGradient>
    <linearGradient id="deepin-screenshot&amp;record-i" x1="100%" x2="0%" y1="27.849%" y2="67.669%">
      <stop offset="0%" stop-color="#4B003F"/>
      <stop offset="14.589%" stop-color="#33036D"/>
      <stop offset="51.448%" stop-color="#C30B9D"/>
      <stop offset="80.605%" stop-color="#591A85"/>
      <stop offset="100%" stop-color="#470437"/>
    </linearGradient>
    <linearGradient id="deepin-screenshot&amp;record-j" x1="50%" x2="50%" y1="0%" y2="50%">
      <stop offset="0%" stop-color="#FEE" stop-opacity=".85"/>
      <stop offset="100%" stop-color="#FF578A" stop-opacity=".7"/>
    </linearGradient>
  </defs>
  <g fill="none" fill-rule="evenodd" filter="url(#deepin-screenshot&amp;record-a)" transform="translate(1 2)">
    <path fill="url(#deepin-screenshot&amp;record-b)" d="M19.3181818,3 C20.7993091,3 22,4.2006909 22,5.68181818 L22,16.3181818 C22,17.7993091 20.7993091,19 19.3181818,19 L2.68181818,19 C1.2006909,19 1.28322763e-15,17.7993091 0,16.3181818 L0,5.68181818 C-1.81385779e-16,4.2006909 1.2006909,3 2.68181818,3 L19.3181818,3 Z M13.7745239,-2.65787392e-13 C14.7572647,-2.65523829e-13 15.6612944,0.537517543 16.1306745,1.40091891 L17,3 L5,3 L5.8693255,1.40091891 C6.33870558,0.537517543 7.24273528,-2.66050955e-13 8.22547613,-2.65787392e-13 L13.7745239,-2.65787392e-13 Z"/>
    <g transform="translate(2 4.5)">
      <mask id="deepin-screenshot&amp;record-d" fill="#fff">
        <use xlink:href="#deepin-screenshot&amp;record-c"/>
      </mask>
      <path stroke="#000" stroke-opacity=".4" d="M0.5,1 L0.5,12 L17.5,12 L17.5,1 L0.5,1 Z" mask="url(#deepin-screenshot&amp;record-d)"/>
    </g>
    <ellipse cx="17.67" cy="7.676" fill="#D91B19" rx="1" ry="1"/>
    <g transform="translate(4.705 5)">
      <circle cx="6.295" cy="6" r="6" fill="url(#deepin-screenshot&amp;record-e)"/>
      <use fill="url(#deepin-screenshot&amp;record-f)" xlink:href="#deepin-screenshot&amp;record-g"/>
      <circle cx="6.295" cy="6" r="4.5" stroke="#000"/>
      <circle cx="6.295" cy="6" r="3.5" stroke="#FFF" stroke-linejoin="square" stroke-opacity=".05"/>
      <circle cx="6.295" cy="6" r="2.5" fill="url(#deepin-screenshot&amp;record-h)" stroke="#080808"/>
      <circle cx="6.295" cy="6" r="2" fill="url(#deepin-screenshot&amp;record-i)"/>
      <circle cx="6.295" cy="6" r="1" fill="#38000E"/>
      <circle cx="5" cy="4" r="2" fill="url(#deepin-screenshot&amp;record-j)" opacity=".5"/>
    </g>
  </g>
</svg>
