<svg xmlns="http://www.w3.org/2000/svg" xmlns:xlink="http://www.w3.org/1999/xlink" width="96" height="96" viewBox="0 0 96 96">
  <defs>
    <filter id="deepin-screenshot&amp;record-a" width="127.3%" height="132.4%" x="-13.6%" y="-16.2%" filterUnits="objectBoundingBox">
      <feOffset dy="2" in="SourceAlpha" result="shadowOffsetOuter1"/>
      <feGaussianBlur in="shadowOffsetOuter1" result="shadowBlurOuter1" stdDeviation="2"/>
      <feComposite in="shadowBlurOuter1" in2="SourceAlpha" operator="out" result="shadowBlurOuter1"/>
      <feColorMatrix in="shadowBlurOuter1" result="shadowMatrixOuter1" values="0 0 0 0 0   0 0 0 0 0   0 0 0 0 0  0 0 0 0.2 0"/>
      <feMerge>
        <feMergeNode in="shadowMatrixOuter1"/>
        <feMergeNode in="SourceGraphic"/>
      </feMerge>
    </filter>
    <linearGradient id="deepin-screenshot&amp;record-b" x1="50%" x2="50%" y1="0%" y2="96.107%">
      <stop offset="0%" stop-color="#F0EDFF"/>
      <stop offset="100%" stop-color="#BBA7F6"/>
    </linearGradient>
    <path id="deepin-screenshot&amp;record-c" d="M10.1515043,41.0490343 L10.1515043,51.0490343 L-7.10542736e-15,51.0490343 L-7.10542736e-15,41.0490343 L10.1515043,41.0490343 Z M76,41 L76,51 L66,51 L66,41 L76,41 Z M76,0 L76,10 L66,10 L66,0 L76,0 Z M10,0 L10,10 L-7.10542736e-15,10 L-7.10542736e-15,0 L10,0 Z"/>
    <linearGradient id="deepin-screenshot&amp;record-g" x1="39.277%" x2="39.277%" y1="15.304%" y2="105.982%">
      <stop offset="0%" stop-color="#6B6386"/>
      <stop offset="72.102%" stop-color="#302B42"/>
      <stop offset="100%" stop-color="#72639E"/>
    </linearGradient>
    <linearGradient id="deepin-screenshot&amp;record-h" x1="50%" x2="50%" y1="0%" y2="100%">
      <stop offset="0%" stop-color="#FFF" stop-opacity=".15"/>
      <stop offset="100%" stop-opacity=".328"/>
    </linearGradient>
    <circle id="deepin-screenshot&amp;record-f" cx="24" cy="24" r="24"/>
    <filter id="deepin-screenshot&amp;record-e" width="116.7%" height="116.7%" x="-8.3%" y="-4.2%" filterUnits="objectBoundingBox">
      <feOffset dy="2" in="SourceAlpha" result="shadowOffsetOuter1"/>
      <feGaussianBlur in="shadowOffsetOuter1" result="shadowBlurOuter1" stdDeviation="1"/>
      <feComposite in="shadowBlurOuter1" in2="SourceAlpha" operator="out" result="shadowBlurOuter1"/>
      <feColorMatrix in="shadowBlurOuter1" values="0 0 0 0 0   0 0 0 0 0   0 0 0 0 0  0 0 0 0.3 0"/>
    </filter>
    <radialGradient id="deepin-screenshot&amp;record-i" cx="50%" cy="91.243%" r="23.464%" fx="50%" fy="91.243%" gradientTransform="matrix(0 1 -1.57176 0 1.934 .412)">
      <stop offset="0%" stop-color="#8462FF"/>
      <stop offset="100%" stop-color="#232129"/>
    </radialGradient>
    <circle id="deepin-screenshot&amp;record-j" cx="24" cy="24" r="16"/>
    <radialGradient id="deepin-screenshot&amp;record-k" cx="50%" cy="50%" r="50%" fx="50%" fy="50%">
      <stop offset="0%" stop-color="#F53E84"/>
      <stop offset="100%" stop-color="#4F2CA2"/>
    </radialGradient>
    <linearGradient id="deepin-screenshot&amp;record-l" x1="100%" x2="0%" y1="27.849%" y2="67.669%">
      <stop offset="0%" stop-color="#4B003F"/>
      <stop offset="14.589%" stop-color="#33036D"/>
      <stop offset="51.448%" stop-color="#C30B9D"/>
      <stop offset="80.605%" stop-color="#591A85"/>
      <stop offset="100%" stop-color="#470437"/>
    </linearGradient>
    <linearGradient id="deepin-screenshot&amp;record-m" x1="50%" x2="50%" y1="0%" y2="50%">
      <stop offset="0%" stop-color="#FEE" stop-opacity=".85"/>
      <stop offset="100%" stop-color="#FF578A" stop-opacity=".7"/>
    </linearGradient>
  </defs>
  <g fill="none" fill-rule="evenodd" filter="url(#deepin-screenshot&amp;record-a)" transform="translate(4 11)">
    <path fill="url(#deepin-screenshot&amp;record-b)" d="M19.6220454,6.5573015 L20.5488251,4.59026467 L20.5488251,4.59026467 C21.8690552,1.78815192 24.6882386,-1.77635684e-15 27.7857931,-1.77635684e-15 L60.2142069,-1.77635684e-15 C63.3117614,-1.77635684e-15 66.1309448,1.78815192 67.4511749,4.59026467 L68.3779546,6.5573015 C69.3681271,8.65888606 71.4825147,10 73.8056805,10 L78,10 L78,10 C83.5228475,10 88,14.4771525 88,20 L88,64 C88,69.5228475 83.5228475,74 78,74 L10,74 C4.4771525,74 0,69.5228475 0,64 L0,20 C0,14.4771525 4.4771525,10 10,10 L14.1943195,10 C16.5174853,10 18.6318729,8.65888606 19.6220454,6.5573015 Z"/>
    <g transform="translate(6 17)">
      <mask id="deepin-screenshot&amp;record-d" fill="#fff">
        <use xlink:href="#deepin-screenshot&amp;record-c"/>
      </mask>
      <path stroke="#000" stroke-opacity=".4" d="M3,0.5 C1.61928813,0.5 0.5,1.61928813 0.5,3 L0.5,48 C0.5,49.3807119 1.61928813,50.5 3,50.5 L73,50.5 C74.3807119,50.5 75.5,49.3807119 75.5,48 L75.5,3 C75.5,1.61928813 74.3807119,0.5 73,0.5 L3,0.5 Z" mask="url(#deepin-screenshot&amp;record-d)"/>
    </g>
    <circle cx="74" cy="24" r="2.5" fill="#F55" stroke="#D51818"/>
    <g transform="translate(20 18)">
      <use fill="#000" filter="url(#deepin-screenshot&amp;record-e)" xlink:href="#deepin-screenshot&amp;record-f"/>
      <circle cx="24" cy="24" r="23.5" fill="url(#deepin-screenshot&amp;record-g)" stroke="url(#deepin-screenshot&amp;record-h)" stroke-linejoin="square"/>
      <use fill="url(#deepin-screenshot&amp;record-i)" xlink:href="#deepin-screenshot&amp;record-j"/>
      <circle cx="24" cy="24" r="16.5" stroke="#000"/>
      <circle cx="24" cy="24" r="15.5" stroke="#FFF" stroke-linejoin="square" stroke-opacity=".05"/>
      <circle cx="24" cy="24" r="10.5" fill="url(#deepin-screenshot&amp;record-k)" stroke="#080808"/>
      <circle cx="24" cy="24" r="7" fill="url(#deepin-screenshot&amp;record-l)"/>
      <circle cx="24" cy="24" r="5" fill="#38000E"/>
      <ellipse cx="23" cy="18" fill="url(#deepin-screenshot&amp;record-m)" opacity=".5" rx="9" ry="8"/>
    </g>
  </g>
</svg>
