<?xml version="1.0" encoding="UTF-8"?>
<svg width="30px" height="20px" viewBox="0 0 30 20" version="1.1" xmlns="http://www.w3.org/2000/svg" xmlns:xlink="http://www.w3.org/1999/xlink">
    <!-- Generator: Sketch 64 (93537) - https://sketch.com -->
    <title>Delete</title>
    <desc>Created with Sketch.</desc>
    <g id="页面-1" stroke="none" stroke-width="1" fill="none" fill-rule="evenodd">
        <g id="Delete">
            <g id="编组">
                <path d="M25.667,19.5 L4.333,19.5 C2.225,19.5 0.5,17.775 0.5,15.667 L0.5,4.333 C0.5,2.225 2.225,0.5 4.333,0.5 L25.667,0.5 C27.775,0.5 29.5,2.225 29.5,4.333 L29.5,15.667 C29.5,17.775 27.775,19.5 25.667,19.5 Z" id="路径" fill="#FFFFFF" fill-rule="nonzero"></path>
                <path d="M25.5,19.5 L4.5,19.5 C2.291,19.5 0.5,17.709 0.5,15.5 L0.5,4.5 C0.5,2.291 2.291,0.5 4.5,0.5 L25.5,0.5 C27.709,0.5 29.5,2.291 29.5,4.5 L29.5,15.5 C29.5,17.709 27.709,19.5 25.5,19.5 Z" id="路径" stroke="#CBCBCB"></path>
            </g>
            <g id="编组" transform="translate(3.000000, 6.000000)" fill="#000000" fill-rule="nonzero">
                <path d="M1.639,0 L0.774,0 L0.744,0 L0,0 L0,8 L0.744,8 L0.774,8 L1.639,8 C3.608,8 5,6.279 5,4.31 L5,3.415 C5,1.445 3.608,0 1.639,0 Z M4,4.31 C4,5.791 3.12,7 1.639,7 L1,7 L1,1 L1.639,1 C3.12,1 4,1.934 4,3.415 L4,4.31 Z" id="形状"></path>
                <g transform="translate(5.000000, 1.000000)">
                    <path d="M4.526,4.782 L1.178,4.782 C1.193,5.292 1.332,5.686 1.598,5.965 C1.864,6.244 2.234,6.382 2.71,6.382 C3.246,6.382 3.738,6.211 4.185,5.868 L4.185,6.625 C3.764,6.922 3.206,7.071 2.511,7.071 C1.819,7.071 1.279,6.852 0.891,6.414 C0.503,5.976 0.309,5.367 0.309,4.589 C0.309,3.857 0.522,3.252 0.947,2.777 C1.371,2.298 1.9,2.061 2.532,2.061 C3.158,2.061 3.646,2.262 3.998,2.664 C4.35,3.067 4.526,3.63 4.526,4.353 L4.526,4.782 Z M3.678,4.102 C3.675,3.669 3.573,3.335 3.371,3.098 C3.169,2.861 2.885,2.743 2.519,2.743 C2.182,2.743 1.89,2.868 1.643,3.12 C1.397,3.37 1.242,3.698 1.178,4.102 L3.678,4.102 Z" id="形状"></path>
                    <polygon id="路径" points="5 7 5 0 6 0 6 7"></polygon>
                    <path d="M10.981,4.782 L7.633,4.782 C7.648,5.292 7.787,5.686 8.053,5.965 C8.318,6.243 8.689,6.382 9.165,6.382 C9.701,6.382 10.193,6.211 10.64,5.868 L10.64,6.625 C10.219,6.922 9.661,7.071 8.966,7.071 C8.274,7.071 7.734,6.852 7.346,6.414 C6.958,5.976 6.764,5.367 6.764,4.589 C6.764,3.857 6.977,3.252 7.402,2.777 C7.827,2.3 8.356,2.063 8.987,2.063 C9.613,2.063 10.101,2.264 10.453,2.666 C10.805,3.069 10.981,3.632 10.981,4.355 L10.981,4.782 L10.981,4.782 Z M10.133,4.102 C10.13,3.669 10.028,3.335 9.826,3.098 C9.624,2.861 9.34,2.743 8.974,2.743 C8.637,2.743 8.345,2.868 8.098,3.12 C7.852,3.37 7.697,3.698 7.633,4.102 L10.133,4.102 Z" id="形状"></path>
                    <path d="M14.07,6.91 C13.886,7.011 13.636,7.061 13.322,7.061 C12.466,7.061 12.037,6.587 12.037,5.637 L12.037,2.874 L11.215,2.874 L11.215,2.173 L12.037,2.173 L12.037,1.023 L12.88,0.755 L12.88,2.174 L14.07,2.174 L14.07,2.875 L12.88,2.875 L12.88,5.488 C12.88,5.803 12.933,6.028 13.04,6.163 C13.147,6.298 13.324,6.366 13.572,6.366 C13.762,6.366 13.928,6.313 14.069,6.206 L14.069,6.91 L14.07,6.91 Z" id="路径"></path>
                    <path d="M18.959,4.782 L15.611,4.782 C15.626,5.292 15.765,5.686 16.031,5.965 C16.297,6.244 16.667,6.382 17.143,6.382 C17.679,6.382 18.171,6.211 18.618,5.868 L18.618,6.625 C18.197,6.922 17.639,7.071 16.944,7.071 C16.252,7.071 15.712,6.852 15.324,6.414 C14.936,5.976 14.742,5.367 14.742,4.589 C14.742,3.857 14.955,3.252 15.38,2.777 C15.805,2.3 16.334,2.063 16.965,2.063 C17.591,2.063 18.079,2.264 18.431,2.666 C18.783,3.069 18.959,3.632 18.959,4.355 L18.959,4.782 L18.959,4.782 Z M18.111,4.102 C18.108,3.669 18.006,3.335 17.804,3.098 C17.602,2.861 17.318,2.743 16.952,2.743 C16.615,2.743 16.323,2.868 16.076,3.12 C15.83,3.37 15.675,3.698 15.611,4.102 L18.111,4.102 Z" id="形状"></path>
                </g>
            </g>
        </g>
    </g>
</svg>