<?xml version="1.0" encoding="UTF-8"?>
<svg width="36px" height="36px" viewBox="0 0 36 36" version="1.1" xmlns="http://www.w3.org/2000/svg" xmlns:xlink="http://www.w3.org/1999/xlink">
    <title>下载 </title>
    <g id="6.0" stroke="none" stroke-width="1" fill="none" fill-rule="evenodd">
        <g id="OCR_1" transform="translate(-1285.000000, -773.000000)" fill="#536076" fill-rule="nonzero">
            <g id="下载-" transform="translate(1285.000000, 773.000000)">
                <path d="M18.2813055,20.9148772 C18.3426674,20.9729155 18.4218441,21 18.5010208,21 C18.5801975,21 18.6593742,20.9709808 18.7207361,20.9148772 L22.5311777,17.5546063 C22.5826426,17.506241 22.6123338,17.4482027 22.6242103,17.3882298 C22.6598398,17.2102457 22.5252395,17.0167847 22.3114624,17.0167847 L19.9953613,17.0167847 L19.9953613,11.3095376 C19.9953613,11.1392919 19.8548227,11 19.6786546,11 L17.322383,11 C17.1481943,11 17.0056763,11.1373573 17.0056763,11.3095376 L17.0056763,17.0187193 L14.6575928,17.0187193 C14.4418363,17.0187193 14.3092153,17.2121803 14.3448448,17.3901644 C14.3567213,17.4501373 14.3864126,17.506241 14.4378775,17.5565409 L18.2813055,20.9148772 Z" id="路径"></path>
                <path d="M25.6690112,21 L20.851055,21 L19.6450145,22.2511251 C19.3347125,22.5729073 18.9292511,22.7506751 18.5010343,22.7506751 C18.0728175,22.7506751 17.6652875,22.5729073 17.3570542,22.2511251 L16.1510137,21 L11.3330575,21 C11.148945,21 11,21.1620162 11,21.360036 L11,25.6377138 C11,25.8379838 11.148945,26 11.3330575,26 L25.6690112,26 C25.8531237,26 26,25.8379838 26,25.6377138 L26,21.3622862 C26,21.1620162 25.851055,21 25.6690112,21 Z" id="形状"></path>
            </g>
        </g>
    </g>
</svg>