<?xml version="1.0" encoding="UTF-8"?>
<svg width="24px" height="24px" viewBox="0 0 24 24" version="1.1" xmlns="http://www.w3.org/2000/svg" xmlns:xlink="http://www.w3.org/1999/xlink">
    <!-- Generator: Sketch 56.2 (81672) - https://sketch.com -->
    <title>hand_small_normal_light</title>
    <desc>Created with Sketch.</desc>
    <g id="page" stroke="none" stroke-width="1" fill="none" fill-rule="evenodd">
        <g id="按钮规范" transform="translate(-461.000000, -61.000000)" fill="#000000">
            <g id="编组-2" transform="translate(461.000000, 61.000000)">
                <path d="M10.9029251,5.9138557 L10.9029251,11.102819 C10.7609733,11.137548 10.7170596,11.3035207 10.6849962,11.102819 L9.41919629,6.08435202 C9.34283968,5.53414401 7.53740281,5.87000158 7.63756534,6.47356696 L9.44136777,13.1450912 C9.44492089,13.2392116 9.45977295,13.3328724 9.4857818,13.4230714 C9.44406814,13.5994146 9.41919629,13.7242165 9.41919629,13.7242165 C5.86607364,10.0178142 5,12.6817909 5,12.6817909 C7.41449607,14.3822883 8.87904348,19.6915762 10.6849962,20 L15.792845,20 C16.8965289,20 17.7481858,19.0990835 17.7096454,17.9988898 C17.7096454,17.9988898 17.4702666,14.4246302 17.9244481,12.5196729 L18.9903849,8.04882502 C19.1609632,7.36729176 17.006776,7.05258113 16.9029253,7.51602968 L15.9924376,11.2919271 C15.9430492,11.4968466 15.8956079,11.4146757 15.9036096,11.245597 L16.1700938,5.61649848 C16.209036,4.98772215 14.0590273,4.95654389 14.0382202,5.50067341 L13.793943,10.6433067 C13.7815071,10.9046229 12.8712866,10.9097451 13.116522,10.3615385 L13.116522,5.9138557 C12.7896287,4.61826655 10.9029251,4.77501427 10.9029251,5.9138557 Z" id="path4236-1-58-5-6-copy备份-3"></path>
            </g>
        </g>
    </g>
</svg>