<?xml version="1.0" encoding="UTF-8"?>
<svg width="36px" height="36px" viewBox="0 0 36 36" version="1.1" xmlns="http://www.w3.org/2000/svg" xmlns:xlink="http://www.w3.org/1999/xlink">
    <title>按键</title>
    <g id="截图录屏" stroke="none" stroke-width="1" fill="none" fill-rule="evenodd">
        <g id="画框" transform="translate(-99, -483)" fill="#000000">
            <g id="按键" transform="translate(99, 483)">
                <rect id="占位" fill-opacity="0" x="0" y="0" width="36" height="36" rx="8"></rect>
                <path d="M27,10 L27,26 L9,26 L9,10 L27,10 Z M18,14 L12,14 L12,23 L13,23 L13,19 L18,19 L18,18 L13,18 L13,15 L18,15 L18,14 Z M24,17 L19,17 L19,23 L20,23 L20,18 L23,18 L23,23 L24,23 L24,17 Z" id="Combined-Shape" fill-rule="nonzero"></path>
            </g>
        </g>
    </g>
</svg>