<?xml version="1.0" encoding="UTF-8"?>
<svg width="32px" height="32px" viewBox="0 0 32 32" version="1.1" xmlns="http://www.w3.org/2000/svg" xmlns:xlink="http://www.w3.org/1999/xlink">
    <title>编组 6</title>
    <defs>
        <path d="M13,22.0806248 L5.39921894,16 L13,9.91937515 L13,22.0806248 Z M19,9.91937515 L26.6007811,16 L19,22.0806248 L19,9.91937515 Z M18,14 L18,18 L14,18 L14,14 L18,14 Z" id="path-1"></path>
        <filter x="-23.6%" y="-32.9%" width="147.2%" height="182.2%" filterUnits="objectBoundingBox" id="filter-2">
            <feOffset dx="0" dy="1" in="SourceAlpha" result="shadowOffsetOuter1"></feOffset>
            <feGaussianBlur stdDeviation="1.5" in="shadowOffsetOuter1" result="shadowBlurOuter1"></feGaussianBlur>
            <feColorMatrix values="0 0 0 0 0   0 0 0 0 0   0 0 0 0 0  0 0 0 0.4 0" type="matrix" in="shadowBlurOuter1"></feColorMatrix>
        </filter>
        <linearGradient x1="50%" y1="0%" x2="50%" y2="100%" id="linearGradient-3">
            <stop stop-color="#393939" offset="0%"></stop>
            <stop stop-color="#000000" offset="100%"></stop>
        </linearGradient>
    </defs>
    <g id="kwin" stroke="none" stroke-width="1" fill="none" fill-rule="evenodd">
        <g id="source-cursors" transform="translate(-459.000000, -85.000000)">
            <g id="编组-6" transform="translate(459.000000, 85.000000)">
                <g id="Combined-Shape" fill-rule="nonzero">
                    <use fill="black" fill-opacity="1" filter="url(#filter-2)" xlink:href="#path-1"></use>
                    <use fill="#FFFFFF" xlink:href="#path-1"></use>
                </g>
                <path d="M12,12 L12,20 L7,16 L12,12 Z M17,15 L17,17 L15,17 L15,15 L17,15 Z M20,12 L25,16 L20,20 L20,12 Z" id="Combined-Shape" fill="url(#linearGradient-3)"></path>
            </g>
        </g>
    </g>
</svg>