<?xml version="1.0" encoding="UTF-8"?>
<svg width="36px" height="36px" viewBox="0 0 36 36" version="1.1" xmlns="http://www.w3.org/2000/svg" xmlns:xlink="http://www.w3.org/1999/xlink">
    <title>识别文字</title>
    <g id="浅" stroke="none" stroke-width="1" fill="none" fill-rule="evenodd">
        <g id="看图_文字识别" transform="translate(-607.000000, -860.000000)">
            <g id="音乐底部控制栏normal备份" transform="translate(320.000000, 843.000000)">
                <g id="Group-4" transform="translate(10.000000, 10.000000)">
                    <g id="识别文字" transform="translate(277.000000, 7.000000)">
                        <rect id="Rectangle-175" fill="#FFFFFF" opacity="0" transform="translate(18.000000, 18.000000) scale(-1, 1) translate(-18.000000, -18.000000) " x="0" y="0" width="36" height="36" rx="8"></rect>
                        <path d="M18.0786885,13 C18.5138684,13 18.8990862,13.2814395 19.0313691,13.6960269 L19.0313691,13.6960269 L21.7338345,22.165812 C21.7538948,22.2286826 21.7641061,22.2942787 21.7641061,22.360272 C21.7641061,22.713584 21.4776901,23 21.1243781,23 L21.1243781,23 L20.9880777,23 C20.5487159,23 20.1608194,22.7132198 20.032015,22.2931623 L20.032015,22.2931623 L19.5522388,20.728513 L16.3681592,20.728513 L15.920258,22.2777384 C15.7965764,22.705535 15.4049181,23 14.9596013,23 L14.9596013,23 L14.8557214,23 C14.7923534,23 14.7293476,22.9904449 14.6688289,22.971657 C14.3363482,22.8684391 14.150494,22.5152357 14.2537119,22.182755 L14.2537119,22.182755 L16.8860742,13.7035111 C17.0159588,13.2851329 17.4030347,13 17.8411105,13 L17.8411105,13 Z M17.9939024,16 L17,19 L19,19 L17.9939024,16 Z" id="形状结合" fill="#000000" fill-rule="nonzero"></path>
                        <g id="编组" transform="translate(9.000000, 9.000000)" fill="#000000">
                            <path d="M4.5,0 C4.77614237,-5.07265313e-17 5,0.223857625 5,0.5 C5,0.776142375 4.77614237,1 4.5,1 L1,1 L1,4.5 C1,4.77614237 0.776142375,5 0.5,5 C0.223857625,5 -1.77635684e-15,4.77614237 -1.77635684e-15,4.5 L-1.11022302e-15,1 C-8.8817842e-16,0.44771525 0.44771525,5.80308224e-17 1,9.18485099e-17 L4.5,0 Z" id="形状结合"></path>
                        </g>
                        <g id="编组" transform="translate(11.500000, 24.500000) scale(1, -1) translate(-11.500000, -24.500000) translate(9.000000, 22.000000)" fill="#000000">
                            <path d="M4.5,0 C4.77614237,-5.07265313e-17 5,0.223857625 5,0.5 C5,0.776142375 4.77614237,1 4.5,1 L1,1 L1,4.5 C1,4.77614237 0.776142375,5 0.5,5 C0.223857625,5 -1.33226763e-15,4.77614237 -1.33226763e-15,4.5 L-6.66133815e-16,1 C-4.4408921e-16,0.44771525 0.44771525,5.80308224e-17 1,9.18485099e-17 L4.5,0 Z" id="形状结合"></path>
                        </g>
                        <g id="编组" transform="translate(24.500000, 11.500000) scale(-1, 1) translate(-24.500000, -11.500000) translate(22.000000, 9.000000)" fill="#000000">
                            <path d="M4.5,0 C4.77614237,-5.07265313e-17 5,0.223857625 5,0.5 C5,0.776142375 4.77614237,1 4.5,1 L1,1 L1,4.5 C1,4.77614237 0.776142375,5 0.5,5 C0.223857625,5 -1.33226763e-15,4.77614237 -1.33226763e-15,4.5 L-6.66133815e-16,1 C-4.4408921e-16,0.44771525 0.44771525,5.80308224e-17 1,9.18485099e-17 L4.5,0 Z" id="形状结合"></path>
                        </g>
                        <g id="编组" transform="translate(24.500000, 24.500000) scale(-1, -1) translate(-24.500000, -24.500000) translate(22.000000, 22.000000)" fill="#000000">
                            <path d="M4.5,0 C4.77614237,-5.07265313e-17 5,0.223857625 5,0.5 C5,0.776142375 4.77614237,1 4.5,1 L1,1 L1,4.5 C1,4.77614237 0.776142375,5 0.5,5 C0.223857625,5 -1.33226763e-15,4.77614237 -1.33226763e-15,4.5 L-6.66133815e-16,1 C-4.4408921e-16,0.44771525 0.44771525,5.80308224e-17 1,9.18485099e-17 L4.5,0 Z" id="形状结合"></path>
                        </g>
                    </g>
                </g>
            </g>
        </g>
    </g>
</svg>