<?xml version="1.0" encoding="UTF-8"?>
<svg width="32px" height="26px" viewBox="0 0 32 26" version="1.1" xmlns="http://www.w3.org/2000/svg" xmlns:xlink="http://www.w3.org/1999/xlink">
    <!-- Generator: Sketch 48.2 (47327) - http://www.bohemiancoding.com/sketch -->
    <title>pencil_normal@2x</title>
    <desc>Created with Sketch.</desc>
    <defs></defs>
    <g id="图标两倍" stroke="none" stroke-width="1" fill="none" fill-rule="evenodd" transform="translate(-118.000000, -9.000000)">
        <g id="工具栏" transform="translate(21.000000, 11.000000)">
            <rect id="占位" fill="#000000" opacity="0" x="102" y="0" width="22" height="22"></rect>
            <g id="pen" transform="translate(106.000000, 3.000000)" stroke="#303030" stroke-linecap="round" stroke-linejoin="round" stroke-width="0.8">
                <path d="M12.7109581,0.710958123 C12.3183068,0.318306794 11.683918,0.316082007 11.285956,0.714044048 L2.5,9.50000018 L0.5,14.5 L5.5,12.5000002 L14.285956,3.71404405 C14.6803116,3.31968841 14.6789474,2.67894745 14.2890419,2.28904188 L12.7109581,0.710958123 Z" id="Page-1"></path>
                <path d="M10.0584717,2.02429199 L13.0584717,5.02429199" id="Path-17"></path>
                <path d="M2.5,9.5 L5.5,12.5" id="Path-18"></path>
            </g>
            <g id="Group-25" opacity="0.797497736" transform="translate(106.000000, 3.000000)" stroke="#303030" stroke-linecap="round" stroke-linejoin="round" stroke-width="0.8">
                <g id="pen-copy-5">
                    <path d="M12.7109581,0.710958123 C12.3183068,0.318306794 11.683918,0.316082007 11.285956,0.714044048 L2.5,9.50000018 L0.5,14.5 L5.5,12.5000002 L14.285956,3.71404405 C14.6803116,3.31968841 14.6789474,2.67894745 14.2890419,2.28904188 L12.7109581,0.710958123 Z" id="Page-1"></path>
                    <path d="M10.0584717,2.02429199 L13.0584717,5.02429199" id="Path-17"></path>
                    <path d="M2.5,9.5 L5.5,12.5" id="Path-18"></path>
                </g>
            </g>
        </g>
    </g>
</svg>