<?xml version="1.0" encoding="UTF-8"?>
<svg width="30px" height="20px" viewBox="0 0 30 20" version="1.1" xmlns="http://www.w3.org/2000/svg" xmlns:xlink="http://www.w3.org/1999/xlink">
    <!-- Generator: Sketch 64 (93537) - https://sketch.com -->
    <title>Print</title>
    <desc>Created with Sketch.</desc>
    <g id="页面-1" stroke="none" stroke-width="1" fill="none" fill-rule="evenodd">
        <g id="Print">
            <g id="编组">
                <path d="M25.667,19.5 L4.333,19.5 C2.225,19.5 0.5,17.775 0.5,15.667 L0.5,4.333 C0.5,2.225 2.225,0.5 4.333,0.5 L25.667,0.5 C27.775,0.5 29.5,2.225 29.5,4.333 L29.5,15.667 C29.5,17.775 27.775,19.5 25.667,19.5 Z" id="路径" fill="#FFFFFF" fill-rule="nonzero"></path>
                <path d="M25.5,19.5 L4.5,19.5 C2.291,19.5 0.5,17.709 0.5,15.5 L0.5,4.5 C0.5,2.291 2.291,0.5 4.5,0.5 L25.5,0.5 C27.709,0.5 29.5,2.291 29.5,4.5 L29.5,15.5 C29.5,17.709 27.709,19.5 25.5,19.5 Z" id="路径" stroke="#CBCBCB"></path>
            </g>
            <g id="编组" transform="translate(5.000000, 2.000000)" fill="#000000" fill-rule="nonzero">
                <path d="M2,1 L1,1 L0,1 L0,7 L1,7 L1,5 L2,5 C3.104,5 4,4.105 4,3 L4,3 C4,1.895 3.105,1 2,1 Z M2,4 L1,4 L1,2 L2,2 C2.552,2 3,2.448 3,3 C3,3.552 2.552,4 2,4 Z" id="形状"></path>
                <path d="M7.55,3.978 C7.415,3.895 7.229,3.855 6.992,3.855 C6.678,3.855 6.418,3.98 6.215,4.23 C6.011,4.481 5.908,4.811 5.908,5.22 L5.908,6.986 L5,6.986 L5,3.083 L5.908,3.083 L5.908,3.877 L5.925,3.877 C6.157,3.303 6.557,3.016 7.125,3.016 C7.309,3.016 7.451,3.034 7.55,3.069 L7.55,3.978 L7.55,3.978 Z" id="路径"></path>
                <path d="M11.023,6.947 C10.849,7.027 10.614,7.068 10.318,7.068 C9.509,7.068 9.016,6.687 9.016,5.925 L9.016,3.875 L8.33,3.875 L8.33,3.146 L9.016,3.146 L9.016,2.222 L9.901,2.007 L9.901,3.146 L11.024,3.146 L11.024,3.875 L9.901,3.875 L9.901,5.609 C9.901,5.861 9.952,6.028 10.053,6.137 C10.154,6.246 10.32,6.3 10.554,6.3 C10.734,6.3 10.891,6.257 11.024,6.172 L11.024,6.947 L11.023,6.947 Z" id="路径"></path>
                <path d="M8.092,11.01 L6.158,15.361 C5.798,16.168 5.078,16.517 4.154,16.517 L4.119,15.656 C5.39,15.797 5.594,14.687 5.594,14.687 L4,11.01 L4.875,11.01 L6.046,13.719 L7.203,11.01 L8.092,11.01 Z" id="路径"></path>
                <path d="M8.195,13.891 C8.608,14.142 9.116,14.329 9.594,14.329 C10.641,14.329 10.605,13.792 10.28,13.633 C10.126,13.558 9.857,13.42 9.43,13.286 C8.916,13.112 8.582,12.94 8.429,12.77 C8.275,12.6 8.198,12.394 8.198,12.152 C8.198,11.807 8.372,11.53 8.72,11.323 C9.067,11.115 9.496,11.011 10.005,11.011 C10.398,11.011 10.764,11.068 11.102,11.184 L11.102,12.013 C10.756,11.825 10.363,11.731 9.925,11.731 C9.663,11.731 9.444,11.773 9.284,11.875 C8.672,12.266 9.592,12.548 10,12.685 C10.516,12.846 10.866,13.014 11.046,13.188 C11.228,13.362 11.324,13.681 11.324,13.937 C11.324,14.294 11.15,14.576 10.802,14.781 C10.455,14.986 10.005,15.089 9.452,15.089 C8.971,15.089 8.552,15.013 8.195,14.861 L8.195,13.891 L8.195,13.891 Z" id="路径"></path>
                <path d="M20.013,16.595 L19.11,16.595 L19.126,14.577 C19.126,14.577 18.64,14.943 18.052,14.943 C17.575,14.943 17.195,14.775 16.908,14.439 C16.621,14.103 16.479,13.641 16.479,13.053 C16.479,12.426 16.546,12.011 16.95,11.549 C17.248,11.208 17.611,11.077 18.14,11.077 C18.65,11.077 19.093,11.391 19.093,11.391 L19.109,11.074 L20.012,11.074 L20.012,16.595 L20.013,16.595 Z M19.203,12.654 C19.206,12.385 19.121,12.156 18.95,11.966 C18.779,11.776 18.557,11.681 18.282,11.681 C17.967,11.681 17.72,11.8 17.54,12.038 C17.36,12.276 17.271,12.606 17.271,13.029 C17.271,13.411 17.357,13.71 17.53,13.924 C17.702,14.14 17.929,14.248 18.209,14.248 C18.516,14.248 18.759,14.141 18.938,13.926 C19.117,13.711 19.205,13.444 19.203,13.124 L19.203,12.654 Z" id="形状"></path>
                <path d="M20.006,6.712 C19.691,6.885 19.312,6.972 18.868,6.972 C18.273,6.972 17.793,6.796 17.431,6.446 C17.07,6.095 16.889,5.64 16.889,5.083 C16.889,4.463 17.084,3.963 17.475,3.584 C17.865,3.204 18.388,3.015 19.043,3.015 C19.42,3.015 19.743,3.077 20.01,3.2 L20.01,4.031 C19.72,3.835 19.365,3.819 19.01,3.819 C18.593,3.819 18.261,3.959 17.993,4.217 C17.469,4.72 17.761,5.583 18.008,5.829 C18.255,6.075 18.587,6.198 19.007,6.198 C19.361,6.198 19.696,6.091 20.011,5.877 L20.006,6.712 Z" id="路径"></path>
                <path d="M12.102,5.703 C12.631,6.086 13.203,6.277 13.815,6.277 C14.635,6.277 15.045,6.008 15.045,5.471 C15.045,5.242 14.955,5.053 14.775,4.905 C14.596,4.757 14.233,4.58 13.685,4.376 C13.026,4.111 12.598,3.849 12.402,3.589 C12.205,3.329 12.106,3.016 12.106,2.647 C12.106,2.121 12.329,1.699 12.775,1.382 C13.22,1.065 13.769,0.906 14.421,0.906 C14.925,0.906 15.395,0.994 15.827,1.17 L15.827,2.185 C15.384,1.899 14.881,1.755 14.318,1.755 C13.981,1.755 13.708,1.828 13.497,1.975 C13.285,2.122 13.18,2.316 13.18,2.555 C13.18,2.791 13.256,2.976 13.409,3.109 C13.562,3.242 13.898,3.412 14.422,3.62 C15.084,3.866 15.531,4.123 15.764,4.388 C15.997,4.653 16.114,4.981 16.114,5.37 C16.114,5.915 15.891,6.344 15.445,6.657 C15,6.97 14.423,7.127 13.714,7.127 C13.098,7.127 12.561,7.011 12.103,6.778 L12.103,5.703 L12.102,5.703 Z" id="路径"></path>
                <path d="M16.52,15 L15.58,15 L14.557,13.341 C14.353,13.009 14.166,12.784 13.996,12.664 C13.826,12.544 13.623,12.485 13.387,12.485 L12.814,12.485 L12.814,15 L12.018,15 L12.018,9.025 L13.898,9.025 C14.498,9.025 14.968,9.165 15.308,9.445 C15.647,9.726 15.818,10.117 15.818,10.622 C15.818,11.45 15.361,11.988 14.448,12.234 L14.448,12.253 C14.618,12.322 14.765,12.422 14.888,12.55 C15.011,12.678 15.172,12.898 15.368,13.21 L16.52,15 Z M12.812,9.7 L12.812,11.81 L13.752,11.81 C14.115,11.81 14.411,11.707 14.638,11.501 C14.865,11.296 14.978,11.026 14.978,10.691 C14.978,10.38 14.874,10.136 14.667,9.962 C14.46,9.787 14.158,9.7 13.763,9.7 L12.812,9.7 Z" id="形状"></path>
                <path d="M0.107,13.717 C0.636,14.1 1.208,14.291 1.82,14.291 C2.64,14.291 3.05,14.022 3.05,13.485 C3.05,13.256 2.96,13.067 2.78,12.919 C2.601,12.771 2.238,12.594 1.69,12.39 C1.031,12.125 0.603,11.863 0.407,11.603 C0.21,11.343 0.111,11.03 0.111,10.661 C0.111,10.135 0.334,9.713 0.78,9.396 C1.225,9.079 1.774,8.92 2.426,8.92 C2.93,8.92 3.4,9.008 3.832,9.184 L3.832,10.199 C3.389,9.913 2.886,9.769 2.323,9.769 C1.986,9.769 1.713,9.842 1.502,9.989 C1.29,10.136 1.185,10.33 1.185,10.569 C1.185,10.805 1.261,10.99 1.414,11.123 C1.567,11.256 1.903,11.426 2.427,11.634 C3.09,11.879 3.537,12.136 3.77,12.4 C4.003,12.665 4.12,12.993 4.12,13.382 C4.12,13.927 3.897,14.356 3.451,14.669 C3.006,14.982 2.429,15.139 1.72,15.139 C1.104,15.139 0.567,15.023 0.109,14.79 L0.109,13.717 L0.107,13.717 Z" id="路径"></path>
            </g>
        </g>
    </g>
</svg>