<?xml version="1.0" encoding="UTF-8"?>
<svg width="80px" height="60px" viewBox="0 0 80 60" version="1.1" xmlns="http://www.w3.org/2000/svg" xmlns:xlink="http://www.w3.org/1999/xlink">
    <title>screenshot button-normal</title>
    <defs>
        <rect id="path-1" x="0" y="0" width="80" height="60" rx="18"></rect>
        <filter x="-27.5%" y="-23.3%" width="155.0%" height="173.3%" filterUnits="objectBoundingBox" id="filter-2">
            <feOffset dx="0" dy="8" in="SourceAlpha" result="shadowOffsetOuter1"></feOffset>
            <feGaussianBlur stdDeviation="6" in="shadowOffsetOuter1" result="shadowBlurOuter1"></feGaussianBlur>
            <feColorMatrix values="0 0 0 0 0.17254902   0 0 0 0 0.654901961   0 0 0 0 0.97254902  0 0 0 0.5 0" type="matrix" in="shadowBlurOuter1"></feColorMatrix>
        </filter>
    </defs>
    <g id="浅" stroke="none" stroke-width="1" fill="none" fill-rule="evenodd">
        <g id="按钮规范" transform="translate(-555.000000, -390.000000)">
            <g id="capture" transform="translate(555.000000, 390.000000)">
                <g id="Rectangle">
                    <use fill="black" fill-opacity="1" filter="url(#filter-2)" xlink:href="#path-1"></use>
                    <use fill="#0081FF" fill-rule="evenodd" xlink:href="#path-1"></use>
                </g>
                <g id="screenshot-button-normal" transform="translate(25.000000, 17.000000)" fill="#FFFFFF" fill-rule="nonzero">
                    <path d="M6,1.8369702e-16 L5.999,4 L22,4 C24.209139,4 26,5.790861 26,8 L26,20 L30,20 L30,22 L25.999,22 L26,26 L24,26 L23.999,22 L8,22 C5.790861,22 4,20.209139 4,18 L4,6 L0,6 L0,4 L3.999,4 L4,-1.8369702e-16 L6,1.8369702e-16 Z M22,6 L6,6 L6,18 C6,19.0543618 6.81587779,19.9181651 7.85073766,19.9945143 L8,20 L24,20 L24,8 C24,6.8954305 23.1045695,6 22,6 Z M22,8 L22,18 L8,18 L8,8 L22,8 Z" id="Combined-Shape"></path>
                </g>
            </g>
        </g>
    </g>
</svg>