<?xml version="1.0" encoding="UTF-8"?>
<svg width="20px" height="20px" viewBox="0 0 20 20" version="1.1" xmlns="http://www.w3.org/2000/svg" xmlns:xlink="http://www.w3.org/1999/xlink">
    <title>status-screen-recording-dark</title>
    <g id="status-screen-recording-dark" stroke="none" fill="none" fill-rule="nonzero">
        <path d="M10,1.25 C14.8324915,1.25 18.75,5.16750846 18.75,10 C18.75,14.8324915 14.8324915,18.75 10,18.75 C5.16750846,18.75 1.25,14.8324915 1.25,10 C1.25,5.16750844 5.16750844,1.25 10,1.25 Z M10,2.5 C5.85786437,2.5 2.5,5.85786437 2.5,10 C2.5,14.1421356 5.8578644,17.5 10,17.5 C14.1421356,17.5 17.5,14.1421356 17.5,10 C17.5,5.8578644 14.1421356,2.5 10,2.5 Z M10,5.625 C12.4162458,5.625 14.375,7.58375422 14.375,10 C14.375,12.4162458 12.4162458,14.375 10,14.375 C7.58375422,14.375 5.625,12.4162458 5.625,10 C5.625,7.58375422 7.58375422,5.625 10,5.625 Z" id="形状" fill="#000000"></path>
    </g>
</svg>