<?xml version="1.0" encoding="UTF-8"?>
<svg width="36px" height="36px" viewBox="0 0 36 36" version="1.1" xmlns="http://www.w3.org/2000/svg" xmlns:xlink="http://www.w3.org/1999/xlink">
    <title>开启摄像头</title>
    <g id="截图录屏" stroke="none" stroke-width="1" fill="none" fill-rule="evenodd">
        <g id="画框" transform="translate(-141, -483)" fill="#000000">
            <g id="开启摄像头" transform="translate(141, 483)">
                <rect id="占位" fill-opacity="0" x="0" y="0" width="36" height="36" rx="8"></rect>
                <path d="M9,26 L9,10 L27,10 L27,26 L9,26 Z M25,12 L11,12 L11,24 L13,24 L13,15 L25,15 L25,12 Z M21.8006667,22.0006109 C21.2986667,22.3479279 20.676,22.5565625 20,22.5565625 C19.3233333,22.5565625 18.7003333,22.347317 18.1976667,22 C17.2972496,22.3633315 16.6243449,23.2361336 16.2733416,24.0006104 L23.7187762,24.0011227 C23.3613243,23.2390986 22.6831709,22.3673512 21.8006667,22.0006109 Z M20,17 C18.8954286,17 18,17.8953646 18,19.0001428 C18,20.1043497 18.8954286,21 20,21 C21.1045714,21 22,20.1043497 22,19.0001428 C22,17.8953646 21.1045714,17 20,17 Z" id="形状结合" fill-rule="nonzero"></path>
            </g>
        </g>
    </g>
</svg>