<?xml version="1.0" encoding="UTF-8"?>
<svg width="26px" height="24px" viewBox="0 0 26 24" version="1.1" xmlns="http://www.w3.org/2000/svg" xmlns:xlink="http://www.w3.org/1999/xlink">
    <!-- Generator: Sketch 56.2 (81672) - https://sketch.com -->
    <title>icon_rotate</title>
    <desc>Created with Sketch.</desc>
    <defs>
        <path d="M4.01226942,8.5531449 C4.00412558,8.70106148 4,8.85004895 4,9 C4,13.418278 7.581722,17 12,17 C16.418278,17 20,13.418278 20,9 C20,4.581722 16.418278,1 12,1 L12,0 C16.9705627,0 21,4.02943725 21,9 C21,13.9705627 16.9705627,18 12,18 C7.02943725,18 3,13.9705627 3,9 C3,8.85016491 3.00366151,8.70118501 3.01089994,8.5531449 L1.42973726,8.5531449 C1.27647293,8.5531449 1.14112261,8.49741242 1.02965764,8.38395701 C0.918192675,8.27249204 0.860469745,8.13714172 0.860469745,7.98387739 C0.860469745,7.83061306 0.916202229,7.69526274 1.02965764,7.58379777 L3.30871815,5.30871815 C3.42018312,5.19725318 3.55354299,5.13953025 3.70879777,5.13953025 C3.8620621,5.13953025 3.99741242,5.19526274 4.10887739,5.30871815 L6.38395701,7.58379777 C6.49542197,7.69526274 6.5531449,7.82862261 6.5531449,7.98387739 C6.5531449,8.13714172 6.49741242,8.27249204 6.38395701,8.38395701 C6.27249204,8.49542197 6.13714172,8.5531449 5.98387739,8.5531449 L4.10887739,8.5531449 L4.01227116,8.5531449 Z" id="path-1"></path>
        <filter x="-19.6%" y="-22.2%" width="139.4%" height="144.4%" filterUnits="objectBoundingBox" id="filter-2">
            <feMorphology radius="1" operator="dilate" in="SourceAlpha" result="shadowSpreadOuter1"></feMorphology>
            <feOffset dx="0" dy="0" in="shadowSpreadOuter1" result="shadowOffsetOuter1"></feOffset>
            <feGaussianBlur stdDeviation="1" in="shadowOffsetOuter1" result="shadowBlurOuter1"></feGaussianBlur>
            <feComposite in="shadowBlurOuter1" in2="SourceAlpha" operator="out" result="shadowBlurOuter1"></feComposite>
            <feColorMatrix values="0 0 0 0 0   0 0 0 0 0   0 0 0 0 0  0 0 0 0.5 0" type="matrix" in="shadowBlurOuter1"></feColorMatrix>
        </filter>
        <circle id="path-3" cx="14" cy="12" r="2"></circle>
        <filter x="-100.0%" y="-100.0%" width="300.0%" height="300.0%" filterUnits="objectBoundingBox" id="filter-4">
            <feMorphology radius="1" operator="dilate" in="SourceAlpha" result="shadowSpreadOuter1"></feMorphology>
            <feOffset dx="0" dy="0" in="shadowSpreadOuter1" result="shadowOffsetOuter1"></feOffset>
            <feGaussianBlur stdDeviation="1" in="shadowOffsetOuter1" result="shadowBlurOuter1"></feGaussianBlur>
            <feComposite in="shadowBlurOuter1" in2="SourceAlpha" operator="out" result="shadowBlurOuter1"></feComposite>
            <feColorMatrix values="0 0 0 0 0   0 0 0 0 0   0 0 0 0 0  0 0 0 0.5 0" type="matrix" in="shadowBlurOuter1"></feColorMatrix>
        </filter>
    </defs>
    <g id="页面-1" stroke="none" stroke-width="1" fill="none" fill-rule="evenodd">
        <g id="按钮规范" transform="translate(-443.000000, -461.000000)">
            <g id="icon_rotate" transform="translate(443.000000, 461.000000)">
                <g id="编组-5" transform="translate(2.000000, 3.000000)">
                    <path d="M4.01226942,8.5531449 C4.00412558,8.70106148 4,8.85004895 4,9 C4,13.418278 7.581722,17 12,17 C16.418278,17 20,13.418278 20,9 C20,4.581722 16.418278,1 12,1 C12.0079886,0.999808222 12.0160264,1 12.0241089,1 C12.3002513,1 12.5241089,0.776142375 12.5241089,0.5 C12.5241089,0.226338783 12.3042559,0.00402697207 12.0315396,5.40925702e-05 C16.9875968,0.0170563107 21,4.03995467 21,9 C21,13.9705627 16.9705627,18 12,18 C7.02943725,18 3,13.9705627 3,9 C3,8.85016491 3.00366151,8.70118501 3.01089994,8.5531449 L1.42973726,8.5531449 C1.27647293,8.5531449 1.14112261,8.49741242 1.02965764,8.38395701 C0.918192675,8.27249204 0.860469745,8.13714172 0.860469745,7.98387739 C0.860469745,7.83061306 0.916202229,7.69526274 1.02965764,7.58379777 L3.30871815,5.30871815 C3.42018312,5.19725318 3.55354299,5.13953025 3.70879777,5.13953025 C3.8620621,5.13953025 3.99741242,5.19526274 4.10887739,5.30871815 L6.38395701,7.58379777 C6.49542197,7.69526274 6.5531449,7.82862261 6.5531449,7.98387739 C6.5531449,8.13714172 6.49741242,8.27249204 6.38395701,8.38395701 C6.27249204,8.49542197 6.13714172,8.5531449 5.98387739,8.5531449 L4.10887739,8.5531449 L4.01227116,8.5531449 Z M12,0 C12.0065054,0 12.0130091,6.90203758e-06 12.0195113,2.06991893e-05 C12.0129768,7.95583672e-05 12.0064723,0.000263765564 12,0.000571032828 Z" id="形状结合" fill="#001A2E"></path>
                    <g id="形状结合">
                        <use fill="black" fill-opacity="1" filter="url(#filter-2)" xlink:href="#path-1"></use>
                        <path stroke="#FFFFFF" stroke-width="1" d="M4.50018435,9.0531449 C4.52875941,13.1708191 7.87559378,16.5 12,16.5 C16.1421356,16.5 19.5,13.1421356 19.5,9 C19.5,4.85786438 16.1421356,1.5 12,1.5 L11.5,1.5 L11.5,-0.5 L12,-0.5 C17.2467051,-0.5 21.5,3.75329488 21.5,9 C21.5,14.2467051 17.2467051,18.5 12,18.5 C6.77102123,18.5 2.52875143,14.2753967 2.50014552,9.0531449 L1.42973726,9.0531449 C1.14088969,9.0531449 0.877451858,8.94248143 0.676104253,8.7375104 C0.471571792,8.53297794 0.360469745,8.27081609 0.360469745,7.98387739 C0.360469745,7.69502981 0.471133219,7.43159199 0.676413438,7.22993547 L2.95516476,4.95516476 C3.16008571,4.75024381 3.42035969,4.63953025 3.70879777,4.63953025 C3.99764535,4.63953025 4.26108317,4.75019373 4.46243078,4.95516476 L6.7375104,7.23024438 C6.94243135,7.43516533 7.0531449,7.69543931 7.0531449,7.98387739 C7.0531449,8.27272496 6.94248143,8.53616279 6.7375104,8.7375104 C6.53297794,8.94204286 6.27081609,9.0531449 5.98387739,9.0531449 L4.50018435,9.0531449 Z" fill="#001A2E" fill-rule="evenodd"></path>
                    </g>
                    <path d="M12.0241089,1 C12.3002513,1 12.5241089,0.776142375 12.5241089,0.5 C12.5241089,0.223857625 12.3002513,0 12.0241089,0 C11.7479665,0 11.5241089,0.223857625 11.5241089,0.5 C11.5241089,0.776142375 11.7479665,1 12.0241089,1 Z" id="椭圆形" fill="#000000"></path>
                </g>
                <g id="Oval-9">
                    <use fill="black" fill-opacity="1" filter="url(#filter-4)" xlink:href="#path-3"></use>
                    <circle stroke="#FFFFFF" stroke-width="1" fill="#001A2E" fill-rule="evenodd" cx="14" cy="12" r="2.5"></circle>
                </g>
            </g>
        </g>
    </g>
</svg>