<?xml version="1.0" encoding="UTF-8"?>
<svg width="36px" height="36px" viewBox="0 0 36 36" version="1.1" xmlns="http://www.w3.org/2000/svg" xmlns:xlink="http://www.w3.org/1999/xlink">
    <title>关闭</title>
    <g id="icon" stroke="none" stroke-width="1" fill="none" fill-rule="evenodd">
        <g id="画板" transform="translate(-647.000000, -91.000000)">
            <g id="关闭" transform="translate(647.000000, 91.000000)">
                <rect id="占位" fill="#D8D8D8" opacity="0" x="0" y="0" width="36" height="36" rx="8"></rect>
                <path d="M12.1668741,10.398097 L17.9995436,16.2305436 L23.8331259,10.398097 C24.028388,10.2028349 24.3449705,10.2028349 24.5402326,10.398097 L25.601903,11.4597674 C25.7971651,11.6550295 25.7971651,11.971612 25.601903,12.1668741 L19.7685436,17.9995436 L25.601903,23.8331259 C25.7971651,24.028388 25.7971651,24.3449705 25.601903,24.5402326 L24.5402326,25.601903 C24.3449705,25.7971651 24.028388,25.7971651 23.8331259,25.601903 L17.9995436,19.7685436 L12.1668741,25.601903 C11.971612,25.7971651 11.6550295,25.7971651 11.4597674,25.601903 L10.398097,24.5402326 C10.2028349,24.3449705 10.2028349,24.028388 10.398097,23.8331259 L16.2305436,17.9995436 L10.398097,12.1668741 C10.2028349,11.971612 10.2028349,11.6550295 10.398097,11.4597674 L11.4597674,10.398097 C11.6550295,10.2028349 11.971612,10.2028349 12.1668741,10.398097 Z" id="形状结合" fill="#000000" fill-rule="nonzero"></path>
            </g>
        </g>
    </g>
</svg>