<?xml version="1.0" encoding="UTF-8"?>
<svg width="36px" height="36px" viewBox="0 0 36 36" version="1.1" xmlns="http://www.w3.org/2000/svg" xmlns:xlink="http://www.w3.org/1999/xlink">
    <title>识别文字</title>
    <g id="icon" stroke="none" stroke-width="1" fill="none" fill-rule="evenodd">
        <g id="画板" transform="translate(-427.000000, -91.000000)">
            <g id="识别文字" transform="translate(427.000000, 91.000000)">
                <rect id="占位" fill="#D8D8D8" opacity="0" x="0" y="0" width="36" height="36" rx="8"></rect>
                <path d="M11,21 L11,25 L15,25 L15,27 L10,27 C9.44771525,27 9,26.5522847 9,26 L9,26 L9,21 L11,21 Z M27,21 L27,26 C27,26.5522847 26.5522847,27 26,27 L21,27 L21,25 L25,25 L25,21 L27,21 Z M18.4439877,13 C18.6615777,13 18.8541865,13.1407197 18.920328,13.3480135 L18.920328,13.3480135 L21.7919698,22.3480135 C21.8076485,22.397152 21.8156295,22.4484207 21.8156295,22.5 C21.8156295,22.7761424 21.5917719,23 21.3156295,23 L21.3156295,23 L20.618417,23 C20.3987361,23 20.2047878,22.8566099 20.1403856,22.6465811 L20.1403856,22.6465811 L19.5522388,20.728513 L16.3681592,20.728513 L15.8158504,22.6388692 C15.7540096,22.8527675 15.5581805,23 15.335522,23 L15.335522,23 L14.6787642,23 C14.6285002,23 14.5785236,22.9924209 14.5305197,22.9775182 C14.2667938,22.895645 14.1193729,22.6154816 14.201246,22.3517556 L14.201246,22.3517556 L16.9952759,13.3517556 C17.0602182,13.1425664 17.2537562,13 17.472794,13 L17.472794,13 Z M17.9939024,16 L17,19 L19,19 L17.9939024,16 Z M15,9 L15,11 L11,11 L11,15 L9,15 L9,10 C9,9.44771525 9.44771525,9 10,9 L15,9 Z M26,9 C26.5522847,9 27,9.44771525 27,10 L27,10 L27,15 L25,15 L25,11 L21,11 L21,9 Z" id="形状结合" fill="#000000" fill-rule="nonzero"></path>
            </g>
        </g>
    </g>
</svg>