<?xml version="1.0" encoding="UTF-8"?>
<svg width="24px" height="24px" viewBox="0 0 24 24" version="1.1" xmlns="http://www.w3.org/2000/svg" xmlns:xlink="http://www.w3.org/1999/xlink">
    <title>图标/截图工具栏/设置</title>
    <g id="图标/截图工具栏/设置" stroke="none" fill="none" fill-rule="nonzero">
        <path d="M16.072949,2 C17.3986512,2 18.6105721,2.74900832 19.2034442,3.93475242 L22.4534442,10.4347524 C22.9461173,11.4200986 22.9461173,12.5799014 22.4534442,13.5652476 L19.2034442,20.0652476 C18.6105721,21.2509917 17.3986512,22 16.072949,22 L7.92705098,22 C6.60134878,22 5.38942786,21.2509917 4.79655581,20.0652476 L1.54655581,13.5652476 C1.05388271,12.5799014 1.05388271,11.4200986 1.54655581,10.4347524 L4.79655581,3.93475242 C5.38942786,2.74900832 6.60134878,2 7.92705098,2 L16.072949,2 Z M16.072949,4 L7.92705098,4 C7.3588929,4 6.83949822,4.32100356 6.5854102,4.82917961 L3.3354102,11.3291796 C3.12426458,11.7514708 3.12426458,12.2485292 3.3354102,12.6708204 L6.5854102,19.1708204 C6.83949822,19.6789964 7.3588929,20 7.92705098,20 L16.072949,20 C16.6411071,20 17.1605018,19.6789964 17.4145898,19.1708204 L20.6645898,12.6708204 C20.8757354,12.2485292 20.8757354,11.7514708 20.6645898,11.3291796 L17.4145898,4.82917961 C17.1605018,4.32100356 16.6411071,4 16.072949,4 Z M12,8 C14.209139,8 16,9.790861 16,12 C16,14.209139 14.209139,16 12,16 C9.790861,16 8,14.209139 8,12 C8,9.790861 9.790861,8 12,8 Z M12,10 C10.8954305,10 10,10.8954305 10,12 C10,13.1045695 10.8954305,14 12,14 C13.1045695,14 14,13.1045695 14,12 C14,10.8954305 13.1045695,10 12,10 Z" id="形状结合" fill="#000000"></path>
    </g>
</svg>