<?xml version="1.0" encoding="UTF-8"?>
<svg width="23px" height="23px" viewBox="0 0 23 23" version="1.1" xmlns="http://www.w3.org/2000/svg" xmlns:xlink="http://www.w3.org/1999/xlink">
    <title>light</title>
    <g id="浅" stroke="none" stroke-width="1" fill="none" fill-rule="evenodd">
        <g id="light" fill="#FF4E4E" fill-rule="nonzero">
            <path d="M15.175641,4.72004255 C14.9214631,4.50105625 14.6209223,4.32563453 14.2742913,4.19416518 C13.9286958,4.06365745 13.5600405,3.99675196 13.1880353,3.99702249 L2.6807313,4.00000167 C2.28787373,4.00000167 1.94124273,4.0876479 1.59461172,4.24096416 C1.27102581,4.41625662 0.993666462,4.613396 0.739488572,4.85448776 C0.50835578,5.09545025 0.323585908,5.38036513 0.184906233,5.66515073 C0.0462265583,5.94993634 0,6.23485122 0,6.51950755 L0,15.3928479 C0,15.765409 0.0692716567,16.1159939 0.207951332,16.4227557 C0.346631007,16.7293882 0.531673602,17.0143031 0.78571513,17.2551363 C1.04002938,17.4962281 1.31725237,17.6933675 1.64083828,17.8028606 C1.96442419,17.9344592 2.33410029,18.0000008 2.72709422,18.0000008 L13.2343982,17.9970225 C13.5346663,17.9970225 13.8352071,17.9093779 14.1586567,17.7342147 C14.4823789,17.5589223 14.782647,17.3398067 15.0600064,17.0769973 C15.3372294,16.8140586 15.5454534,16.529273 15.7300869,16.2443581 C15.9148568,15.9595725 16.0074463,15.6747869 16.0074463,15.4554128 L16.0074463,13.2866211 C16.0074463,13.242798 15.9381746,13.1550225 15.7764499,13.0018355 C15.5978489,12.8332806 15.4354372,12.6499818 15.2911392,12.4541112 C15.1028532,12.2299816 14.9401304,11.9875816 14.8056921,11.7309652 C14.6436946,11.4681558 14.5745593,11.1832409 14.5745593,10.8984553 C14.5745593,10.6137989 14.643831,10.3288841 14.8056921,10.0440985 C14.9675533,9.75931286 15.1291417,9.51835037 15.2911392,9.2772586 C15.4760454,9.03629611 15.6379065,8.83902746 15.7764499,8.66373501 C15.938311,8.48844255 16.0074463,8.37882013 16.0074463,8.31315009 L16.0074463,6.51653169 C16.0074463,6.16607605 15.9381746,5.81549113 15.799495,5.50872934 C15.6379065,5.22394373 15.4298189,4.96100504 15.175641,4.72004255 Z M4,11.0000667 C4,8.7854226 5.79030236,7 8.01129887,7 C10.2322954,7 12,8.80795706 12,11.0226011 C12,13.2372452 10.2095639,15 8.01129887,15 C5.79043608,15 4,13.2147107 4,11.0000667 Z M22.8567831,5.5994807 C22.7412849,5.40221205 22.4868343,5.29258963 22.0938404,5.29258963 C21.9090705,5.29258963 21.7241643,5.35838893 21.4930315,5.46788208 C21.2620351,5.57737523 21.1001739,5.68699765 20.9616306,5.77464388 C20.6380447,5.99375945 20.2220057,6.32236817 19.7136499,6.76059931 C19.2283392,7.19883046 18.7430285,7.65890852 18.3039444,8.16280969 C17.8647239,8.66671087 17.47173,9.19245897 17.1482804,9.71833634 C16.8245582,10.2440844 16.6628334,10.726268 16.6628334,11.1205467 C16.6628334,11.5368017 16.8016494,11.9968797 17.1019175,12.4790633 C17.4057907,12.9875558 17.7537097,13.4712311 18.1420833,13.9250967 C18.5350772,14.3851748 18.9279348,14.8013005 19.2976109,15.1738616 C19.6906048,15.5464227 19.9679641,15.8092321 20.152734,15.9626776 C20.2220057,16.0283477 20.3375039,16.1161232 20.499365,16.2254871 C20.6613625,16.3351095 20.8226782,16.4446026 21.0078572,16.554225 C21.192627,16.6637182 21.3544882,16.7513644 21.539258,16.8390107 C21.7240279,16.9266569 21.8627076,16.9706093 21.9783422,16.9706093 C22.3019281,16.9706093 22.5559696,16.8609868 22.7178307,16.6198951 C22.8798282,16.3790619 22.9958584,16.1184603 22.9958584,15.8115692 L22.9958584,6.36828613 C22.995986,5.99711609 22.9724177,5.818467 22.8567831,5.5994807 Z" id="形状"></path>
            <path d="M6,10.9997389 C5.99958242,12.1040692 6.89465588,12.9995822 7.99932128,13 C9.10398667,13.0004175 9.99968671,12.1055309 10,11.0010962 L10,10.9996345 C10,9.89519978 9.10461325,9 8.00005229,9 C6.89549133,9 6,9.89530419 6,10.9997389 L6,10.9997389 Z" id="路径"></path>
        </g>
    </g>
</svg>