<?xml version="1.0" encoding="UTF-8"?>
<svg width="24px" height="24px" viewBox="0 0 24 24" version="1.1" xmlns="http://www.w3.org/2000/svg" xmlns:xlink="http://www.w3.org/1999/xlink">
    <!-- Generator: Sketch 56.2 (81672) - https://sketch.com -->
    <title>microphone_normal</title>
    <desc>Created with Sketch.</desc>
    <g id="页面-1" stroke="none" stroke-width="1" fill="none" fill-rule="evenodd">
        <g id="按钮规范" transform="translate(-217.000000, -214.000000)" fill="#EE4B4B">
            <g id="Group" transform="translate(208.000000, 206.000000)">
                <g id="microphone_normal" transform="translate(9.000000, 8.000000)">
                    <path d="M13,19 L15,19 L15,20 L9,20 L9,19 L11,19 L11,17.8999819 C8.71775968,17.4367116 7,15.4189579 7,13 L8,13 C8,15.209139 9.790861,17 12,17 C14.209139,17 16,15.209139 16,13 L17,13 C17,15.4189579 15.2822403,17.4367116 13,17.8999819 L13,19 Z M11.9833344,16.1034483 C11.1722176,16.1034483 10.4833365,15.8103481 9.91666667,15.224139 C9.34999723,14.6379277 9.06666667,13.9252921 9.06666667,13.086208 L9.06666667,12 L14.9333333,12 L14.9333333,13.086208 C14.9333333,13.9252921 14.644448,14.6379277 14.0666667,15.224139 C13.4888853,15.8103481 12.7944491,16.1034483 11.9833344,16.1034483 Z M9.06666667,7.01724248 C9.06666667,6.18965186 9.34999723,5.47988745 9.91666667,4.88793159 C10.4833365,4.29597352 11.1722176,4 11.9833344,4 C12.7944491,4 13.4888853,4.29597352 14.0666667,4.88793159 C14.644448,5.47988745 14.9333333,6.18965186 14.9333333,7.01724248 L14.9333333,11 L9.06666667,11 L9.06666667,7.01724248 Z" id="Combined-Shape"></path>
                </g>
            </g>
        </g>
    </g>
</svg>