<?xml version="1.0" encoding="UTF-8"?>
<svg width="30px" height="32px" viewBox="0 0 30 32" version="1.1" xmlns="http://www.w3.org/2000/svg" xmlns:xlink="http://www.w3.org/1999/xlink">
    <title>ICON / Status / Selected-Light</title>
    <defs>
        <path d="M10,0 C4.5,0 0,4.5 0,10 C0,15.5 4.5,20 10,20 C15.5,20 20,15.5 20,10 C20,4.5 15.5,0 10,0 L10,0 Z" id="path-1"></path>
        <filter x="-55.0%" y="-35.0%" width="210.0%" height="210.0%" filterUnits="objectBoundingBox" id="filter-2">
            <feOffset dx="0" dy="4" in="SourceAlpha" result="shadowOffsetOuter1"></feOffset>
            <feGaussianBlur stdDeviation="3" in="shadowOffsetOuter1" result="shadowBlurOuter1"></feGaussianBlur>
            <feColorMatrix values="0 0 0 0 0   0 0 0 0 0.505882353   0 0 0 0 1  0 0 0 0.4 0" type="matrix" in="shadowBlurOuter1"></feColorMatrix>
        </filter>
        <filter x="-40.0%" y="-20.0%" width="180.0%" height="180.0%" filterUnits="objectBoundingBox" id="filter-3">
            <feMorphology radius="1" operator="erode" in="SourceAlpha" result="shadowSpreadInner1"></feMorphology>
            <feGaussianBlur stdDeviation="1" in="shadowSpreadInner1" result="shadowBlurInner1"></feGaussianBlur>
            <feOffset dx="0" dy="-1" in="shadowBlurInner1" result="shadowOffsetInner1"></feOffset>
            <feComposite in="shadowOffsetInner1" in2="SourceAlpha" operator="arithmetic" k2="-1" k3="1" result="shadowInnerInner1"></feComposite>
            <feColorMatrix values="0 0 0 0 0.0356979208   0 0 0 0 0.355505317   0 0 0 0 0.977270154  0 0 0 1 0" type="matrix" in="shadowInnerInner1"></feColorMatrix>
        </filter>
    </defs>
    <g id="页面-1" stroke="none" stroke-width="1" fill="none" fill-rule="evenodd">
        <g id="选项-样式-样机" transform="translate(-1600.000000, -552.000000)">
            <g id="矩形-+-矩形-+-矩形-+-矩形-蒙版" transform="translate(1450.000000, 440.000000)">
                <g id="编组" transform="translate(156.000000, 114.000000)">
                    <g id="select_active-copy-24">
                        <use fill="black" fill-opacity="1" filter="url(#filter-2)" xlink:href="#path-1"></use>
                        <use fill="#0081FF" fill-rule="evenodd" xlink:href="#path-1"></use>
                        <use fill="black" fill-opacity="1" filter="url(#filter-3)" xlink:href="#path-1"></use>
                    </g>
                    <g transform="translate(3.000000, 3.000000)" fill="#FFFFFF" fill-rule="nonzero" id="DTK-/-Menu-/-Menuitem-/-Select-/-Active">
                        <g id="menuitem_select" transform="translate(0.874998, 1.749962)">
                            <path d="M10.4266528,0.335418539 C10.7246765,-0.0449913027 11.2746555,-0.111778503 11.6550653,0.186245151 C12.0062129,0.46134391 12.0901317,0.951126525 11.8665608,1.32405254 L11.8042387,1.41465766 L4.94924525,10.1646577 C4.64119251,10.5578691 4.07397327,10.6092779 3.70099725,10.297988 L3.62421217,10.225724 L0.238762127,6.63989087 C-0.0929875069,6.28850515 -0.077069311,5.73471452 0.274316413,5.40296489 C0.598672466,5.09673445 1.09549187,5.0867417 1.43093643,5.36339076 L1.5112424,5.43851917 L4.19825226,8.2845381 L10.4266528,0.335418539 Z" id="Path-1112"></path>
                        </g>
                    </g>
                </g>
            </g>
        </g>
    </g>
</svg>