<svg id="图层_1" data-name="图层 1" xmlns="http://www.w3.org/2000/svg" viewBox="0 0 60 60"><defs><style>.cls-1{fill:#fff;fill-rule:evenodd;}</style></defs><g id="Page-1"><g id="countdown_3" data-name="countdown 3"><path id="_3" data-name="3" class="cls-1" d="M29.27,53C36.51,53,42,48.28,42,40.81c0-6.22-4.52-10.28-9.83-11.36v-.23c4.64-1.5,8.26-5.08,8.26-11,0-6.46-5-10.16-11.28-10.22-4.95.06-8.5,2.39-11.28,5.08l1.39,1.55a14.4,14.4,0,0,1,9.89-4.72c5.43.12,8.93,3.47,8.93,8.43,0,5.56-3.5,10-13.57,10v2.09c10.73,0,15.2,4.24,15.2,10.46S35.36,51,29.39,51a15.24,15.24,0,0,1-12-5.5L16,47.08A17.33,17.33,0,0,0,29.27,53Z"/></g></g></svg>