<?xml version="1.0" encoding="UTF-8"?>
<svg width="24px" height="24px" viewBox="0 0 24 24" version="1.1" xmlns="http://www.w3.org/2000/svg" xmlns:xlink="http://www.w3.org/1999/xlink">
    <title>编组 23</title>
    <g id="页面-1" stroke="none" stroke-width="1" fill="none" fill-rule="evenodd">
        <g id="编组-23">
            <rect id="矩形" x="0" y="0" width="24" height="24"></rect>
            <g id="ICON-/-TrayICON-/-Flymode-/-Light" transform="translate(1.500000, 1.500000)" fill="#FF5736" fill-rule="nonzero">
                <path d="M10.5,21 C4.70101013,21 0,16.2989899 0,10.5 C0,4.70101013 4.70101013,0 10.5,0 C16.2989899,0 21,4.70101013 21,10.5 C21,13.2847731 19.8937532,15.9554892 17.9246212,17.9246212 C15.9554892,19.8937532 13.2847731,21 10.5,21 Z M10.5,19.5 C15.4705627,19.5 19.5,15.4705627 19.5,10.5 C19.5,5.52943725 15.4705627,1.5 10.5,1.5 C5.52943725,1.5 1.5,5.52943725 1.5,10.5 C1.5,15.4705627 5.52943725,19.5 10.5,19.5 Z M8,6 L13,6 C14.1045695,6 15,6.8954305 15,8 L15,13 C15,14.1045695 14.1045695,15 13,15 L8,15 C6.8954305,15 6,14.1045695 6,13 L6,8 C6,6.8954305 6.8954305,6 8,6 Z" id="形状"></path>
            </g>
        </g>
    </g>
</svg>