<?xml version="1.0" encoding="UTF-8"?>
<svg width="24px" height="24px" viewBox="0 0 24 24" version="1.1" xmlns="http://www.w3.org/2000/svg" xmlns:xlink="http://www.w3.org/1999/xlink">
    <title>编组 22</title>
    <g id="页面-1" stroke="none" stroke-width="1" fill="none" fill-rule="evenodd">
        <g id="编组-22">
            <rect id="矩形" x="0" y="0" width="24" height="24"></rect>
            <g id="ICON-/-TrayICON-/-Flymode-/-Light" transform="translate(1.000000, 2.000000)" fill="#000000" fill-rule="nonzero">
                <path d="M22,16 L19,16 L19,3 L4,3 L4,0 L3,0 L3,3 L0,3 L0,4 L3,4 L3,17 L18,17 L18,20 L19,20 L19,17 L22,17 L22,16 Z M4,16 L4,4 L18,4 L18,16 L4,16 Z M7,7.5 C7,6.672 7.672,6 8.5,6 C9.328,6 10,6.672 10,7.5 C10,8.328 9.328,9 8.5,9 C7.672,9 7,8.328 7,7.5 Z M12.2843055,9.14295683 L9.74953435,12.3655844 C9.49460916,12.6896882 9.02521343,12.7457685 8.70110965,12.4908433 C8.65246418,12.452581 8.60886034,12.4084943 8.57123457,12.3596544 L8.51939655,12.2829637 C8.306816,11.922104 7.84195078,11.8018999 7.48109102,12.0144804 C7.40304343,12.0604579 7.3338646,12.1200466 7.27683319,12.1904225 L5,15 L17.292,15 L13.9335569,9.25641643 C13.6547801,8.77965449 13.042295,8.61915582 12.565533,8.89793262 C12.4572532,8.96124704 12.3618515,9.04436741 12.2843055,9.14295683 Z" id="形状"></path>
            </g>
        </g>
    </g>
</svg>