<?xml version="1.0" encoding="UTF-8"?>
<svg width="20px" height="18px" viewBox="0 0 20 18" version="1.1" xmlns="http://www.w3.org/2000/svg" xmlns:xlink="http://www.w3.org/1999/xlink">
    <title>Combined Shape</title>
    <defs>
        <linearGradient x1="50%" y1="2.05473266%" x2="50%" y2="97.5591582%" id="linearGradient-1">
            <stop stop-color="#DBFDFF" offset="0%"></stop>
            <stop stop-color="#70FBFB" offset="100%"></stop>
        </linearGradient>
    </defs>
    <g id="浅" stroke="none" stroke-width="1" fill="none" fill-rule="evenodd">
        <g id="任务栏插件菜单" transform="translate(-1435.000000, -1025.000000)" fill="url(#linearGradient-1)">
            <g id="new_dock" transform="translate(10.000000, 998.000000)">
                <g id="Group-10" transform="translate(1394.000000, 12.000000)">
                    <g id="dock-copy" transform="translate(0.000000, 1.000000)">
                        <g id="声音" transform="translate(21.000000, 3.000000)">
                            <g id="sound" transform="translate(10.000000, 11.000000)">
                                <path d="M4,9.18485099e-17 L3.999,2.999 L15,3 C16.1045695,3 17,3.8954305 17,5 L17,14 L20,14 L20,15 L17,15 L17,18 L16,18 L16,14.999 L5,15 C3.8954305,15 3,14.1045695 3,13 L3,4 L0,4 L0,3 L2.999,3 L3,-9.18485099e-17 L4,9.18485099e-17 Z M15,4 L4,4 L4,13 C4,13.5128358 4.38604019,13.9355072 4.88337887,13.9932723 L5,14 L16,14 L16,5 C16,4.44771525 15.5522847,4 15,4 Z M15,5 L15,13 L5,13 L5,5 L15,5 Z" id="Combined-Shape"></path>
                            </g>
                        </g>
                    </g>
                </g>
            </g>
        </g>
    </g>
</svg>