<?xml version="1.0" encoding="UTF-8"?>
<svg width="20px" height="20px" viewBox="0 0 20 20" version="1.1" xmlns="http://www.w3.org/2000/svg" xmlns:xlink="http://www.w3.org/1999/xlink">
    <title>Screen Capture</title>
    <g id="Screen-Capture" stroke="none" stroke-width="1" fill="none" fill-rule="evenodd">
        <path d="M5,2 L5,4.999 L14,5 C15.1045695,5 16,5.8954305 16,7 L16,13.999 L19,14 L19,15 L16,15 L16,18 L15,18 L15,14.999 L6,15 C4.8954305,15 4,14.1045695 4,13 L4,6 L1,6 L1,5 L3.999,5 L4,2 L5,2 Z M15,7 C15,6.44771525 14.5522847,6 14,6 L5,6 L5,13 C5,13.5128358 5.38604019,13.9355072 5.88337887,13.9932723 L6,14 L15,14 L15,7 Z M14,7 L14,13 L6,13 L6,7 L14,7 Z" id="Combined-Shape" fill="#FFFFFF"></path>
        <rect id="矩形" x="0" y="0" width="20" height="20"></rect>
    </g>
</svg>