<?xml version="1.0" encoding="UTF-8"?>
<svg width="16px" height="16px" viewBox="0 0 16 16" version="1.1" xmlns="http://www.w3.org/2000/svg" xmlns:xlink="http://www.w3.org/1999/xlink">
    <title>status-screen-recording-dark</title>
    <g id="status-screen-recording-dark" stroke="none" stroke-width="1" fill="none" fill-rule="evenodd">
        <path d="M8,1 C11.8659932,1 15,4.13400677 15,8 C15,11.8659932 11.8659932,15 8,15 C4.13400677,15 1,11.8659932 1,8 C1,4.13400675 4.13400675,1 8,1 Z M8,2 C4.6862915,2 2,4.6862915 2,8 C2,11.3137085 4.68629152,14 8,14 C11.3137085,14 14,11.3137085 14,8 C14,4.68629152 11.3137085,2 8,2 Z M8,4.5 C9.93299662,4.5 11.5,6.06700338 11.5,8 C11.5,9.93299662 9.93299662,11.5 8,11.5 C6.06700338,11.5 4.5,9.93299662 4.5,8 C4.5,6.06700338 6.06700338,4.5 8,4.5 Z" id="形状" fill="#000000" fill-rule="nonzero"></path>
    </g>
</svg>