<?xml version="1.0" encoding="UTF-8"?>
<svg width="60px" height="60px" viewBox="0 0 60 60" version="1.1" xmlns="http://www.w3.org/2000/svg" xmlns:xlink="http://www.w3.org/1999/xlink">
    <!-- Generator: Sketch 47 (45396) - http://www.bohemiancoding.com/sketch -->
    <title>countdown_3</title>
    <desc>Created with Sketch.</desc>
    <defs></defs>
    <g id="Page-1" stroke="none" stroke-width="1" fill="none" fill-rule="evenodd">
        <g id="countdown_3" fill="#000000">
            <path d="M29.2714617,53 C36.5104408,53 42,48.2788845 42,40.8087649 C42,34.5936255 37.4756381,30.5298805 32.1670534,29.4541833 L32.1670534,29.2151394 C36.812065,27.7211155 40.4315545,24.1354582 40.4315545,18.2191235 C40.4315545,11.7649402 35.424594,8.05976096 29.1508121,8 C24.2041763,8.05976096 20.6450116,10.3904382 17.8700696,13.0796813 L19.2575406,14.6334661 C21.6102088,12.063745 25.2296984,10.0318725 29.1508121,9.9123506 C34.5800464,10.0318725 38.0788863,13.3784861 38.0788863,18.3386454 C38.0788863,23.8964143 34.5800464,28.3784861 24.5058005,28.3784861 L24.5058005,30.4701195 C35.2436195,30.4701195 39.7076566,34.7131474 39.7076566,40.9282869 C39.7076566,47.0239044 35.3642691,51.0278884 29.3921114,51.0278884 C23.3596288,51.0278884 19.9211137,48.2788845 17.387471,45.5298805 L16,47.0836653 C18.6542923,49.8326693 22.5150812,53 29.2714617,53 Z" id="3"></path>
        </g>
    </g>
</svg>