<?xml version="1.0" encoding="UTF-8"?>
<svg width="30px" height="30px" viewBox="0 0 30 30" version="1.1" xmlns="http://www.w3.org/2000/svg" xmlns:xlink="http://www.w3.org/1999/xlink">
    <!-- Generator: Sketch 47 (45396) - http://www.bohemiancoding.com/sketch -->
    <title>record_icon_press</title>
    <desc>Created with Sketch.</desc>
    <defs>
        <path d="M3,19.653579 L3,11.3451095 C3,10.4255613 3.3121408,9.638166 3.93643128,8.98289571 C4.56072203,8.3276282 5.30775542,8 6.17755514,8 L18.0144684,8 C18.8632212,8 19.5927196,8.31133812 20.2029823,8.9340227 C20.8132423,9.55671006 21.139413,10.3097125 21.1814999,11.1930577 L25.6637433,8.23893501 C26.0284992,7.98551715 26.3423927,7.93845416 26.6054372,8.09774601 C26.8684818,8.25703787 27,8.57923604 27,9.06435164 L27,21.9234746 C27,22.4085905 26.8684818,22.7344095 26.6054372,22.9009418 C26.3423927,23.067474 26.0284992,23.0240315 25.6637433,22.7706129 L21.1814999,19.805628 C21.1464271,20.696215 20.8220125,21.4510293 20.2082428,22.0700947 C19.5944731,22.6891604 18.8632212,22.9986885 18.0144684,22.9986885 L6.17755514,22.9986885 C5.30074086,22.9986885 4.55195397,22.6710592 3.9311705,22.0157911 C3.31038702,21.3605228 3,20.5731266 3,19.653579 Z M9,15.1708026 C9,16.0045194 9.28923624,16.7199213 9.86770873,17.3170427 C10.4461896,17.9141642 11.1392669,18.2127206 11.9469489,18.2127206 C12.7546394,18.2127206 13.4477082,17.9141642 14.0261891,17.3170427 C14.60467,16.7199213 14.8939062,16.0045194 14.8939062,15.1708026 C14.8939062,14.3370943 14.60467,13.6216838 14.0261891,13.0245624 C13.4477082,12.4274496 12.7546394,12.1288932 11.9469489,12.1288932 C11.1392669,12.1288932 10.4461896,12.4274496 9.86770873,13.0245624 C9.28923624,13.6216838 9,14.3370943 9,15.1708026 Z" id="path-1"></path>
    </defs>
    <g id="Page-1" stroke="none" stroke-width="1" fill="none" fill-rule="evenodd">
        <g id="record_icon_press">
            <g id="Combined-Shape">
                <use fill="#E5463D" fill-rule="evenodd" xlink:href="#path-1"></use>
                <path stroke="#E5463D" stroke-width="1" d="M3.5,19.653579 C3.5,20.445849 3.76180761,21.1100078 4.29414596,21.6719179 C4.82126957,22.2283233 5.43918166,22.4986885 6.17755514,22.4986885 L18.0144684,22.4986885 C18.7288529,22.4986885 19.3325968,22.2431323 19.853174,21.7180633 C20.3783457,21.1883603 20.6517057,20.5523361 20.6818871,19.7859524 L20.7168265,18.8987537 L21.4573553,19.3886103 L25.9490292,22.359989 C26.1634226,22.5089415 26.2671936,22.5233032 26.337983,22.4784868 C26.4336279,22.4179344 26.5,22.2535076 26.5,21.9234746 L26.5,9.06435164 C26.5,8.73717987 26.4356104,8.57943691 26.3464399,8.52543793 C26.2751648,8.48227588 26.1663177,8.49859548 25.9388945,8.65641767 L20.723835,12.0935192 L20.6820664,11.2168531 C20.6457935,10.455535 20.3699639,9.81874757 19.845885,9.2839963 C19.3289613,8.75655067 18.727836,8.5 18.0144684,8.5 L6.17755514,8.5 C5.44613004,8.5 4.8293998,8.77048099 4.29843857,9.32778805 C3.76312483,9.8896662 3.5,10.5534167 3.5,11.3451095 L3.5,19.653579 Z M8.5,15.1708026 C8.5,14.2073347 8.83968962,13.3671279 9.508597,12.6766561 C10.1805039,11.9831083 11.0027912,11.6288932 11.9469489,11.6288932 C12.8911121,11.6288932 13.7133919,11.9831061 14.3853034,12.6766587 C15.054214,13.3671238 15.3939062,14.2073311 15.3939062,15.1708026 C15.3939062,16.1342796 15.0542161,16.9744791 14.3853034,17.6649464 C13.7133959,18.3585049 12.8911157,18.7127206 11.9469489,18.7127206 C11.0027876,18.7127206 10.1804998,18.3585028 9.50859196,17.6649438 C8.8396875,16.974475 8.5,16.134276 8.5,15.1708026 Z"></path>
            </g>
        </g>
    </g>
</svg>